<?xml version="1.0" encoding="UTF-8" standalone="no"?>
<!DOCTYPE svg PUBLIC "-//W3C//DTD SVG 1.1//EN" "http://www.w3.org/Graphics/SVG/1.1/DTD/svg11.dtd">
<svg width="100%" height="100%" viewBox="0 0 596 331" version="1.1" xmlns="http://www.w3.org/2000/svg" xmlns:xlink="http://www.w3.org/1999/xlink" xml:space="preserve" xmlns:serif="http://www.serif.com/" style="fill-rule:evenodd;clip-rule:evenodd;stroke-miterlimit:10;">
    <g id="Artboard1" transform="matrix(0.465078,0,0,0.459167,0,0)">
        <rect x="0" y="0" width="1280" height="720" style="fill:none;"/>
        <clipPath id="_clip1">
            <rect x="0" y="0" width="1280" height="720"/>
        </clipPath>
        <g clip-path="url(#_clip1)">
            <g id="Frame" transform="matrix(2.15018,0,0,2.17786,0,0)">
                <path d="M590.28,2C591.934,2 593.28,3.346 593.28,5L593.28,325.643C593.28,327.297 591.934,328.643 590.28,328.643L5,328.643C3.346,328.643 2,327.297 2,325.643L2,5C2,3.346 3.346,2 5,2L590.28,2M590.28,0L5,0C2.25,0 0,2.25 0,5L0,325.643C0,328.393 2.25,330.643 5,330.643L590.28,330.643C593.03,330.643 595.28,328.393 595.28,325.643L595.28,5C595.28,2.25 593.03,0 590.28,0Z" style="fill:rgb(69,69,69);fill-rule:nonzero;"/>
            </g>
            <g transform="matrix(2.15018,0,0,2.17786,0,0)">
                <rect x="32.422" y="25.07" width="416.578" height="35.333" style="fill:none;"/>
                <g transform="matrix(0.9799,0,0,1,32.4224,34.8198)">
                    <text x="0px" y="0px" style="font-family:'RobotoMono-Bold', 'Roboto Mono';font-weight:700;font-size:13px;">Case Study: Degrading Multisig Spending Paths</text>
                </g>
            </g>
            <g transform="matrix(2.15018,0,0,2.17786,0,0)">
                <rect x="33.539" y="82.177" width="93.795" height="27.929" style="fill:none;"/>
                <g transform="matrix(0.9799,0,0,1,33.5386,99.7271)">
                    <text x="0px" y="0px" style="font-family:'RobotoMono-Bold', 'Roboto Mono';font-weight:700;font-size:9px;">Main Wallet Keys</text>
                </g>
            </g>
            <g transform="matrix(2.15018,0,0,2.17786,0,0)">
                <rect x="33.539" y="254.357" width="93.795" height="27.929" style="fill:none;"/>
                <g transform="matrix(0.9799,0,0,1,33.5386,271.907)">
                    <text x="0px" y="0px" style="font-family:'RobotoMono-Bold', 'Roboto Mono';font-weight:700;font-size:9px;">Time Delay</text>
                </g>
            </g>
            <g transform="matrix(2.15018,0,0,2.17786,0,0)">
                <rect x="33.539" y="168.689" width="115.128" height="33.083" style="fill:none;"/>
                <g transform="matrix(0.9799,0,0,1,33.5386,186.239)">
                    <text x="0px" y="0px" style="font-family:'RobotoMono-Bold', 'Roboto Mono';font-weight:700;font-size:9px;">Backup Wallet Keys</text>
                </g>
            </g>
            <g transform="matrix(2.15018,0,0,2.17786,0,0)">
                <rect x="304.237" y="278.613" width="113.525" height="33.345" style="fill:none;"/>
                <g transform="matrix(0.9799,0,0,1,347.197,284.613)">
                    <text x="0px" y="0px" style="font-family:'RobotoMono-Italic', 'Roboto Mono';font-style:italic;font-size:8px;">3 Days</text>
                </g>
            </g>
            <g transform="matrix(2.15018,0,0,2.17786,0,0)">
                <rect x="158.72" y="265.613" width="113.525" height="33.345" style="fill:none;"/>
                <g transform="matrix(0.9799,0,0,1,213.13,271.613)">
                    <text x="0px" y="0px" style="font-family:'RobotoMono-Bold', 'Roboto Mono';font-weight:700;font-size:8px;">-</text>
                </g>
            </g>
            <g transform="matrix(2.15018,0,0,2.17786,0,0)">
                <rect x="158.72" y="179.216" width="113.525" height="33.345" style="fill:none;"/>
                <g transform="matrix(0.9799,0,0,1,213.13,185.216)">
                    <text x="0px" y="0px" style="font-family:'RobotoMono-Bold', 'Roboto Mono';font-weight:700;font-size:8px;">-</text>
                </g>
            </g>
            <g transform="matrix(2.15018,0,0,2.17786,0,0)">
                <rect x="304.237" y="137.821" width="113.525" height="16.673" style="fill:none;"/>
                <g transform="matrix(0.9799,0,0,1,353.943,143.821)">
                    <text x="0px" y="0px" style="font-family:'RobotoMono-Bold', 'Roboto Mono';font-weight:700;font-size:8px;">AND</text>
                </g>
            </g>
            <g transform="matrix(2.15018,0,0,2.17786,0,0)">
                <rect x="304.237" y="224.321" width="113.525" height="16.673" style="fill:none;"/>
                <g transform="matrix(0.9799,0,0,1,353.943,230.321)">
                    <text x="0px" y="0px" style="font-family:'RobotoMono-Bold', 'Roboto Mono';font-weight:700;font-size:8px;">AND</text>
                </g>
            </g>
            <g transform="matrix(2.15018,0,0,2.17786,0,0)">
                <rect x="449" y="137.821" width="113.525" height="16.673" style="fill:none;"/>
                <g transform="matrix(0.9799,0,0,1,498.706,143.821)">
                    <text x="0px" y="0px" style="font-family:'RobotoMono-Bold', 'Roboto Mono';font-weight:700;font-size:8px;">AND</text>
                </g>
            </g>
            <g transform="matrix(2.15018,0,0,2.17786,0,0)">
                <rect x="449" y="224.321" width="113.525" height="16.673" style="fill:none;"/>
                <g transform="matrix(0.9799,0,0,1,498.706,230.321)">
                    <text x="0px" y="0px" style="font-family:'RobotoMono-Bold', 'Roboto Mono';font-weight:700;font-size:8px;">AND</text>
                </g>
            </g>
            <g transform="matrix(2.15018,0,0,2.17786,0,0)">
                <rect x="449" y="278.613" width="113.525" height="33.345" style="fill:none;"/>
                <g transform="matrix(0.9799,0,0,1,489.659,284.613)">
                    <text x="0px" y="0px" style="font-family:'RobotoMono-Italic', 'Roboto Mono';font-style:italic;font-size:8px;">10 Days</text>
                </g>
            </g>
            <g transform="matrix(2.15018,0,0,2.17786,0,0)">
                <path d="M286.111,78.177L286.111,286.103" style="fill:none;fill-rule:nonzero;stroke:black;stroke-width:0.68px;"/>
            </g>
            <g transform="matrix(2.15018,0,0,2.17786,0,0)">
                <path d="M434.556,78.177L434.556,286.103" style="fill:none;fill-rule:nonzero;stroke:black;stroke-width:0.68px;"/>
            </g>
            <g transform="matrix(2.15018,0,0,2.17786,0,0)">
                <path d="M148.667,78.177L148.667,286.103" style="fill:none;fill-rule:nonzero;stroke:black;stroke-width:0.68px;"/>
            </g>
            <g transform="matrix(2.15018,0,0,2.17786,0,0)">
                <path id="XMrvzd.tif_1_" d="M203.613,104.806C203.745,104.131 204.187,103.666 204.655,103.201C207.832,100.038 210.998,96.865 214.175,93.701C214.343,93.534 214.36,93.413 214.262,93.201C212.373,89.115 214.913,84.313 219.347,83.577C223.138,82.948 226.684,85.529 227.274,89.346C227.841,93.023 225.258,96.527 221.561,97.108C220.169,97.327 218.84,97.136 217.567,96.541C217.424,96.474 217.327,96.456 217.198,96.586C215.823,97.974 214.44,99.355 213.06,100.737C213.04,100.757 213.026,100.781 212.991,100.828C213.057,100.899 213.124,100.974 213.195,101.044C213.915,101.765 214.636,102.485 215.356,103.207C215.885,103.739 215.888,104.343 215.36,104.872C214.187,106.048 213.012,107.223 211.837,108.396C211.303,108.929 210.704,108.931 210.172,108.401C209.383,107.616 208.598,106.827 207.753,105.982C207.602,106.153 207.461,106.314 207.318,106.473C206.075,107.854 203.955,107.158 203.655,105.5C203.65,105.474 203.628,105.451 203.614,105.427C203.613,105.221 203.613,105.014 203.613,104.806ZM217.86,90.335C217.854,91.776 219.014,92.962 220.441,92.972C221.92,92.981 223.099,91.829 223.107,90.367C223.114,88.9 221.941,87.71 220.486,87.71C219.042,87.708 217.867,88.883 217.86,90.335Z" style="fill:rgb(161,218,222);stroke:black;stroke-width:1px;"/>
                <path id="XMrvzd.tif_3_" d="M241.046,104.806C241.178,104.131 241.621,103.666 242.088,103.201C245.265,100.038 248.431,96.865 251.608,93.701C251.776,93.534 251.793,93.413 251.695,93.201C249.806,89.115 252.347,84.313 256.78,83.577C260.571,82.948 264.117,85.529 264.706,89.346C265.273,93.023 262.691,96.527 258.994,97.108C257.602,97.327 256.273,97.136 255,96.541C254.857,96.474 254.759,96.456 254.63,96.586C253.255,97.974 251.873,99.355 250.493,100.737C250.473,100.757 250.459,100.781 250.424,100.828C250.49,100.899 250.557,100.974 250.628,101.044C251.348,101.765 252.07,102.485 252.79,103.207C253.319,103.739 253.322,104.343 252.793,104.872C251.62,106.048 250.445,107.223 249.27,108.396C248.736,108.929 248.137,108.931 247.605,108.401C246.816,107.616 246.031,106.827 245.187,105.982C245.035,106.153 244.895,106.314 244.752,106.473C243.509,107.854 241.388,107.158 241.089,105.5C241.084,105.474 241.062,105.451 241.047,105.427C241.046,105.221 241.046,105.014 241.046,104.806ZM255.294,90.335C255.288,91.776 256.448,92.962 257.875,92.972C259.355,92.981 260.534,91.829 260.541,90.367C260.548,88.9 259.375,87.71 257.92,87.71C256.476,87.708 255.3,88.883 255.294,90.335Z" style="fill:rgb(161,218,222);stroke:black;stroke-width:1px;"/>
                <path id="XMrvzd.tif_2_" d="M166.18,104.806C166.313,104.131 166.754,103.666 167.222,103.201C170.399,100.038 173.565,96.865 176.742,93.701C176.91,93.534 176.927,93.413 176.829,93.201C174.94,89.115 177.481,84.313 181.915,83.577C185.706,82.948 189.251,85.529 189.841,89.346C190.408,93.023 187.825,96.527 184.128,97.108C182.737,97.327 181.407,97.136 180.134,96.541C179.991,96.474 179.894,96.456 179.765,96.586C178.39,97.974 177.007,99.355 175.628,100.737C175.608,100.757 175.593,100.781 175.558,100.828C175.624,100.899 175.691,100.974 175.762,101.044C176.482,101.765 177.204,102.485 177.923,103.207C178.452,103.739 178.455,104.343 177.927,104.872C176.754,106.048 175.579,107.223 174.404,108.396C173.871,108.929 173.271,108.931 172.739,108.401C171.951,107.616 171.166,106.827 170.32,105.982C170.169,106.153 170.029,106.314 169.886,106.473C168.642,107.854 166.522,107.158 166.222,105.5C166.218,105.474 166.195,105.451 166.181,105.427C166.18,105.221 166.18,105.014 166.18,104.806ZM180.428,90.335C180.422,91.776 181.582,92.962 183.008,92.972C184.488,92.981 185.666,91.829 185.674,90.367C185.681,88.9 184.508,87.71 183.053,87.71C181.609,87.708 180.434,88.883 180.428,90.335Z" style="fill:rgb(161,218,222);stroke:black;stroke-width:1px;"/>
            </g>
            <g transform="matrix(2.15018,0,0,2.17786,0,0)">
                <path id="XMrvzd.tif_6_" d="M349.131,104.806C349.262,104.131 349.705,103.666 350.172,103.201C353.35,100.038 356.516,96.865 359.692,93.701C359.86,93.534 359.878,93.413 359.78,93.201C357.891,89.115 360.43,84.313 364.864,83.577C368.655,82.948 372.202,85.529 372.792,89.346C373.358,93.023 370.776,96.527 367.079,97.108C365.686,97.327 364.358,97.136 363.085,96.541C362.942,96.474 362.845,96.456 362.716,96.586C361.341,97.974 359.958,99.355 358.577,100.737C358.557,100.757 358.544,100.781 358.509,100.828C358.575,100.899 358.642,100.974 358.712,101.044C359.433,101.765 360.153,102.485 360.874,103.207C361.403,103.739 361.405,104.343 360.878,104.872C359.704,106.048 358.53,107.223 357.355,108.396C356.82,108.929 356.222,108.931 355.689,108.401C354.9,107.616 354.115,106.827 353.271,105.982C353.119,106.153 352.978,106.314 352.835,106.473C351.593,107.854 349.472,107.158 349.173,105.5C349.167,105.474 349.146,105.451 349.132,105.427C349.131,105.221 349.131,105.014 349.131,104.806ZM363.377,90.335C363.371,91.776 364.531,92.962 365.959,92.972C367.438,92.981 368.617,91.829 368.625,90.367C368.631,88.9 367.459,87.71 366.004,87.71C364.559,87.708 363.385,88.883 363.377,90.335Z" style="fill:rgb(161,218,222);stroke:black;stroke-width:1px;"/>
                <path id="XMrvzd.tif_5_" d="M386.563,104.806C386.695,104.131 387.138,103.666 387.605,103.201C390.783,100.038 393.949,96.865 397.125,93.701C397.293,93.534 397.31,93.413 397.212,93.201C395.323,89.115 397.863,84.313 402.297,83.577C406.088,82.948 409.635,85.529 410.224,89.346C410.791,93.023 408.209,96.527 404.512,97.108C403.119,97.327 401.79,97.136 400.518,96.541C400.375,96.474 400.277,96.456 400.148,96.586C398.773,97.974 397.391,99.355 396.01,100.737C395.99,100.757 395.977,100.781 395.942,100.828C396.008,100.899 396.075,100.974 396.145,101.044C396.866,101.765 397.586,102.485 398.307,103.207C398.836,103.739 398.838,104.343 398.31,104.872C397.137,106.048 395.962,107.223 394.787,108.396C394.253,108.929 393.654,108.931 393.122,108.401C392.333,107.616 391.548,106.827 390.704,105.982C390.552,106.153 390.411,106.314 390.268,106.473C389.026,107.854 386.905,107.158 386.606,105.5C386.6,105.474 386.579,105.451 386.564,105.427C386.563,105.221 386.563,105.014 386.563,104.806ZM400.811,90.335C400.805,91.776 401.965,92.962 403.392,92.972C404.871,92.981 406.051,91.829 406.058,90.367C406.065,88.9 404.893,87.71 403.438,87.71C401.992,87.708 400.817,88.883 400.811,90.335Z" style="fill:rgb(161,218,222);stroke:black;stroke-width:1px;"/>
                <path id="XMrvzd.tif_4_" d="M311.697,104.806C311.83,104.131 312.271,103.666 312.738,103.201C315.916,100.038 319.082,96.865 322.258,93.701C322.426,93.534 322.444,93.413 322.346,93.201C320.457,89.115 322.998,84.313 327.432,83.577C331.223,82.948 334.768,85.529 335.358,89.346C335.924,93.023 333.342,96.527 329.645,97.108C328.254,97.327 326.924,97.136 325.651,96.541C325.508,96.474 325.411,96.456 325.282,96.586C323.907,97.974 322.524,99.355 321.145,100.737C321.125,100.757 321.11,100.781 321.075,100.828C321.141,100.899 321.208,100.974 321.278,101.044C321.999,101.765 322.721,102.485 323.44,103.207C323.969,103.739 323.971,104.343 323.444,104.872C322.27,106.048 321.096,107.223 319.921,108.396C319.388,108.929 318.788,108.931 318.255,108.401C317.468,107.616 316.683,106.827 315.837,105.982C315.685,106.153 315.546,106.314 315.403,106.473C314.159,107.854 312.038,107.158 311.739,105.5C311.735,105.474 311.712,105.451 311.698,105.427C311.697,105.221 311.697,105.014 311.697,104.806ZM325.945,90.335C325.939,91.776 327.099,92.962 328.525,92.972C330.005,92.981 331.183,91.829 331.191,90.367C331.197,88.9 330.025,87.71 328.57,87.71C327.127,87.708 325.951,88.883 325.945,90.335Z" style="fill:none;stroke:black;stroke-width:1px;"/>
            </g>
            <g transform="matrix(2.15018,0,0,2.17786,0,0)">
                <path id="XMrvzd.tif_15_" d="M495.439,193.896C495.57,193.221 496.013,192.756 496.48,192.291C499.658,189.128 502.824,185.955 506,182.791C506.168,182.624 506.186,182.503 506.088,182.291C504.199,178.205 506.738,173.403 511.172,172.667C514.963,172.038 518.51,174.619 519.1,178.436C519.666,182.113 517.084,185.617 513.387,186.198C511.994,186.417 510.666,186.226 509.393,185.631C509.25,185.564 509.153,185.546 509.024,185.676C507.649,187.064 506.266,188.445 504.885,189.827C504.865,189.847 504.852,189.871 504.817,189.918C504.883,189.989 504.95,190.064 505.02,190.134C505.741,190.855 506.461,191.575 507.182,192.297C507.711,192.829 507.713,193.433 507.186,193.962C506.012,195.138 504.838,196.313 503.663,197.486C503.128,198.019 502.53,198.021 501.997,197.491C501.208,196.706 500.423,195.917 499.579,195.072C499.427,195.243 499.286,195.404 499.143,195.563C497.901,196.944 495.78,196.248 495.481,194.59C495.475,194.564 495.454,194.541 495.44,194.517C495.439,194.311 495.439,194.104 495.439,193.896ZM509.686,179.425C509.68,180.866 510.84,182.052 512.268,182.062C513.747,182.071 514.926,180.919 514.934,179.457C514.94,177.99 513.768,176.8 512.313,176.8C510.867,176.798 509.693,177.973 509.686,179.425Z" style="fill:rgb(161,218,222);stroke:black;stroke-width:1px;"/>
                <path id="XMrvzd.tif_14_" d="M532.872,193.896C533.004,193.221 533.447,192.756 533.914,192.291C537.092,189.128 540.258,185.955 543.434,182.791C543.602,182.624 543.619,182.503 543.521,182.291C541.632,178.205 544.172,173.403 548.606,172.667C552.397,172.038 555.944,174.619 556.533,178.436C557.1,182.113 554.518,185.617 550.821,186.198C549.428,186.417 548.099,186.226 546.827,185.631C546.684,185.564 546.586,185.546 546.457,185.676C545.082,187.064 543.7,188.445 542.319,189.827C542.299,189.847 542.286,189.871 542.251,189.918C542.317,189.989 542.384,190.064 542.454,190.134C543.175,190.855 543.895,191.575 544.616,192.297C545.145,192.829 545.147,193.433 544.619,193.962C543.446,195.138 542.271,196.313 541.096,197.486C540.562,198.019 539.963,198.021 539.431,197.491C538.642,196.706 537.857,195.917 537.013,195.072C536.861,195.243 536.72,195.404 536.577,195.563C535.335,196.944 533.214,196.248 532.915,194.59C532.909,194.564 532.888,194.541 532.873,194.517C532.872,194.311 532.872,194.104 532.872,193.896ZM547.119,179.425C547.113,180.866 548.273,182.052 549.7,182.062C551.179,182.071 552.359,180.919 552.366,179.457C552.373,177.99 551.201,176.8 549.746,176.8C548.301,176.798 547.126,177.973 547.119,179.425Z" style="fill:rgb(161,218,222);stroke:black;stroke-width:1px;"/>
                <path id="XMrvzd.tif_13_" d="M458.006,193.896C458.139,193.221 458.58,192.756 459.047,192.291C462.225,189.128 465.391,185.955 468.567,182.791C468.735,182.624 468.753,182.503 468.655,182.291C466.766,178.205 469.307,173.403 473.741,172.667C477.532,172.038 481.077,174.619 481.667,178.436C482.233,182.113 479.651,185.617 475.954,186.198C474.563,186.417 473.233,186.226 471.96,185.631C471.817,185.564 471.72,185.546 471.591,185.676C470.216,187.064 468.833,188.445 467.454,189.827C467.434,189.847 467.419,189.871 467.384,189.918C467.45,189.989 467.517,190.064 467.587,190.134C468.308,190.855 469.03,191.575 469.749,192.297C470.278,192.829 470.28,193.433 469.753,193.962C468.579,195.138 467.405,196.313 466.23,197.486C465.697,198.019 465.097,198.021 464.564,197.491C463.777,196.706 462.992,195.917 462.146,195.072C461.994,195.243 461.855,195.404 461.712,195.563C460.468,196.944 458.347,196.248 458.048,194.59C458.044,194.564 458.021,194.541 458.007,194.517C458.006,194.311 458.006,194.104 458.006,193.896ZM472.254,179.425C472.248,180.866 473.408,182.052 474.834,182.062C476.314,182.071 477.492,180.919 477.5,179.457C477.506,177.99 476.334,176.8 474.879,176.8C473.436,176.798 472.26,177.973 472.254,179.425Z" style="fill:none;stroke:black;stroke-width:1px;"/>
            </g>
            <g transform="matrix(2.15018,0,0,2.17786,0,0)">
                <path id="XMrvzd.tif_12_" d="M349.131,193.896C349.262,193.221 349.705,192.756 350.172,192.291C353.35,189.128 356.516,185.955 359.692,182.791C359.86,182.624 359.878,182.503 359.78,182.291C357.891,178.205 360.43,173.403 364.864,172.667C368.655,172.038 372.202,174.619 372.792,178.436C373.358,182.113 370.776,185.617 367.079,186.198C365.686,186.417 364.358,186.226 363.085,185.631C362.942,185.564 362.845,185.546 362.716,185.676C361.341,187.064 359.958,188.445 358.577,189.827C358.557,189.847 358.544,189.871 358.509,189.918C358.575,189.989 358.642,190.064 358.712,190.134C359.433,190.855 360.153,191.575 360.874,192.297C361.403,192.829 361.405,193.433 360.878,193.962C359.704,195.138 358.53,196.313 357.355,197.486C356.82,198.019 356.222,198.021 355.689,197.491C354.9,196.706 354.115,195.917 353.271,195.072C353.119,195.243 352.978,195.404 352.835,195.563C351.593,196.944 349.472,196.248 349.173,194.59C349.167,194.564 349.146,194.541 349.132,194.517C349.131,194.311 349.131,194.104 349.131,193.896ZM363.377,179.425C363.371,180.866 364.531,182.052 365.959,182.062C367.438,182.071 368.617,180.919 368.625,179.457C368.631,177.99 367.459,176.8 366.004,176.8C364.559,176.798 363.385,177.973 363.377,179.425Z" style="fill:none;stroke:black;stroke-width:1px;"/>
                <path id="XMrvzd.tif_11_" d="M386.563,193.896C386.695,193.221 387.138,192.756 387.605,192.291C390.783,189.128 393.949,185.955 397.125,182.791C397.293,182.624 397.31,182.503 397.212,182.291C395.323,178.205 397.863,173.403 402.297,172.667C406.088,172.038 409.635,174.619 410.224,178.436C410.791,182.113 408.209,185.617 404.512,186.198C403.119,186.417 401.79,186.226 400.518,185.631C400.375,185.564 400.277,185.546 400.148,185.676C398.773,187.064 397.391,188.445 396.01,189.827C395.99,189.847 395.977,189.871 395.942,189.918C396.008,189.989 396.075,190.064 396.145,190.134C396.866,190.855 397.586,191.575 398.307,192.297C398.836,192.829 398.838,193.433 398.31,193.962C397.137,195.138 395.962,196.313 394.787,197.486C394.253,198.019 393.654,198.021 393.122,197.491C392.333,196.706 391.548,195.917 390.704,195.072C390.552,195.243 390.411,195.404 390.268,195.563C389.026,196.944 386.905,196.248 386.606,194.59C386.6,194.564 386.579,194.541 386.564,194.517C386.563,194.311 386.563,194.104 386.563,193.896ZM400.811,179.425C400.805,180.866 401.965,182.052 403.392,182.062C404.871,182.071 406.051,180.919 406.058,179.457C406.065,177.99 404.893,176.8 403.438,176.8C401.992,176.798 400.817,177.973 400.811,179.425Z" style="fill:rgb(161,218,222);stroke:black;stroke-width:1px;"/>
                <path id="XMrvzd.tif_10_" d="M311.697,193.896C311.83,193.221 312.271,192.756 312.738,192.291C315.916,189.128 319.082,185.955 322.258,182.791C322.426,182.624 322.444,182.503 322.346,182.291C320.457,178.205 322.998,173.403 327.432,172.667C331.223,172.038 334.768,174.619 335.358,178.436C335.924,182.113 333.342,185.617 329.645,186.198C328.254,186.417 326.924,186.226 325.651,185.631C325.508,185.564 325.411,185.546 325.282,185.676C323.907,187.064 322.524,188.445 321.145,189.827C321.125,189.847 321.11,189.871 321.075,189.918C321.141,189.989 321.208,190.064 321.278,190.134C321.999,190.855 322.721,191.575 323.44,192.297C323.969,192.829 323.971,193.433 323.444,193.962C322.27,195.138 321.096,196.313 319.921,197.486C319.388,198.019 318.788,198.021 318.255,197.491C317.468,196.706 316.683,195.917 315.837,195.072C315.685,195.243 315.546,195.404 315.403,195.563C314.159,196.944 312.038,196.248 311.739,194.59C311.735,194.564 311.712,194.541 311.698,194.517C311.697,194.311 311.697,194.104 311.697,193.896ZM325.945,179.425C325.939,180.866 327.099,182.052 328.525,182.062C330.005,182.071 331.183,180.919 331.191,179.457C331.197,177.99 330.025,176.8 328.57,176.8C327.127,176.798 325.951,177.973 325.945,179.425Z" style="fill:none;stroke:black;stroke-width:1px;"/>
            </g>
            <g transform="matrix(2.15018,0,0,2.17786,0,0)">
                <path id="XMrvzd.tif_9_" d="M498.453,104.806C498.584,104.131 499.027,103.666 499.494,103.201C502.672,100.038 505.838,96.865 509.014,93.701C509.182,93.534 509.2,93.413 509.102,93.201C507.213,89.115 509.752,84.313 514.186,83.577C517.977,82.948 521.524,85.529 522.114,89.346C522.68,93.023 520.098,96.527 516.401,97.108C515.008,97.327 513.68,97.136 512.407,96.541C512.264,96.474 512.167,96.456 512.038,96.586C510.663,97.974 509.28,99.355 507.899,100.737C507.879,100.757 507.866,100.781 507.831,100.828C507.897,100.899 507.964,100.974 508.034,101.044C508.755,101.765 509.475,102.485 510.196,103.207C510.725,103.739 510.727,104.343 510.2,104.872C509.026,106.048 507.852,107.223 506.677,108.396C506.142,108.929 505.544,108.931 505.011,108.401C504.222,107.616 503.437,106.827 502.593,105.982C502.441,106.153 502.3,106.314 502.157,106.473C500.915,107.854 498.794,107.158 498.495,105.5C498.489,105.474 498.468,105.451 498.454,105.427C498.453,105.221 498.453,105.014 498.453,104.806ZM512.699,90.335C512.693,91.776 513.853,92.962 515.281,92.972C516.76,92.981 517.939,91.829 517.947,90.367C517.953,88.9 516.781,87.71 515.326,87.71C513.881,87.708 512.707,88.883 512.699,90.335Z" style="fill:none;stroke:black;stroke-width:1px;"/>
                <path id="XMrvzd.tif_8_" d="M535.886,104.806C536.018,104.131 536.461,103.666 536.928,103.201C540.106,100.038 543.272,96.865 546.448,93.701C546.616,93.534 546.633,93.413 546.535,93.201C544.646,89.115 547.186,84.313 551.62,83.577C555.411,82.948 558.958,85.529 559.547,89.346C560.114,93.023 557.532,96.527 553.835,97.108C552.442,97.327 551.113,97.136 549.841,96.541C549.698,96.474 549.6,96.456 549.471,96.586C548.096,97.974 546.714,99.355 545.333,100.737C545.313,100.757 545.3,100.781 545.265,100.828C545.331,100.899 545.398,100.974 545.468,101.044C546.189,101.765 546.909,102.485 547.63,103.207C548.159,103.739 548.161,104.343 547.633,104.872C546.46,106.048 545.285,107.223 544.11,108.396C543.576,108.929 542.977,108.931 542.445,108.401C541.656,107.616 540.871,106.827 540.027,105.982C539.875,106.153 539.734,106.314 539.591,106.473C538.349,107.854 536.228,107.158 535.929,105.5C535.923,105.474 535.902,105.451 535.887,105.427C535.886,105.221 535.886,105.014 535.886,104.806ZM550.133,90.335C550.127,91.776 551.287,92.962 552.714,92.972C554.193,92.981 555.373,91.829 555.38,90.367C555.387,88.9 554.215,87.71 552.76,87.71C551.314,87.708 550.14,88.883 550.133,90.335Z" style="fill:rgb(161,218,222);stroke:black;stroke-width:1px;"/>
                <path id="XMrvzd.tif_7_" d="M461.02,104.806C461.153,104.131 461.594,103.666 462.061,103.201C465.239,100.038 468.405,96.865 471.581,93.701C471.749,93.534 471.767,93.413 471.669,93.201C469.78,89.115 472.321,84.313 476.755,83.577C480.546,82.948 484.091,85.529 484.681,89.346C485.247,93.023 482.665,96.527 478.968,97.108C477.577,97.327 476.247,97.136 474.974,96.541C474.831,96.474 474.734,96.456 474.605,96.586C473.23,97.974 471.847,99.355 470.468,100.737C470.448,100.757 470.433,100.781 470.398,100.828C470.464,100.899 470.531,100.974 470.601,101.044C471.322,101.765 472.044,102.485 472.763,103.207C473.292,103.739 473.294,104.343 472.767,104.872C471.593,106.048 470.419,107.223 469.244,108.396C468.711,108.929 468.111,108.931 467.578,108.401C466.791,107.616 466.006,106.827 465.16,105.982C465.008,106.153 464.869,106.314 464.726,106.473C463.482,107.854 461.361,107.158 461.062,105.5C461.058,105.474 461.035,105.451 461.021,105.427C461.02,105.221 461.02,105.014 461.02,104.806ZM475.268,90.335C475.262,91.776 476.422,92.962 477.848,92.972C479.328,92.981 480.506,91.829 480.514,90.367C480.52,88.9 479.348,87.71 477.893,87.71C476.449,87.708 475.273,88.883 475.268,90.335Z" style="fill:none;stroke:black;stroke-width:1px;"/>
            </g>
            <g transform="matrix(2.15018,0,0,2.17786,0,0)">
                <circle cx="361.434" cy="263.357" r="8.918" style="fill:none;stroke:black;stroke-width:1px;"/>
            </g>
            <g transform="matrix(2.15018,0,0,2.17786,0,0)">
                <path d="M368.361,257.662C366.726,255.647 364.23,254.358 361.433,254.358L361.433,263.276L368.361,257.662Z" style="fill:rgb(161,218,222);fill-rule:nonzero;stroke:black;stroke-width:1px;"/>
            </g>
            <g transform="matrix(2.15018,0,0,2.17786,0,0)">
                <circle cx="506.309" cy="263.357" r="8.918" style="fill:none;stroke:black;stroke-width:1px;"/>
            </g>
            <g transform="matrix(2.15018,0,0,2.17786,0,0)">
                <path d="M513.925,267.999C514.751,266.647 515.227,265.058 515.227,263.358C515.227,258.433 511.234,254.44 506.309,254.44L506.309,263.358L513.925,267.999Z" style="fill:rgb(161,218,222);fill-rule:nonzero;stroke:black;stroke-width:1px;"/>
            </g>
        </g>
    </g>
</svg>
