<?xml version="1.0" encoding="utf-8"?>
<!-- Generator: Adobe Illustrator 16.0.4, SVG Export Plug-In . SVG Version: 6.00 Build 0)  -->
<!DOCTYPE svg PUBLIC "-//W3C//DTD SVG 1.1//EN" "http://www.w3.org/Graphics/SVG/1.1/DTD/svg11.dtd">
<svg version="1.1" id="TapTree-2.1" xmlns="http://www.w3.org/2000/svg" xmlns:xlink="http://www.w3.org/1999/xlink" x="0px"
	 y="0px" width="595.279px" height="330.643px" viewBox="0 0 595.279 330.643" enable-background="new 0 0 595.279 330.643"
	 xml:space="preserve">
<g>
	<path fill="#454545" d="M590.28,2c1.654,0,3,1.346,3,3v320.643c0,1.654-1.346,3-3,3H5c-1.653,0-3-1.346-3-3V5c0-1.654,1.347-3,3-3
		H590.28 M590.28,0H5C2.25,0,0,2.25,0,5v320.643c0,2.75,2.25,5,5,5h585.28c2.75,0,5-2.25,5-5V5C595.28,2.25,593.03,0,590.28,0
		L590.28,0z"/>
</g>
<g>
	<rect x="32.422" y="25.333" fill="none" width="416.579" height="35.333"/>
	<text transform="matrix(0.9799 0 0 1 32.4211 35.0833)" font-family="'RobotoMono-Bold'" font-size="13">Classes/Methods for EC operations</text>
	<text transform="matrix(0.9799 0 0 1 32.4211 50.6829)" font-family="'RobotoMono-Light'" font-size="13">Python/Bitcoin Core</text>
</g>
<g opacity="0.65">
	<path fill="#A1DADE" d="M223.551,101.086c0,1.371-1.121,2.492-2.491,2.492H116.492c-1.371,0-2.492-1.122-2.492-2.492V78.405
		c0-1.369,1.122-2.49,2.492-2.49h104.565c1.371,0,2.491,1.122,2.491,2.49L223.551,101.086L223.551,101.086z"/>
</g>
<g opacity="0.65">
	<path fill="#A1DADE" d="M339.148,101.086c0,1.371-1.121,2.492-2.492,2.492H232.09c-1.37,0-2.491-1.122-2.491-2.492V78.405
		c0-1.369,1.122-2.49,2.491-2.49h104.565c1.371,0,2.492,1.122,2.492,2.49L339.148,101.086L339.148,101.086z"/>
</g>
<g opacity="0.65">
	<path fill="#A1DADE" d="M454.075,101.086c0,1.371-1.121,2.492-2.49,2.492H347.018c-1.371,0-2.492-1.122-2.492-2.492V78.405
		c0-1.369,1.121-2.49,2.492-2.49h104.566c1.369,0,2.49,1.122,2.49,2.49V101.086L454.075,101.086z"/>
</g>
<g opacity="0.65">
	<path fill="#A1DADE" d="M569.675,101.086c0,1.371-1.121,2.492-2.492,2.492H462.615c-1.371,0-2.492-1.122-2.492-2.492V78.405
		c0-1.369,1.121-2.49,2.492-2.49H567.18c1.371,0,2.492,1.122,2.492,2.49L569.675,101.086L569.675,101.086z"/>
</g>
<g>
	<rect x="123.775" y="83.053" fill="none" width="90" height="19.525"/>
	<text transform="matrix(0.9799 0 0 1 156.4255 93.553)" font-family="'RobotoMono-Bold'" font-size="14">add</text>
</g>
<g>
	<rect x="32.422" y="137.053" fill="none" width="58" height="19.525"/>
	<text transform="matrix(0.9799 0 0 1 32.4211 147.553)" font-family="'RobotoMono-Bold'" font-size="14">scalar</text>
</g>
<g>
	<rect x="108.775" y="127.053" fill="none" width="120.524" height="13"/>
	<text transform="matrix(0.9799 0 0 1 143.1633 133.053)" font-family="'RobotoMono-Bold'" font-size="8">(a + b) % n</text>
</g>
<g>
	<rect x="105.676" y="149.816" fill="none" width="126.726" height="24.686"/>
	<text transform="matrix(0.9799 0 0 1 138.4592 155.8157)" font-family="'RobotoMono-Bold'" font-size="8">ECKey + ECKey</text>
</g>
<g>
	<rect x="220.848" y="149.816" fill="none" width="126.724" height="24.686"/>
	<text transform="matrix(0.9799 0 0 1 253.2102 155.8157)" font-family="'RobotoMono-Bold'" font-size="8">ECKey - ECkey</text>
</g>
<g>
	<rect x="452.649" y="149.816" fill="none" width="126.725" height="24.686"/>
	<text transform="matrix(0.9799 0 0 1 485.4324 155.8157)" font-family="'RobotoMono-Bold'" font-size="8">ECKey * ECKey</text>
	<text transform="matrix(0.9799 0 0 1 456.532 165.4153)" font-family="'RobotoMono-Regular'" font-size="8">(Mul with scalar inverse)</text>
</g>
<g>
	<rect x="339.148" y="149.816" fill="none" width="126.725" height="24.686"/>
	<text transform="matrix(0.9799 0 0 1 371.9324 155.8157)" font-family="'RobotoMono-Bold'" font-size="8">ECKey * ECKey</text>
</g>
<g>
	<rect x="339.038" y="127.053" fill="none" width="120.524" height="13"/>
	<text transform="matrix(0.9799 0 0 1 373.4265 133.053)" font-family="'RobotoMono-Bold'" font-size="8">(a * b) % n</text>
</g>
<g>
	<rect x="335.938" y="274.355" fill="none" width="126.725" height="24.686"/>
	<text transform="matrix(0.9799 0 0 1 361.6648 280.3557)" font-family="'RobotoMono-Bold'" font-size="8">ECKey * ECPubKey</text>
</g>
<g>
	<rect x="452.102" y="274.355" fill="none" width="126.725" height="24.686"/>
	<text transform="matrix(0.9799 0 0 1 477.947 280.3557)" font-family="'RobotoMono-Bold'" font-size="8">ECKey * ECPubKey</text>
	<text transform="matrix(0.9799 0 0 1 477.7117 290.9553)" enable-background="new    "><tspan x="0" y="0" font-family="'RobotoMono-Regular'" font-size="8">(Mul point with </tspan><tspan x="2.401" y="9.601" font-family="'RobotoMono-Regular'" font-size="8">scalar inverse)</tspan></text>
</g>
<g>
	<rect x="105.676" y="205.483" fill="none" width="126.726" height="24.686"/>
	<text transform="matrix(0.9799 0 0 1 124.3459 211.4827)" font-family="'RobotoMono-Bold'" font-size="8">ECPubKey + ECPubKey</text>
</g>
<text transform="matrix(0.9799 0 0 1 239.5198 211.1829)" font-family="'RobotoMono-Bold'" font-size="8">ECPubKey - ECPubKey</text>
<g>
	<rect x="344.473" y="205.483" fill="none" width="110.014" height="24.686"/>
	<text transform="matrix(0.9799 0 0 1 395.3621 215.9827)" font-family="'RobotoMono-Bold'" font-size="14">-</text>
</g>
<g>
	<rect x="460.659" y="205.483" fill="none" width="107.607" height="24.686"/>
	<text transform="matrix(0.9799 0 0 1 510.3464 215.9827)" font-family="'RobotoMono-Bold'" font-size="14">-</text>
</g>
<g>
	<rect x="455.749" y="119.053" fill="none" width="120.525" height="13"/>
	<text transform="matrix(0.9799 0 0 1 473.6707 125.053)" font-family="'RobotoMono-Bold'" font-size="8">(a * b**(n-2)) % n</text>
</g>
<g>
	<rect x="224.11" y="127.053" fill="none" width="120.525" height="13"/>
	<text transform="matrix(0.9799 0 0 1 249.0901 133.053)" font-family="'RobotoMono-Bold'" font-size="8">a + (n - b) % n</text>
</g>
<g>
	<rect x="139.775" y="271.633" fill="none" width="58" height="19.525"/>
	<text transform="matrix(0.9799 0 0 1 164.658 282.1331)" font-family="'RobotoMono-Bold'" font-size="14">-</text>
</g>
<g>
	<rect x="255.373" y="271.633" fill="none" width="58" height="19.525"/>
	<text transform="matrix(0.9799 0 0 1 280.2561 282.1331)" font-family="'RobotoMono-Bold'" font-size="14">-</text>
</g>
<g>
	<rect x="32.422" y="201.686" fill="none" width="58" height="19.525"/>
	<text transform="matrix(0.9799 0 0 1 32.4211 212.1848)" font-family="'RobotoMono-Bold'" font-size="14">point</text>
</g>
<g>
	<rect x="32.422" y="266.317" fill="none" width="58" height="49.683"/>
	<text transform="matrix(0.9799 0 0 1 32.4211 276.8176)" font-family="'RobotoMono-Bold'" font-size="14">scalar/</text>
	<text transform="matrix(0.9799 0 0 1 32.4211 293.6174)" font-family="'RobotoMono-Bold'" font-size="14">point</text>
</g>
<g>
	<rect x="239.373" y="83.053" fill="none" width="90" height="19.525"/>
	<text transform="matrix(0.9799 0 0 1 272.0237 93.553)" font-family="'RobotoMono-Bold'" font-size="14">sub</text>
</g>
<g>
	<rect x="354.301" y="83.053" fill="none" width="90.001" height="23.525"/>
	<text transform="matrix(0.9799 0 0 1 382.8347 93.553)" font-family="'RobotoMono-Bold'" font-size="14">mult</text>
</g>
<g>
	<rect x="469.898" y="83.053" fill="none" width="90" height="23.525"/>
	<text transform="matrix(0.9799 0 0 1 502.5496 93.553)" font-family="'RobotoMono-Bold'" font-size="14">div</text>
</g>
<line fill="none" stroke="#000000" stroke-width="0.3817" stroke-miterlimit="10" x1="118.775" y1="142.816" x2="218.551" y2="142.816"/>
<line fill="none" stroke="#000000" stroke-width="0.3817" stroke-miterlimit="10" x1="234.307" y1="142.816" x2="334.082" y2="142.816"/>
<line fill="none" stroke="#000000" stroke-width="0.3817" stroke-miterlimit="10" x1="349.838" y1="142.816" x2="449.613" y2="142.816"/>
<line fill="none" stroke="#000000" stroke-width="0.3817" stroke-miterlimit="10" x1="465.368" y1="142.816" x2="565.145" y2="142.816"/>
<text transform="matrix(0.9799 0 0 1 464.2644 136.053)" font-family="'RobotoMono-Regular'" font-size="8">(Only when n is prime)</text>
</svg>
