<?xml version="1.0" encoding="utf-8"?>
<!-- Generator: Adobe Illustrator 16.0.4, SVG Export Plug-In . SVG Version: 6.00 Build 0)  -->
<!DOCTYPE svg PUBLIC "-//W3C//DTD SVG 1.1//EN" "http://www.w3.org/Graphics/SVG/1.1/DTD/svg11.dtd">
<svg version="1.1" id="TapTree-2.1" xmlns="http://www.w3.org/2000/svg" xmlns:xlink="http://www.w3.org/1999/xlink" x="0px"
	 y="0px" width="595.28px" height="330.643px" viewBox="0 0 595.28 330.643" enable-background="new 0 0 595.28 330.643"
	 xml:space="preserve">
<g>
	<path fill="#454545" d="M590.28,2c1.654,0,3,1.346,3,3v320.643c0,1.654-1.346,3-3,3H5c-1.654,0-3-1.346-3-3V5c0-1.654,1.346-3,3-3
		H590.28 M590.28,0H5C2.25,0,0,2.25,0,5v320.643c0,2.75,2.25,5,5,5h585.28c2.75,0,5-2.25,5-5V5C595.28,2.25,593.03,0,590.28,0
		L590.28,0z"/>
</g>
<g>
	<rect x="32.422" y="25.333" fill="none" width="416.578" height="35.333"/>
	<text transform="matrix(0.9799 0 0 1 32.4224 35.0835)"><tspan x="0" y="0" font-family="'RobotoMono-Bold'" font-size="13">Classes/Methods for EC operations</tspan><tspan x="0" y="15.6" font-family="'RobotoMono-Light'" font-size="13">Python/Bitcoin Core</tspan></text>
</g>
<g opacity="0.65">
	<path fill="#A1DADE" d="M223.551,101.086c0,1.371-1.122,2.492-2.492,2.492H116.492c-1.371,0-2.492-1.122-2.492-2.492V78.405
		c0-1.371,1.122-2.492,2.492-2.492h104.566c1.371,0,2.492,1.122,2.492,2.492V101.086z"/>
</g>
<g opacity="0.65">
	<path fill="#A1DADE" d="M339.148,101.086c0,1.371-1.121,2.492-2.492,2.492H232.09c-1.371,0-2.492-1.122-2.492-2.492V78.405
		c0-1.371,1.122-2.492,2.492-2.492h104.566c1.371,0,2.492,1.122,2.492,2.492V101.086z"/>
</g>
<g opacity="0.65">
	<path fill="#A1DADE" d="M454.076,101.086c0,1.371-1.121,2.492-2.492,2.492H347.018c-1.371,0-2.492-1.122-2.492-2.492V78.405
		c0-1.371,1.121-2.492,2.492-2.492h104.566c1.371,0,2.492,1.122,2.492,2.492V101.086z"/>
</g>
<g opacity="0.65">
	<path fill="#A1DADE" d="M569.674,101.086c0,1.371-1.121,2.492-2.492,2.492H462.616c-1.371,0-2.492-1.122-2.492-2.492V78.405
		c0-1.371,1.121-2.492,2.492-2.492h104.565c1.371,0,2.492,1.122,2.492,2.492V101.086z"/>
</g>
<g>
	<rect x="123.775" y="83.053" fill="none" width="90" height="19.525"/>
	<text transform="matrix(0.9799 0 0 1 156.4268 93.5532)" font-family="'RobotoMono-Bold'" font-size="14">add</text>
</g>
<g>
	<rect x="32.422" y="137.053" fill="none" width="58" height="19.525"/>
	<text transform="matrix(0.9799 0 0 1 32.4224 147.5532)" font-family="'RobotoMono-Bold'" font-size="14">scalar</text>
</g>
<g>
	<rect x="108.775" y="127.053" fill="none" width="120.525" height="13"/>
	<text transform="matrix(0.9799 0 0 1 133.7559 133.0532)" font-family="'RobotoMono-Bold'" font-size="8">(int + int) % n</text>
</g>
<g>
	<rect x="105.676" y="149.816" fill="none" width="126.725" height="24.684"/>
	<text transform="matrix(0.9799 0 0 1 138.4604 155.8159)" font-family="'RobotoMono-Bold'" font-size="8">ECKey * ECKey</text>
</g>
<g>
	<rect x="221.011" y="149.816" fill="none" width="126.725" height="24.684"/>
	<text transform="matrix(0.9799 0 0 1 232.626 155.8159)"><tspan x="0" y="0" font-family="'RobotoMono-Bold'" font-size="8">ECKey * ECkey.negate()</tspan><tspan x="-2.4" y="9.6" font-family="'RobotoMono-Regular'" font-size="8">(Add scalar complement)</tspan></text>
</g>
<g>
	<rect x="453.895" y="149.816" fill="none" width="126.725" height="24.684"/>
	<text transform="matrix(0.9799 0 0 1 486.6797 155.8159)"><tspan x="0" y="0" font-family="'RobotoMono-Bold'" font-size="8">ECKey * ECKey</tspan><tspan x="-16.804" y="9.6" font-family="'RobotoMono-Regular'" font-size="8">(Mul scalar inverse)</tspan></text>
</g>
<g>
	<rect x="339.148" y="149.816" fill="none" width="126.725" height="24.684"/>
	<text transform="matrix(0.9799 0 0 1 371.9336 155.8159)" font-family="'RobotoMono-Bold'" font-size="8">ECKey * ECKey</text>
</g>
<g>
	<rect x="339.038" y="127.053" fill="none" width="120.525" height="13"/>
	<text transform="matrix(0.9799 0 0 1 364.0186 133.0532)" font-family="'RobotoMono-Bold'" font-size="8">(int * int) % n</text>
</g>
<g>
	<rect x="335.938" y="274.355" fill="none" width="126.725" height="24.684"/>
	<text transform="matrix(0.9799 0 0 1 361.666 280.3555)" font-family="'RobotoMono-Bold'" font-size="8">ECKey * ECPubKey</text>
</g>
<g>
	<rect x="451.102" y="274.355" fill="none" width="126.725" height="24.684"/>
	<text transform="matrix(0.9799 0 0 1 476.8301 280.3555)"><tspan x="0" y="0" font-family="'RobotoMono-Bold'" font-size="8">ECKey * ECPubKey</tspan><tspan x="-7.201" y="9.6" font-family="'RobotoMono-Regular'" font-size="8">(Mul with 1/scalar)</tspan></text>
</g>
<g>
	<rect x="105.676" y="205.483" fill="none" width="126.725" height="24.684"/>
	<text transform="matrix(0.9799 0 0 1 124.3472 211.4829)" font-family="'RobotoMono-Bold'" font-size="8">ECPubKey + ECPubKey</text>
</g>
<g>
	<rect x="221.011" y="205.483" fill="none" width="126.725" height="24.684"/>
	<text transform="matrix(0.9799 0 0 1 239.6821 211.4829)"><tspan x="0" y="0" font-family="'RobotoMono-Bold'" font-size="8">ECPubKey + ECPubKey</tspan><tspan x="-14.404" y="9.6" font-family="'RobotoMono-Regular'" font-size="8">(Add complement of point)</tspan></text>
</g>
<g>
	<rect x="344.473" y="205.483" fill="none" width="110.014" height="24.684"/>
	<text transform="matrix(0.9799 0 0 1 395.3633 215.9829)" font-family="'RobotoMono-Bold'" font-size="14">-</text>
</g>
<g>
	<rect x="460.66" y="205.483" fill="none" width="107.607" height="24.684"/>
	<text transform="matrix(0.9799 0 0 1 510.3477 215.9829)" font-family="'RobotoMono-Bold'" font-size="14">-</text>
</g>
<g>
	<rect x="454.895" y="127.053" fill="none" width="120.525" height="13"/>
	<text transform="matrix(0.9799 0 0 1 463.4102 133.0532)" font-family="'RobotoMono-Bold'" font-size="8">(int * int**(p-2)) % n</text>
</g>
<g>
	<rect x="224.11" y="127.053" fill="none" width="120.525" height="13"/>
	<text transform="matrix(0.9799 0 0 1 239.6821 133.0532)" font-family="'RobotoMono-Bold'" font-size="8">int + (n - int) % n</text>
</g>
<g>
	<rect x="139.775" y="271.633" fill="none" width="58" height="19.525"/>
	<text transform="matrix(0.9799 0 0 1 164.6592 282.1333)" font-family="'RobotoMono-Bold'" font-size="14">-</text>
</g>
<g>
	<rect x="255.373" y="271.633" fill="none" width="58" height="19.525"/>
	<text transform="matrix(0.9799 0 0 1 280.2568 282.1333)" font-family="'RobotoMono-Bold'" font-size="14">-</text>
</g>
<g>
	<rect x="32.422" y="201.686" fill="none" width="58" height="19.525"/>
	<text transform="matrix(0.9799 0 0 1 32.4224 212.1855)" font-family="'RobotoMono-Bold'" font-size="14">point</text>
</g>
<g>
	<rect x="32.422" y="266.317" fill="none" width="58" height="49.683"/>
	<text transform="matrix(0.9799 0 0 1 32.4224 276.8174)"><tspan x="0" y="0" font-family="'RobotoMono-Bold'" font-size="14">scalar/</tspan><tspan x="0" y="16.8" font-family="'RobotoMono-Bold'" font-size="14">point</tspan></text>
</g>
<g>
	<rect x="239.373" y="83.053" fill="none" width="90" height="19.525"/>
	<text transform="matrix(0.9799 0 0 1 272.0244 93.5532)" font-family="'RobotoMono-Bold'" font-size="14">sub</text>
</g>
<g>
	<rect x="354.301" y="83.053" fill="none" width="90" height="23.525"/>
	<text transform="matrix(0.9799 0 0 1 382.8359 93.5532)" font-family="'RobotoMono-Bold'" font-size="14">mult</text>
</g>
<g>
	<rect x="469.898" y="83.053" fill="none" width="90" height="23.525"/>
	<text transform="matrix(0.9799 0 0 1 502.5498 93.5532)" font-family="'RobotoMono-Bold'" font-size="14">div</text>
</g>
<line fill="none" stroke="#000000" stroke-width="0.3817" stroke-miterlimit="10" x1="118.775" y1="142.816" x2="218.551" y2="142.816"/>
<line fill="none" stroke="#000000" stroke-width="0.3817" stroke-miterlimit="10" x1="234.307" y1="142.816" x2="334.082" y2="142.816"/>
<line fill="none" stroke="#000000" stroke-width="0.3817" stroke-miterlimit="10" x1="349.838" y1="142.816" x2="449.613" y2="142.816"/>
<line fill="none" stroke="#000000" stroke-width="0.3817" stroke-miterlimit="10" x1="465.369" y1="142.816" x2="565.145" y2="142.816"/>
</svg>
