<?xml version="1.0" encoding="utf-8"?>
<!-- Generator: Adobe Illustrator 16.0.4, SVG Export Plug-In . SVG Version: 6.00 Build 0)  -->
<!DOCTYPE svg PUBLIC "-//W3C//DTD SVG 1.1//EN" "http://www.w3.org/Graphics/SVG/1.1/DTD/svg11.dtd">
<svg version="1.1" id="TapTree-2.1" xmlns="http://www.w3.org/2000/svg" xmlns:xlink="http://www.w3.org/1999/xlink" x="0px"
	 y="0px" width="595.279px" height="330.643px" viewBox="0 0 595.279 330.643" enable-background="new 0 0 595.279 330.643"
	 xml:space="preserve">
<g>
	<path fill="#454545" d="M590.28,2c1.654,0,3,1.346,3,3v320.643c0,1.654-1.346,3-3,3H5c-1.653,0-3-1.346-3-3V5c0-1.654,1.347-3,3-3
		H590.28 M590.28,0H5C2.25,0,0,2.25,0,5v320.643c0,2.75,2.25,5,5,5h585.28c2.75,0,5-2.25,5-5V5C595.28,2.25,593.03,0,590.28,0
		L590.28,0z"/>
</g>
<line fill="none" stroke="#000000" stroke-width="0.9516" stroke-miterlimit="10" x1="497.558" y1="149.071" x2="443.11" y2="106.336"/>
<line fill="none" stroke="#000000" stroke-width="0.9516" stroke-miterlimit="10" x1="388.337" y1="149.071" x2="443.11" y2="106.336"/>
<line fill="none" stroke="#000000" stroke-width="0.9516" stroke-miterlimit="10" x1="442.074" y1="191.806" x2="387.628" y2="149.071"/>
<line fill="none" stroke="#000000" stroke-width="0.9516" stroke-miterlimit="10" x1="332.854" y1="191.806" x2="387.628" y2="149.071"/>
<circle fill="#FFFFFF" stroke="#000000" stroke-width="0.6748" stroke-miterlimit="10" cx="443.111" cy="106.336" r="3.89"/>
<circle stroke="#FFFFFF" stroke-width="1.3495" stroke-miterlimit="10" cx="387.467" cy="148.954" r="3.89"/>
<line fill="none" stroke="#000000" stroke-width="0.8381" stroke-miterlimit="10" x1="414.989" y1="278.2" x2="387.464" y2="234.013"/>
<line fill="none" stroke="#000000" stroke-width="0.8381" stroke-miterlimit="10" x1="359.942" y1="278.2" x2="387.464" y2="234.013"/>
<ellipse fill="#A1DADE" stroke="#000000" stroke-width="0.818" stroke-miterlimit="10" cx="414.99" cy="278.2" rx="3.892" ry="3.988"/>
<ellipse fill="#A1DADE" stroke="#000000" stroke-width="0.818" stroke-miterlimit="10" cx="359.943" cy="278.2" rx="3.891" ry="3.988"/>
<line fill="none" stroke="#000000" stroke-width="0.8381" stroke-miterlimit="10" x1="305.767" y1="278.2" x2="278.243" y2="234.013"/>
<line fill="none" stroke="#000000" stroke-width="0.8381" stroke-miterlimit="10" x1="250.722" y1="278.2" x2="278.243" y2="234.013"/>
<ellipse fill="#A1DADE" stroke="#000000" stroke-width="0.818" stroke-miterlimit="10" cx="305.77" cy="278.2" rx="3.891" ry="3.988"/>
<ellipse fill="#A1DADE" stroke="#000000" stroke-width="0.818" stroke-miterlimit="10" cx="250.723" cy="278.2" rx="3.89" ry="3.988"/>
<g>
	<rect x="32.422" y="25.07" fill="none" width="562.857" height="35.333"/>
	<text transform="matrix(0.9799 0 0 1 32.4211 34.8196)" font-family="'RobotoMono-Bold'" font-size="13">Exercise: Assign the Leaf Frequencies for this Tree Structure</text>
</g>
<g>
	<rect x="81.557" y="75.947" fill="none" width="46.652" height="35.333"/>
	<text transform="matrix(0.9799 0 0 1 81.5554 85.6965)" font-family="'RobotoMono-Italic'" font-size="13">Depth</text>
</g>
<g>
	<rect x="81.557" y="99.446" fill="none" width="46.652" height="17.667"/>
	<text transform="matrix(0.9799 0 0 1 81.5554 109.1965)" font-family="'RobotoMono-Regular'" font-size="13">0</text>
</g>
<g>
	<rect x="81.557" y="141.926" fill="none" width="46.652" height="17.667"/>
	<text transform="matrix(0.9799 0 0 1 81.5554 151.676)" font-family="'RobotoMono-Regular'" font-size="13">1</text>
</g>
<g>
	<rect x="81.557" y="184.406" fill="none" width="46.652" height="17.667"/>
	<text transform="matrix(0.9799 0 0 1 81.5554 194.1555)" font-family="'RobotoMono-Regular'" font-size="13">2</text>
</g>
<g>
	<rect x="81.557" y="226.886" fill="none" width="46.652" height="17.667"/>
	<text transform="matrix(0.9799 0 0 1 81.5554 236.636)" font-family="'RobotoMono-Regular'" font-size="13">3</text>
</g>
<g>
	<rect x="81.557" y="269.366" fill="none" width="18.985" height="17.667"/>
	<text transform="matrix(0.9799 0 0 1 81.5554 279.1165)" font-family="'RobotoMono-Regular'" font-size="13">4</text>
</g>
<circle fill="#A1DADE" stroke="#000000" stroke-width="0.8078" stroke-miterlimit="10" cx="497.559" cy="148.954" r="3.89"/>
<circle fill="#A1DADE" stroke="#000000" stroke-width="0.8078" stroke-miterlimit="10" cx="442.075" cy="191.806" r="3.89"/>
<line fill="none" stroke="#000000" stroke-width="0.9516" stroke-miterlimit="10" x1="387.466" y1="234.656" x2="333.019" y2="191.922"/>
<line fill="none" stroke="#000000" stroke-width="0.9516" stroke-miterlimit="10" x1="278.245" y1="234.656" x2="333.019" y2="191.922"/>
<circle stroke="#FFFFFF" stroke-width="1.3495" stroke-miterlimit="10" cx="332.856" cy="191.806" r="3.889"/>
<circle stroke="#FFFFFF" stroke-width="1.3495" stroke-miterlimit="10" cx="387.467" cy="234.657" r="3.89"/>
<circle stroke="#FFFFFF" stroke-width="1.3495" stroke-miterlimit="10" cx="278.246" cy="234.657" r="3.89"/>
<line opacity="0.45" fill="none" stroke="#000000" stroke-width="0.3" stroke-miterlimit="10" enable-background="new    " x1="336.745" y1="148.955" x2="113.883" y2="148.955"/>
<line opacity="0.45" fill="none" stroke="#000000" stroke-width="0.3" stroke-miterlimit="10" enable-background="new    " x1="397.399" y1="106.336" x2="113.883" y2="106.336"/>
<line opacity="0.45" fill="none" stroke="#000000" stroke-width="0.3" stroke-miterlimit="10" enable-background="new    " x1="212.899" y1="278.2" x2="113.883" y2="278.2"/>
<line opacity="0.45" fill="none" stroke="#000000" stroke-width="0.3" stroke-miterlimit="10" enable-background="new    " x1="233.899" y1="234.656" x2="113.883" y2="234.656"/>
<line opacity="0.45" fill="none" stroke="#000000" stroke-width="0.3" stroke-miterlimit="10" enable-background="new    " x1="286.399" y1="191.922" x2="113.883" y2="191.922"/>
<rect x="237.374" y="289.293" fill="none" width="26.695" height="14.407"/>
<text transform="matrix(1 0 0 1 247.7209 296.7932)" font-family="'RobotoMono-Bold'" font-size="10">A</text>
<rect x="292.284" y="289.293" fill="none" width="26.695" height="14.407"/>
<text transform="matrix(1 0 0 1 302.6296 296.7932)" font-family="'RobotoMono-Bold'" font-size="10">B</text>
<rect x="346.595" y="289.293" fill="none" width="26.695" height="14.407"/>
<text transform="matrix(1 0 0 1 356.9421 296.7932)" font-family="'RobotoMono-Bold'" font-size="10">C</text>
<rect x="401.641" y="289.293" fill="none" width="26.696" height="14.407"/>
<text transform="matrix(1 0 0 1 411.9871 296.7932)" font-family="'RobotoMono-Bold'" font-size="10">D</text>
<rect x="428.729" y="203.073" fill="none" width="26.696" height="14.407"/>
<text transform="matrix(1 0 0 1 439.075 210.5725)" font-family="'RobotoMono-Bold'" font-size="10">E</text>
<rect x="484.212" y="160.235" fill="none" width="26.694" height="14.407"/>
<text transform="matrix(1 0 0 1 494.5583 167.7346)" font-family="'RobotoMono-Bold'" font-size="10">F</text>
</svg>
