<?xml version="1.0" encoding="utf-8"?>
<!-- Generator: Adobe Illustrator 16.0.4, SVG Export Plug-In . SVG Version: 6.00 Build 0)  -->
<!DOCTYPE svg PUBLIC "-//W3C//DTD SVG 1.1//EN" "http://www.w3.org/Graphics/SVG/1.1/DTD/svg11.dtd">
<svg version="1.1" id="TapTree-2.1" xmlns="http://www.w3.org/2000/svg" xmlns:xlink="http://www.w3.org/1999/xlink" x="0px"
	 y="0px" width="595.28px" height="330.643px" viewBox="0 0 595.28 330.643" enable-background="new 0 0 595.28 330.643"
	 xml:space="preserve">
<g>
	<path fill="#454545" d="M590.28,2c1.654,0,3,1.346,3,3v320.643c0,1.654-1.346,3-3,3H5c-1.654,0-3-1.346-3-3V5c0-1.654,1.346-3,3-3
		H590.28 M590.28,0H5C2.25,0,0,2.25,0,5v320.643c0,2.75,2.25,5,5,5h585.28c2.75,0,5-2.25,5-5V5C595.28,2.25,593.03,0,590.28,0
		L590.28,0z"/>
</g>
<line fill="#FFFFFF" stroke="#000000" stroke-width="0.5864" stroke-miterlimit="10" x1="342.863" y1="246.32" x2="362.364" y2="215.789"/>
<line fill="#FFFFFF" stroke="#000000" stroke-width="0.5864" stroke-miterlimit="10" x1="381.864" y1="246.32" x2="362.364" y2="215.789"/>
<circle stroke="#FFFFFF" stroke-width="0.9562" stroke-miterlimit="10" cx="362.364" cy="215.789" r="2.756"/>
<line fill="#FFFFFF" stroke="#000000" stroke-width="0.5864" stroke-miterlimit="10" x1="420.867" y1="123.152" x2="440.368" y2="92.621"/>
<line fill="#FFFFFF" stroke="#000000" stroke-width="0.5864" stroke-miterlimit="10" x1="459.868" y1="123.152" x2="440.368" y2="92.621"/>
<circle fill="#A1DADE" stroke="#000000" stroke-width="0.5724" stroke-miterlimit="10" cx="61.911" cy="123.152" r="2.755"/>
<circle fill="#A1DADE" stroke="#000000" stroke-width="0.5724" stroke-miterlimit="10" cx="100.912" cy="123.152" r="2.756"/>
<circle fill="#A1DADE" stroke="#000000" stroke-width="0.5724" stroke-miterlimit="10" cx="139.914" cy="123.152" r="2.756"/>
<line fill="#FFFFFF" stroke="#000000" stroke-width="0.5864" stroke-miterlimit="10" x1="178.916" y1="123.152" x2="198.417" y2="92.621"/>
<line fill="#FFFFFF" stroke="#000000" stroke-width="0.5864" stroke-miterlimit="10" x1="217.917" y1="123.152" x2="198.417" y2="92.621"/>
<circle stroke="#FFFFFF" stroke-width="0.9562" stroke-miterlimit="10" cx="198.416" cy="92.621" r="2.756"/>
<circle fill="#A1DADE" stroke="#000000" stroke-width="0.5724" stroke-miterlimit="10" cx="178.916" cy="123.152" r="2.756"/>
<circle fill="#A1DADE" stroke="#000000" stroke-width="0.5724" stroke-miterlimit="10" cx="217.917" cy="123.152" r="2.756"/>
<circle fill="#A1DADE" stroke="#000000" stroke-width="0.5724" stroke-miterlimit="10" cx="342.864" cy="123.152" r="2.755"/>
<circle fill="#A1DADE" stroke="#000000" stroke-width="0.5724" stroke-miterlimit="10" cx="381.865" cy="123.152" r="2.756"/>
<circle fill="#A1DADE" stroke="#000000" stroke-width="0.5724" stroke-miterlimit="10" cx="420.867" cy="123.152" r="2.756"/>
<line fill="#FFFFFF" stroke="#000000" stroke-width="0.5864" stroke-miterlimit="10" x1="440.368" y1="153.683" x2="459.869" y2="123.152"/>
<line fill="#FFFFFF" stroke="#000000" stroke-width="0.5864" stroke-miterlimit="10" x1="479.369" y1="153.683" x2="459.869" y2="123.152"/>
<circle stroke="#FFFFFF" stroke-width="0.9562" stroke-miterlimit="10" cx="459.868" cy="123.152" r="2.756"/>
<circle stroke="#FFFFFF" stroke-width="0.9562" stroke-miterlimit="10" cx="440.368" cy="92.621" r="2.756"/>
<circle fill="#A1DADE" stroke="#000000" stroke-width="0.5724" stroke-miterlimit="10" cx="440.368" cy="153.683" r="2.756"/>
<circle fill="#A1DADE" stroke="#000000" stroke-width="0.5724" stroke-miterlimit="10" cx="479.37" cy="153.683" r="2.756"/>
<line fill="#FFFFFF" stroke="#000000" stroke-width="0.5864" stroke-miterlimit="10" x1="420.867" y1="246.32" x2="440.368" y2="215.789"/>
<line fill="#FFFFFF" stroke="#000000" stroke-width="0.5864" stroke-miterlimit="10" x1="459.868" y1="246.32" x2="440.368" y2="215.789"/>
<circle fill="#A1DADE" stroke="#000000" stroke-width="0.5724" stroke-miterlimit="10" cx="342.864" cy="246.32" r="2.755"/>
<circle fill="#A1DADE" stroke="#000000" stroke-width="0.5724" stroke-miterlimit="10" cx="381.865" cy="246.32" r="2.756"/>
<circle fill="#A1DADE" stroke="#000000" stroke-width="0.5724" stroke-miterlimit="10" cx="420.867" cy="246.32" r="2.756"/>
<line fill="#FFFFFF" stroke="#000000" stroke-width="0.5864" stroke-miterlimit="10" x1="440.368" y1="276.851" x2="459.869" y2="246.32"/>
<line fill="#FFFFFF" stroke="#000000" stroke-width="0.5864" stroke-miterlimit="10" x1="479.369" y1="276.851" x2="459.869" y2="246.32"/>
<circle stroke="#FFFFFF" stroke-width="0.9562" stroke-miterlimit="10" cx="459.868" cy="246.32" r="2.756"/>
<circle stroke="#FFFFFF" stroke-width="0.9562" stroke-miterlimit="10" cx="440.368" cy="215.789" r="2.756"/>
<circle fill="#A1DADE" stroke="#000000" stroke-width="0.5724" stroke-miterlimit="10" cx="440.368" cy="276.851" r="2.756"/>
<circle fill="#A1DADE" stroke="#000000" stroke-width="0.5724" stroke-miterlimit="10" cx="479.37" cy="276.851" r="2.756"/>
<line fill="#FFFFFF" stroke="#000000" stroke-width="0.5864" stroke-miterlimit="10" x1="82.41" y1="253.734" x2="101.911" y2="223.203"/>
<line fill="#FFFFFF" stroke="#000000" stroke-width="0.5864" stroke-miterlimit="10" x1="121.411" y1="253.734" x2="101.911" y2="223.203"/>
<circle stroke="#FFFFFF" stroke-width="0.9562" stroke-miterlimit="10" cx="101.911" cy="223.203" r="2.756"/>
<line fill="#FFFFFF" stroke="#000000" stroke-width="0.6742" stroke-miterlimit="10" x1="101.912" y1="223.286" x2="140.489" y2="193.007"/>
<line fill="#FFFFFF" stroke="#000000" stroke-width="0.6742" stroke-miterlimit="10" x1="179.297" y1="223.286" x2="140.489" y2="193.007"/>
<circle fill="#FFFFFF" stroke="#000000" stroke-width="0.4781" stroke-miterlimit="10" cx="140.489" cy="193.007" r="2.756"/>
<line fill="#FFFFFF" stroke="#000000" stroke-width="0.5864" stroke-miterlimit="10" x1="160.414" y1="253.734" x2="179.915" y2="223.203"/>
<line fill="#FFFFFF" stroke="#000000" stroke-width="0.5864" stroke-miterlimit="10" x1="199.415" y1="253.734" x2="179.915" y2="223.203"/>
<circle fill="#A1DADE" stroke="#000000" stroke-width="0.5724" stroke-miterlimit="10" cx="82.41" cy="253.734" r="2.755"/>
<circle fill="#A1DADE" stroke="#000000" stroke-width="0.5724" stroke-miterlimit="10" cx="121.412" cy="253.734" r="2.756"/>
<circle fill="#A1DADE" stroke="#000000" stroke-width="0.5724" stroke-miterlimit="10" cx="160.413" cy="253.734" r="2.756"/>
<line fill="#FFFFFF" stroke="#000000" stroke-width="0.5864" stroke-miterlimit="10" x1="179.915" y1="284.266" x2="199.416" y2="253.734"/>
<line fill="#FFFFFF" stroke="#000000" stroke-width="0.5864" stroke-miterlimit="10" x1="218.916" y1="284.266" x2="199.416" y2="253.734"/>
<circle stroke="#FFFFFF" stroke-width="0.9562" stroke-miterlimit="10" cx="199.415" cy="253.734" r="2.756"/>
<circle stroke="#FFFFFF" stroke-width="0.9562" stroke-miterlimit="10" cx="179.915" cy="223.203" r="2.756"/>
<circle fill="#A1DADE" stroke="#000000" stroke-width="0.5724" stroke-miterlimit="10" cx="179.914" cy="284.266" r="2.756"/>
<circle fill="#A1DADE" stroke="#000000" stroke-width="0.5724" stroke-miterlimit="10" cx="218.916" cy="284.266" r="2.756"/>
<g>
	<rect x="32.422" y="25.07" fill="none" width="416.578" height="35.333"/>
	<text transform="matrix(0.9799 0 0 1 32.4224 34.8198)" font-family="'RobotoMono-Bold'" font-size="13">Example: Huffman Algorithm</text>
</g>
<g>
	<g>
		<line fill="none" stroke="#000000" stroke-miterlimit="10" x1="241.333" y1="100.667" x2="320.007" y2="100.667"/>
		<g>
			<polygon points="324.667,100.667 318.101,103.35 319.658,100.667 318.101,97.984 			"/>
		</g>
	</g>
</g>
<g>
	<g>
		<line fill="none" stroke="#000000" stroke-miterlimit="10" x1="324.667" y1="223.286" x2="245.994" y2="223.286"/>
		<g>
			<polygon points="241.333,223.286 247.9,220.603 246.342,223.286 247.9,225.968 			"/>
		</g>
	</g>
</g>
<g>
	<g>
		<path fill="none" stroke="#000000" stroke-miterlimit="10" d="M502.334,100.667H530c2.75,0,5,2.25,5,5v112.537c0,2.75-2.25,5-5,5
			h-23.006"/>
		<g>
			<polygon points="502.334,223.203 508.9,220.52 507.343,223.203 508.9,225.886 			"/>
		</g>
	</g>
</g>
<rect x="51.244" y="136.333" fill="none" width="21.333" height="16"/>
<text transform="matrix(1 0 0 1 58.9106 143.8335)" font-family="'RobotoMono-Bold'" font-size="10">5</text>
<rect x="90.246" y="136.333" fill="none" width="21.333" height="16"/>
<text transform="matrix(1 0 0 1 97.9121 143.8335)" font-family="'RobotoMono-Bold'" font-size="10">4</text>
<rect x="129.247" y="136.333" fill="none" width="21.333" height="16"/>
<text transform="matrix(1 0 0 1 136.9136 143.8335)" font-family="'RobotoMono-Bold'" font-size="10">3</text>
<rect x="332.195" y="136.333" fill="none" width="21.334" height="16"/>
<text transform="matrix(1 0 0 1 339.8623 143.8335)" font-family="'RobotoMono-Bold'" font-size="10">5</text>
<rect x="371.197" y="136.333" fill="none" width="21.334" height="16"/>
<text transform="matrix(1 0 0 1 378.8633 143.8335)" font-family="'RobotoMono-Bold'" font-size="10">4</text>
<rect x="332.195" y="256.49" fill="none" width="21.334" height="16"/>
<text transform="matrix(1 0 0 1 339.8623 263.9902)" opacity="0.35" font-family="'RobotoMono-Bold'" font-size="10">5</text>
<rect x="371.197" y="256.49" fill="none" width="21.334" height="16"/>
<text transform="matrix(1 0 0 1 378.8633 263.9902)" opacity="0.35" font-family="'RobotoMono-Bold'" font-size="10">4</text>
<rect x="410.199" y="136.333" fill="none" width="21.333" height="16"/>
<text transform="matrix(1 0 0 1 417.8652 143.8335)" opacity="0.35" font-family="'RobotoMono-Bold'" font-size="10">3</text>
<rect x="429.701" y="73.865" fill="none" width="21.333" height="16"/>
<text transform="matrix(1 0 0 1 437.3672 81.3647)" font-family="'RobotoMono-Bold'" font-size="10">6</text>
<rect x="429.701" y="196.763" fill="none" width="21.333" height="16"/>
<text transform="matrix(1 0 0 1 437.3672 204.2627)" font-family="'RobotoMono-Bold'" font-size="10">6</text>
<rect x="351.697" y="196.763" fill="none" width="21.333" height="16"/>
<text transform="matrix(1 0 0 1 359.3633 204.2627)" font-family="'RobotoMono-Bold'" font-size="10">9</text>
<rect x="168.249" y="136.333" fill="none" width="21.333" height="16"/>
<text transform="matrix(1 0 0 1 175.915 143.8335)" opacity="0.35" font-family="'RobotoMono-Bold'" font-size="10">2</text>
<rect x="207.25" y="136.333" fill="none" width="21.333" height="16"/>
<text transform="matrix(1 0 0 1 214.917 143.8335)" opacity="0.35" font-family="'RobotoMono-Bold'" font-size="10">1</text>
<rect x="430.702" y="285.021" fill="none" width="21.333" height="16"/>
<text transform="matrix(1 0 0 1 438.3691 292.5215)" opacity="0.35" font-family="'RobotoMono-Bold'" font-size="10">2</text>
<rect x="469.704" y="285.021" fill="none" width="21.333" height="16"/>
<text transform="matrix(1 0 0 1 477.3711 292.5215)" opacity="0.35" font-family="'RobotoMono-Bold'" font-size="10">1</text>
<rect x="187.749" y="73.865" fill="none" width="21.333" height="16"/>
<text transform="matrix(1 0 0 1 195.4155 81.3647)" font-family="'RobotoMono-Bold'" font-size="10">3</text>
<rect x="449.203" y="136.333" fill="none" width="21.334" height="16"/>
<text transform="matrix(1 0 0 1 456.8691 143.8335)" opacity="0.35" font-family="'RobotoMono-Bold'" font-size="10">3</text>
<rect x="449.203" y="256.49" fill="none" width="21.334" height="16"/>
<text transform="matrix(1 0 0 1 456.8691 263.9902)" opacity="0.35" font-family="'RobotoMono-Bold'" font-size="10">3</text>
<rect x="410.2" y="256.49" fill="none" width="21.334" height="16"/>
<text transform="matrix(1 0 0 1 417.8672 263.9902)" opacity="0.35" font-family="'RobotoMono-Bold'" font-size="10">3</text>
<rect x="71.16" y="262.49" fill="none" width="21.334" height="16"/>
<text transform="matrix(1 0 0 1 78.8267 269.9902)" opacity="0.35" font-family="'RobotoMono-Bold'" font-size="10">5</text>
<rect x="110.162" y="262.49" fill="none" width="21.334" height="16"/>
<text transform="matrix(1 0 0 1 117.8281 269.9902)" opacity="0.35" font-family="'RobotoMono-Bold'" font-size="10">4</text>
<g opacity="0.35">
	<rect x="169.666" y="205.763" fill="none" width="21.333" height="16"/>
	<text transform="matrix(1 0 0 1 177.3315 213.2627)" font-family="'RobotoMono-Bold'" font-size="10">6</text>
</g>
<g opacity="0.35">
	<rect x="90.662" y="205.763" fill="none" width="21.333" height="16"/>
	<text transform="matrix(1 0 0 1 98.3276 213.2627)" font-family="'RobotoMono-Bold'" font-size="10">9</text>
</g>
<rect x="169.667" y="291.021" fill="none" width="21.333" height="16"/>
<text transform="matrix(1 0 0 1 177.333 298.5215)" opacity="0.35" font-family="'RobotoMono-Bold'" font-size="10">2</text>
<rect x="208.668" y="291.021" fill="none" width="21.333" height="16"/>
<text transform="matrix(1 0 0 1 216.335 298.5215)" opacity="0.35" font-family="'RobotoMono-Bold'" font-size="10">1</text>
<rect x="188.167" y="262.49" fill="none" width="21.334" height="16"/>
<text transform="matrix(1 0 0 1 195.834 269.9902)" opacity="0.35" font-family="'RobotoMono-Bold'" font-size="10">3</text>
<rect x="149.165" y="262.49" fill="none" width="21.334" height="16"/>
<text transform="matrix(1 0 0 1 156.8311 269.9902)" opacity="0.35" font-family="'RobotoMono-Bold'" font-size="10">3</text>
</svg>
