<?xml version="1.0" encoding="utf-8"?>
<!-- Generator: Adobe Illustrator 16.0.4, SVG Export Plug-In . SVG Version: 6.00 Build 0)  -->
<!DOCTYPE svg PUBLIC "-//W3C//DTD SVG 1.1//EN" "http://www.w3.org/Graphics/SVG/1.1/DTD/svg11.dtd">
<svg version="1.1" id="TapTree-2.1" xmlns="http://www.w3.org/2000/svg" xmlns:xlink="http://www.w3.org/1999/xlink" x="0px"
	 y="0px" width="595.28px" height="330.643px" viewBox="0 0 595.28 330.643" enable-background="new 0 0 595.28 330.643"
	 xml:space="preserve">
<g>
	<path fill="#454545" d="M590.28,2c1.654,0,3,1.346,3,3v320.643c0,1.654-1.346,3-3,3H5c-1.654,0-3-1.346-3-3V5c0-1.654,1.346-3,3-3
		H590.28 M590.28,0H5C2.25,0,0,2.25,0,5v320.643c0,2.75,2.25,5,5,5h585.28c2.75,0,5-2.25,5-5V5C595.28,2.25,593.03,0,590.28,0
		L590.28,0z"/>
</g>
<g opacity="0.65">
	<path fill="#A1DADE" d="M441.666,293.851c0,1.65-1.35,3-3,3h-133c-1.65,0-3-1.35-3-3v-21.666c0-1.65,1.35-3,3-3h133
		c1.65,0,3,1.35,3,3V293.851z"/>
</g>
<g opacity="0.65">
	<path fill="#A1DADE" d="M489.666,238.023c0,1.65-1.35,3-3,3h-181c-1.65,0-3-1.35-3-3v-7.833c0-1.65,1.35-3,3-3h181
		c1.65,0,3,1.35,3,3V238.023z"/>
</g>
<g opacity="0.65">
	<path fill="#CFCECE" d="M188.655,164.729c0,1.65-1.35,3-3,3h-37.789c-1.65,0-3-1.35-3-3V152.38c0-1.65,1.35-3,3-3h37.789
		c1.65,0,3,1.35,3,3V164.729z"/>
</g>
<g opacity="0.65">
	<path fill="#CFCECE" d="M202.117,109.396c0,1.65-1.35,3-3,3h-51.25c-1.65,0-3-1.35-3-3V97.047c0-1.65,1.35-3,3-3h51.25
		c1.65,0,3,1.35,3,3V109.396z"/>
</g>
<g>
	<rect x="32.422" y="25.333" fill="none" width="416.578" height="18.667"/>
	<text transform="matrix(0.9799 0 0 1 32.4224 35.0835)" font-family="'RobotoMono-Bold'" font-size="13">Nonce Generation</text>
</g>
<g>
	<rect x="147.756" y="98.597" fill="none" width="116.444" height="19.582"/>
	<text transform="matrix(0.9799 0 0 1 147.7563 106.4717)" font-family="'RobotoMono-Bold'" font-size="10.5">k_i, R_i</text>
</g>
<g>
	<rect x="147.756" y="154.691" fill="none" width="116.444" height="19.582"/>
	<text transform="matrix(0.9799 0 0 1 147.7563 162.5664)" font-family="'RobotoMono-Bold'" font-size="10.5">H(R_i)</text>
</g>
<g opacity="0.65">
	<path fill="#CFCECE" d="M188.655,241.539c0,1.65-1.35,3-3,3h-37.789c-1.65,0-3-1.35-3-3v-12.349c0-1.65,1.35-3,3-3h37.789
		c1.65,0,3,1.35,3,3V241.539z"/>
</g>
<g>
	<rect x="147.756" y="231.501" fill="none" width="116.444" height="19.582"/>
	<text transform="matrix(0.9799 0 0 1 147.7563 239.376)" font-family="'RobotoMono-Bold'" font-size="10.5">H(R_i)</text>
</g>
<g opacity="0.65">
	<path fill="#CFCECE" d="M336,164.729c0,1.65-1.35,3-3,3h-23.578c-1.649,0-3-1.35-3-3V152.38c0-1.65,1.351-3,3-3H333
		c1.65,0,3,1.35,3,3V164.729z"/>
</g>
<g>
	<rect x="309.312" y="154.691" fill="none" width="116.443" height="19.582"/>
	<text transform="matrix(0.9799 0 0 1 309.3125 162.5664)" font-family="'RobotoMono-Bold'" font-size="10.5">R_i</text>
</g>
<g>
	<rect x="11.995" y="100.722" fill="none" width="87.577" height="31.667"/>
	<text transform="matrix(0.9799 0 0 1 31.1484 108.5762)" font-family="'HelveticaNeue-Bold'" font-size="11">Individual</text>
</g>
<g>
	<rect x="144.867" y="59.38" fill="none" width="87.577" height="15.833"/>
	<text transform="matrix(0.9799 0 0 1 144.8667 67.2344)" font-family="'HelveticaNeue-Bold'" font-size="11">1st Round</text>
</g>
<g>
	<rect x="306.423" y="59.38" fill="none" width="87.576" height="15.833"/>
	<text transform="matrix(0.9799 0 0 1 306.4219 67.2344)" font-family="'HelveticaNeue-Bold'" font-size="11">2nd Round</text>
</g>
<g>
	<rect x="11.995" y="210.356" fill="none" width="87.577" height="31.667"/>
	<text transform="matrix(0.9799 0 0 1 31.1484 218.21)" font-family="'HelveticaNeue-Bold'" font-size="11">Individual</text>
</g>
<g>
	<rect x="15.278" y="155.107" fill="none" width="81.011" height="36.333"/>
	<text transform="matrix(0.9799 0 0 1 30.2378 162.9609)" font-family="'HelveticaNeue-Bold'" font-size="11">Roundtrip</text>
</g>
<g>
	<rect x="306.423" y="211.607" fill="none" width="279.11" height="103.614"/>
	<text transform="matrix(0.9799 0 0 1 306.4229 219.4824)"><tspan x="0" y="0" font-family="'RobotoMono-Regular'" font-size="10.5">If Nonce points hash correctly:</tspan><tspan x="0" y="17.4" font-family="'RobotoMono-Bold'" font-size="10.5">R_agg = R_0 + R_1 + ... + R_n</tspan><tspan x="0" y="42.6" font-family="'RobotoMono-Regular'" font-size="10.5">If jacobi_symbol(R_agg) != 1</tspan><tspan x="0" y="60" font-family="'RobotoMono-Bold'" font-size="10.5">R_agg = Negate(R_agg)</tspan><tspan x="0" y="72.6" font-family="'RobotoMono-Bold'" font-size="10.5">k_i = Negate(k_i)</tspan></text>
</g>
<g>
	<rect x="147.756" y="211.607" fill="none" width="279.111" height="103.614"/>
	<text transform="matrix(0.9799 0 0 1 147.7563 219.4824)" font-family="'RobotoMono-Regular'" font-size="10.5">Store:</text>
</g>
<g>
	<g>
		<line fill="none" stroke="#000000" stroke-miterlimit="10" x1="55.783" y1="143.17" x2="55.783" y2="115.947"/>
		<g>
			<polygon points="55.783,148.112 58.629,141.148 55.783,142.8 52.938,141.148 			"/>
		</g>
	</g>
</g>
<g>
	<g>
		<line fill="none" stroke="#000000" stroke-miterlimit="10" x1="55.783" y1="197.542" x2="55.783" y2="170.32"/>
		<g>
			<polygon points="55.783,202.485 58.629,195.521 55.783,197.173 52.938,195.521 			"/>
		</g>
	</g>
</g>
<g>
	<g>
		
			<line fill="none" stroke="#000000" stroke-width="0.5" stroke-miterlimit="10" x1="196.333" y1="235.364" x2="198.333" y2="235.364"/>
		<path fill="none" stroke="#000000" stroke-width="0.5" stroke-miterlimit="10" stroke-dasharray="3.9804,3.9804" d="
			M202.313,235.364h53.02c1.65,0,3-1.35,3-3V106.222c0-1.65,1.35-3,3-3h56.877c1.65,0,3,1.35,3,3v34.455"/>
		
			<line fill="none" stroke="#000000" stroke-width="0.5" stroke-miterlimit="10" x1="321.211" y1="142.667" x2="321.211" y2="144.667"/>
	</g>
</g>
<g>
	<g>
		
			<line fill="none" stroke="#000000" stroke-width="0.5" stroke-miterlimit="10" x1="166.761" y1="174.273" x2="166.761" y2="176.273"/>
		
			<line fill="none" stroke="#000000" stroke-width="0.5" stroke-miterlimit="10" stroke-dasharray="3.8529,3.8529" x1="166.761" y1="180.126" x2="166.761" y2="201.317"/>
		
			<line fill="none" stroke="#000000" stroke-width="0.5" stroke-miterlimit="10" x1="166.761" y1="203.244" x2="166.761" y2="205.244"/>
	</g>
</g>
<g>
	<g>
		
			<line fill="none" stroke="#000000" stroke-width="0.5" stroke-miterlimit="10" x1="321.211" y1="172.32" x2="321.211" y2="174.32"/>
		
			<line fill="none" stroke="#000000" stroke-width="0.5" stroke-miterlimit="10" stroke-dasharray="4.6787,4.6787" x1="321.211" y1="178.999" x2="321.211" y2="195.374"/>
		
			<line fill="none" stroke="#000000" stroke-width="0.5" stroke-miterlimit="10" x1="321.211" y1="197.713" x2="321.211" y2="199.713"/>
		<g>
			<polygon points="321.211,203.244 319.178,198.269 321.211,199.449 323.243,198.269 			"/>
		</g>
	</g>
</g>
<g>
	<g>
		
			<line fill="none" stroke="#000000" stroke-width="0.5" stroke-miterlimit="10" x1="166.761" y1="144.667" x2="166.761" y2="142.667"/>
		
			<line fill="none" stroke="#000000" stroke-width="0.5" stroke-miterlimit="10" stroke-dasharray="3.5313,3.5313" x1="166.761" y1="139.135" x2="166.761" y2="119.713"/>
		
			<line fill="none" stroke="#000000" stroke-width="0.5" stroke-miterlimit="10" x1="166.761" y1="117.947" x2="166.761" y2="115.947"/>
	</g>
</g>
<line opacity="0.35" fill="none" stroke="#000000" stroke-width="0.5" stroke-miterlimit="10" x1="94.667" y1="104.222" x2="130.333" y2="104.222"/>
<line opacity="0.35" fill="none" stroke="#000000" stroke-width="0.5" stroke-miterlimit="10" x1="94.667" y1="160.111" x2="130.333" y2="160.111"/>
<line opacity="0.35" fill="none" stroke="#000000" stroke-width="0.5" stroke-miterlimit="10" x1="94.667" y1="216" x2="130.333" y2="216"/>
</svg>
