<?xml version="1.0" encoding="utf-8"?>
<!-- Generator: Adobe Illustrator 16.0.4, SVG Export Plug-In . SVG Version: 6.00 Build 0)  -->
<!DOCTYPE svg PUBLIC "-//W3C//DTD SVG 1.1//EN" "http://www.w3.org/Graphics/SVG/1.1/DTD/svg11.dtd">
<svg version="1.1" id="TapTree-2.1" xmlns="http://www.w3.org/2000/svg" xmlns:xlink="http://www.w3.org/1999/xlink" x="0px"
	 y="0px" width="595.28px" height="330.643px" viewBox="0 0 595.28 330.643" enable-background="new 0 0 595.28 330.643"
	 xml:space="preserve">
<g>
	<path fill="#454545" d="M590.28,2c1.654,0,3,1.346,3,3v320.643c0,1.654-1.346,3-3,3H5c-1.654,0-3-1.346-3-3V5c0-1.654,1.346-3,3-3
		H590.28 M590.28,0H5C2.25,0,0,2.25,0,5v320.643c0,2.75,2.25,5,5,5h585.28c2.75,0,5-2.25,5-5V5C595.28,2.25,593.03,0,590.28,0
		L590.28,0z"/>
</g>
<g opacity="0.65">
	<path fill="#A1DADE" d="M523,289.36c0,1.549-1.268,2.816-2.816,2.816H306.566c-1.549,0-2.816-1.268-2.816-2.816v-12.716
		c0-1.549,1.268-2.816,2.816-2.816h213.617c1.549,0,2.816,1.268,2.816,2.816V289.36z"/>
</g>
<g opacity="0.65">
	<path fill="#CFCECE" d="M329.667,145.174c0,1.65-1.35,3-3,3H306.75c-1.65,0-3-1.35-3-3v-12.349c0-1.65,1.35-3,3-3h19.917
		c1.65,0,3,1.35,3,3V145.174z"/>
</g>
<g opacity="0.65">
	<path fill="#CFCECE" d="M352,91.088c0,1.515-1.239,2.754-2.754,2.754h-42.742c-1.515,0-2.754-1.239-2.754-2.754V78.247
		c0-1.515,1.239-2.754,2.754-2.754h42.742c1.515,0,2.754,1.239,2.754,2.754V91.088z"/>
</g>
<g>
	<rect x="32.422" y="25.333" fill="none" width="416.578" height="18.667"/>
	<text transform="matrix(0.9799 0 0 1 32.4224 35.0835)" font-family="'RobotoMono-Bold'" font-size="13">Pubkey Generation</text>
</g>
<g>
	<rect x="306.64" y="76.042" fill="none" width="116.444" height="19.582"/>
	<text transform="matrix(0.9799 0 0 1 306.6396 86.542)" font-family="'RobotoMono-Bold'" font-size="10.5">x</text>
	<text transform="matrix(0.5713 0 0 0.583 312.8145 91.2041)" font-family="'RobotoMono-Bold'" font-size="14">i</text>
	<text transform="matrix(0.9799 0 0 1 317.6133 86.542)" font-family="'RobotoMono-Bold'" font-size="10.5">, P</text>
	<text transform="matrix(0.5713 0 0 0.583 336.1367 91.2041)" font-family="'RobotoMono-Bold'" font-size="14">i</text>
</g>
<g>
	<rect x="306.64" y="130.137" fill="none" width="25.735" height="22.197"/>
	<text transform="matrix(0.9799 0 0 1 306.6396 140.6367)" font-family="'RobotoMono-Bold'" font-size="10.5">P</text>
	<text transform="matrix(0.5713 0 0 0.583 312.8145 145.2988)" font-family="'RobotoMono-Bold'" font-size="14">i</text>
</g>
<g>
	<rect x="11.995" y="79.167" fill="none" width="87.577" height="31.667"/>
	<text transform="matrix(0.9799 0 0 1 31.1484 87.0215)" font-family="'HelveticaNeue-Bold'" font-size="11">Individual</text>
</g>
<g>
	<rect x="11.995" y="188.801" fill="none" width="87.577" height="31.667"/>
	<text transform="matrix(0.9799 0 0 1 31.1484 196.6553)" font-family="'HelveticaNeue-Bold'" font-size="11">Individual</text>
</g>
<g>
	<rect x="15.278" y="133.552" fill="none" width="81.011" height="36.333"/>
	<text transform="matrix(0.9799 0 0 1 30.2378 141.4062)" font-family="'HelveticaNeue-Bold'" font-size="11">Roundtrip</text>
</g>
<g>
	<rect x="135.134" y="79.167" fill="none" width="118.577" height="15.332"/>
	<text transform="matrix(0.9799 0 0 1 135.1338 87.0425)" font-family="'RobotoMono-Bold'" font-size="10.5">Keypair Generation</text>
</g>
<g>
	<rect x="135.134" y="134.262" fill="none" width="118.577" height="15.332"/>
	<text transform="matrix(0.9799 0 0 1 135.1338 142.1372)" font-family="'RobotoMono-Bold'" font-size="10.5">Public Key Exchange</text>
</g>
<g>
	<rect x="307.64" y="187.053" fill="none" width="279.111" height="103.614"/>
	<text transform="matrix(0.9799 0 0 1 307.6396 197.5527)" font-family="'RobotoMono-Bold'" font-size="10.5">c</text>
	<text transform="matrix(0.5713 0 0 0.583 313.8145 202.2148)" font-family="'RobotoMono-Bold'" font-size="14">all</text>
	<text transform="matrix(0.9799 0 0 1 328.2119 197.5527)" font-family="'RobotoMono-Bold'" font-size="10.5"> = H(P</text>
	<text transform="matrix(0.5713 0 0 0.583 365.2578 202.2148)" font-family="'RobotoMono-Bold'" font-size="14">0</text>
	<text transform="matrix(0.9799 0 0 1 370.0566 197.5527)" font-family="'RobotoMono-Bold'" font-size="10.5">, P</text>
	<text transform="matrix(0.5713 0 0 0.583 388.5801 202.2148)" font-family="'RobotoMono-Bold'" font-size="14">1</text>
	<text transform="matrix(0.9799 0 0 1 393.3789 197.5527)" font-family="'RobotoMono-Bold'" font-size="10.5">, P</text>
	<text transform="matrix(0.5713 0 0 0.583 411.9023 202.2148)" font-family="'RobotoMono-Bold'" font-size="14">2</text>
	<text transform="matrix(0.9799 0 0 1 416.7031 197.5527)" font-family="'RobotoMono-Bold'" font-size="10.5">, ... , P</text>
	<text transform="matrix(0.5713 0 0 0.583 472.2754 202.2148)" font-family="'RobotoMono-Bold'" font-size="14">n</text>
	<text transform="matrix(0.9799 0 0 1 477.0762 197.5527)" font-family="'RobotoMono-Bold'" font-size="10.5">)</text>
	<text transform="matrix(0.9799 0 0 1 307.6396 226.9526)" font-family="'RobotoMono-Bold'" font-size="10.5">c</text>
	<text transform="matrix(0.5713 0 0 0.583 313.8145 231.6147)" font-family="'RobotoMono-Bold'" font-size="14">i</text>
	<text transform="matrix(0.9799 0 0 1 318.6133 226.9526)" font-family="'RobotoMono-Bold'" font-size="10.5"> =   H(c</text>
	<text transform="matrix(0.5713 0 0 0.583 368.0078 231.6147)" font-family="'RobotoMono-Bold'" font-size="14">all</text>
	<text transform="matrix(0.9799 0 0 1 382.4062 226.9526)" font-family="'RobotoMono-Bold'" font-size="10.5"> | P</text>
	<text transform="matrix(0.5713 0 0 0.583 407.1035 231.6147)" font-family="'RobotoMono-Bold'" font-size="14">i</text>
	<text transform="matrix(0.9799 0 0 1 411.9023 226.9526)" font-family="'RobotoMono-Bold'" font-size="10.5">)</text>
	<text transform="matrix(0.9799 0 0 1 307.6396 256.3525)" font-family="'RobotoMono-Bold'" font-size="10.5">P</text>
	<text transform="matrix(0.5713 0 0 0.583 313.8145 261.0146)" font-family="'RobotoMono-Bold'" font-size="14">i</text>
	<text transform="matrix(0.9799 0 0 1 318.6133 256.3525)" font-family="'RobotoMono-Bold'" font-size="10.5">’ = c</text>
	<text transform="matrix(0.5713 0 0 0.583 349.4844 261.0146)" font-family="'RobotoMono-Bold'" font-size="14">i </text>
	<text transform="matrix(0.9799 0 0 1 359.084 256.3525)" font-family="'RobotoMono-Bold'" font-size="10.5">* P</text>
	<text transform="matrix(0.5713 0 0 0.583 377.6064 261.0146)" font-family="'RobotoMono-Bold'" font-size="14">i</text>
	<text transform="matrix(0.9799 0 0 1 382.4062 256.3525)" font-family="'RobotoMono-Bold'" font-size="10.5">,   x</text>
	<text transform="matrix(0.5713 0 0 0.583 413.2773 261.0146)" font-family="'RobotoMono-Bold'" font-size="14">i</text>
	<text transform="matrix(0.9799 0 0 1 418.0781 256.3525)" font-family="'RobotoMono-Bold'" font-size="10.5">’ = c</text>
	<text transform="matrix(0.5713 0 0 0.583 448.9512 261.0146)" font-family="'RobotoMono-Bold'" font-size="14">i</text>
	<text transform="matrix(0.9799 0 0 1 453.752 256.3525)" font-family="'RobotoMono-Bold'" font-size="10.5"> * x</text>
	<text transform="matrix(0.5713 0 0 0.583 478.4512 261.0146)" font-family="'RobotoMono-Bold'" font-size="14">i</text>
	<text transform="matrix(0.9799 0 0 1 307.6396 285.7529)" font-family="'RobotoMono-Bold'" font-size="10.5">P_agg = P</text>
	<text transform="matrix(0.5713 0 0 0.583 363.209 290.4146)" font-family="'RobotoMono-Bold'" font-size="14">0</text>
	<text transform="matrix(0.9799 0 0 1 368.0078 285.7529)" font-family="'RobotoMono-Bold'" font-size="10.5">’ + P</text>
	<text transform="matrix(0.5713 0 0 0.583 398.8789 290.4146)" font-family="'RobotoMono-Bold'" font-size="14">1</text>
	<text transform="matrix(0.9799 0 0 1 403.6787 285.7529)" font-family="'RobotoMono-Bold'" font-size="10.5">’ + P</text>
	<text transform="matrix(0.5713 0 0 0.583 434.5527 290.4146)" font-family="'RobotoMono-Bold'" font-size="14">2</text>
	<text transform="matrix(0.9799 0 0 1 439.3516 285.7529)" font-family="'RobotoMono-Bold'" font-size="10.5">’ + ... + P</text>
	<text transform="matrix(0.5713 0 0 0.583 507.2754 290.4146)" font-family="'RobotoMono-Bold'" font-size="14">n</text>
	<text transform="matrix(0.9799 0 0 1 512.0742 285.7529)" font-family="'RobotoMono-Bold'" font-size="10.5">’ </text>
</g>
<g>
	<rect x="135.134" y="190.053" fill="none" width="118.577" height="15.332"/>
	<text transform="matrix(0.9799 0 0 1 135.1338 197.9277)" font-family="'RobotoMono-Bold'" font-size="10.5">Challenge Factor</text>
</g>
<g>
	<rect x="135.134" y="248.511" fill="none" width="118.577" height="15.332"/>
	<text transform="matrix(0.9799 0 0 1 135.1338 256.3862)" font-family="'RobotoMono-Bold'" font-size="10.5">Tweaked Keys</text>
</g>
<g>
	<rect x="135.134" y="276.845" fill="none" width="118.577" height="15.332"/>
	<text transform="matrix(0.9799 0 0 1 135.1338 284.7202)" font-family="'RobotoMono-Bold'" font-size="10.5">Musig Public Key</text>
</g>
<g>
	<g>
		<line fill="none" stroke="#000000" stroke-miterlimit="10" x1="55.783" y1="121.615" x2="55.783" y2="94.393"/>
		<g>
			<polygon points="55.783,126.558 58.629,119.593 55.783,121.246 52.938,119.593 			"/>
		</g>
	</g>
</g>
<g>
	<g>
		<line fill="none" stroke="#000000" stroke-miterlimit="10" x1="55.783" y1="175.988" x2="55.783" y2="148.765"/>
		<g>
			<polygon points="55.783,180.93 58.629,173.966 55.783,175.618 52.938,173.966 			"/>
		</g>
	</g>
</g>
<line opacity="0.35" fill="none" stroke="#000000" stroke-width="0.5" stroke-miterlimit="10" x1="94.667" y1="83.667" x2="130.333" y2="83.667"/>
<line opacity="0.35" fill="none" stroke="#000000" stroke-width="0.5" stroke-miterlimit="10" x1="94.667" y1="138" x2="130.333" y2="138"/>
<line opacity="0.35" fill="none" stroke="#000000" stroke-width="0.5" stroke-miterlimit="10" x1="94.667" y1="193.333" x2="130.333" y2="193.333"/>
<polyline opacity="0.35" fill="none" stroke="#000000" stroke-width="0.5" stroke-miterlimit="10" points="130.333,245.333 
	112.5,245.333 112.5,193.333 "/>
<polyline opacity="0.35" fill="none" stroke="#000000" stroke-width="0.5" stroke-miterlimit="10" points="300.334,225.468 
	278.5,225.468 278.5,193.333 "/>
<polyline opacity="0.35" fill="none" stroke="#000000" stroke-width="0.5" stroke-miterlimit="10" points="130.333,282.002 
	112.5,282.002 112.5,245.333 "/>
<line opacity="0.35" fill="none" stroke="#000000" stroke-width="0.5" stroke-miterlimit="10" x1="244.667" y1="193.333" x2="300.334" y2="193.333"/>
<line opacity="0.35" fill="none" stroke="#000000" stroke-width="0.5" stroke-miterlimit="10" x1="220.667" y1="253" x2="300.334" y2="253"/>
<line opacity="0.35" fill="none" stroke="#000000" stroke-width="0.5" stroke-miterlimit="10" x1="244.667" y1="282.002" x2="300.334" y2="282.002"/>
<line opacity="0.35" fill="none" stroke="#000000" stroke-width="0.5" stroke-miterlimit="10" x1="264.667" y1="138" x2="300.334" y2="138"/>
<line opacity="0.35" fill="none" stroke="#000000" stroke-width="0.5" stroke-miterlimit="10" x1="256.667" y1="83.667" x2="300.334" y2="83.667"/>
</svg>
