<?xml version="1.0" encoding="utf-8"?>
<!-- Generator: Adobe Illustrator 16.0.4, SVG Export Plug-In . SVG Version: 6.00 Build 0)  -->
<!DOCTYPE svg PUBLIC "-//W3C//DTD SVG 1.1//EN" "http://www.w3.org/Graphics/SVG/1.1/DTD/svg11.dtd">
<svg version="1.1" id="TapTree-2.1" xmlns="http://www.w3.org/2000/svg" xmlns:xlink="http://www.w3.org/1999/xlink" x="0px"
	 y="0px" width="595.28px" height="330.643px" viewBox="0 0 595.28 330.643" enable-background="new 0 0 595.28 330.643"
	 xml:space="preserve">
<g>
	<path fill="#454545" d="M590.28,2c1.654,0,3,1.346,3,3v320.643c0,1.654-1.346,3-3,3H5c-1.654,0-3-1.346-3-3V5c0-1.654,1.346-3,3-3
		H590.28 M590.28,0H5C2.25,0,0,2.25,0,5v320.643c0,2.75,2.25,5,5,5h585.28c2.75,0,5-2.25,5-5V5C595.28,2.25,593.03,0,590.28,0
		L590.28,0z"/>
</g>
<g opacity="0.66">
	<path fill="#C9C9C9" d="M194,117.333c0,1.1-0.9,2-2,2H95.949c-1.1,0-2-0.9-2-2V103.53c0-1.1,0.9-2,2-2H192c1.1,0,2,0.9,2,2V117.333
		z"/>
</g>
<g opacity="0.65">
	<path fill="#A1DADE" d="M52.334,117.333c0,1.1-0.9,2-2,2h-14.01c-1.1,0-2-0.9-2-2V103.53c0-1.1,0.9-2,2-2h14.01c1.1,0,2,0.9,2,2
		V117.333z"/>
</g>
<g opacity="0.65">
	<path fill="#A1DADE" d="M82.334,117.333c0,1.1-0.9,2-2,2h-14.01c-1.1,0-2-0.9-2-2V103.53c0-1.1,0.9-2,2-2h14.01c1.1,0,2,0.9,2,2
		V117.333z"/>
</g>
<g opacity="0.65">
	<path fill="#A1DADE" d="M226.01,117.333c0,1.1-0.9,2-2,2H210c-1.1,0-2-0.9-2-2V103.53c0-1.1,0.9-2,2-2h14.01c1.1,0,2,0.9,2,2
		V117.333z"/>
</g>
<g opacity="0.66">
	<path fill="#C9C9C9" d="M194,142.712c0,1.1-0.9,2-2,2H95.949c-1.1,0-2-0.9-2-2v-13.803c0-1.1,0.9-2,2-2H192c1.1,0,2,0.9,2,2
		V142.712z"/>
</g>
<g opacity="0.65">
	<path fill="#A1DADE" d="M52.334,142.712c0,1.1-0.9,2-2,2h-14.01c-1.1,0-2-0.9-2-2v-13.803c0-1.1,0.9-2,2-2h14.01c1.1,0,2,0.9,2,2
		V142.712z"/>
</g>
<g opacity="0.65">
	<path fill="#A1DADE" d="M82.334,142.712c0,1.1-0.9,2-2,2h-14.01c-1.1,0-2-0.9-2-2v-13.803c0-1.1,0.9-2,2-2h14.01c1.1,0,2,0.9,2,2
		V142.712z"/>
</g>
<g opacity="0.65">
	<path fill="#A1DADE" d="M226.01,142.712c0,1.1-0.9,2-2,2H210c-1.1,0-2-0.9-2-2v-13.803c0-1.1,0.9-2,2-2h14.01c1.1,0,2,0.9,2,2
		V142.712z"/>
</g>
<g opacity="0.66">
	<path fill="#C9C9C9" d="M194,168.077c0,1.1-0.9,2-2,2H95.949c-1.1,0-2-0.9-2-2v-13.803c0-1.1,0.9-2,2-2H192c1.1,0,2,0.9,2,2
		V168.077z"/>
</g>
<g opacity="0.66">
	<path fill="#C9C9C9" d="M312.84,237.637c0,1.1-0.9,2-2,2h-96.051c-1.1,0-2-0.9-2-2v-13.803c0-1.1,0.9-2,2-2h96.051c1.1,0,2,0.9,2,2
		V237.637z"/>
</g>
<g opacity="0.65">
	<path fill="#A1DADE" d="M52.334,168.077c0,1.1-0.9,2-2,2h-14.01c-1.1,0-2-0.9-2-2v-13.803c0-1.1,0.9-2,2-2h14.01c1.1,0,2,0.9,2,2
		V168.077z"/>
</g>
<g opacity="0.65">
	<path fill="#A1DADE" d="M82.334,168.077c0,1.1-0.9,2-2,2h-14.01c-1.1,0-2-0.9-2-2v-13.803c0-1.1,0.9-2,2-2h14.01c1.1,0,2,0.9,2,2
		V168.077z"/>
</g>
<g opacity="0.65">
	<path fill="#A1DADE" d="M226.01,168.077c0,1.1-0.9,2-2,2H210c-1.1,0-2-0.9-2-2v-13.803c0-1.1,0.9-2,2-2h14.01c1.1,0,2,0.9,2,2
		V168.077z"/>
</g>
<g opacity="0.65">
	<path fill="#A1DADE" d="M110,237.637c0,1.1-0.9,2-2,2H36.324c-1.1,0-2-0.9-2-2v-13.803c0-1.1,0.9-2,2-2H108c1.1,0,2,0.9,2,2
		V237.637z"/>
</g>
<g opacity="0.65">
	<path fill="#A1DADE" d="M199.5,237.637c0,1.1-0.9,2-2,2h-71.676c-1.1,0-2-0.9-2-2v-13.803c0-1.1,0.9-2,2-2H197.5c1.1,0,2,0.9,2,2
		V237.637z"/>
</g>
<g opacity="0.65">
	<path fill="#A1DADE" d="M414,237.637c0,1.1-0.9,2-2,2h-80.676c-1.1,0-2-0.9-2-2v-13.803c0-1.1,0.9-2,2-2H412c1.1,0,2,0.9,2,2
		V237.637z"/>
</g>
<g opacity="0.66">
	<path fill="#C9C9C9" d="M312.84,286.637c0,1.1-0.9,2-2,2h-96.051c-1.1,0-2-0.9-2-2v-13.803c0-1.1,0.9-2,2-2h96.051c1.1,0,2,0.9,2,2
		V286.637z"/>
</g>
<g opacity="0.65">
	<path fill="#A1DADE" d="M110,286.637c0,1.1-0.9,2-2,2H36.324c-1.1,0-2-0.9-2-2v-13.803c0-1.1,0.9-2,2-2H108c1.1,0,2,0.9,2,2
		V286.637z"/>
</g>
<g opacity="0.65">
	<path fill="#A1DADE" d="M199.5,286.637c0,1.1-0.9,2-2,2h-71.676c-1.1,0-2-0.9-2-2v-13.803c0-1.1,0.9-2,2-2H197.5c1.1,0,2,0.9,2,2
		V286.637z"/>
</g>
<g opacity="0.65">
	<path fill="#A1DADE" d="M414,286.637c0,1.1-0.9,2-2,2h-80.676c-1.1,0-2-0.9-2-2v-13.803c0-1.1,0.9-2,2-2H412c1.1,0,2,0.9,2,2
		V286.637z"/>
</g>
<g>
	<rect x="37.422" y="101.515" fill="none" width="270.335" height="15.833"/>
	<text transform="matrix(0.9799 0 0 1 37.4224 112.0151)" font-family="'RobotoMono-Bold'" font-size="10.5">s</text>
	<text transform="matrix(0.5713 0 0 0.583 43.5967 116.6772)" font-family="'RobotoMono-Bold'" font-size="14">0</text>
	<text transform="matrix(0.9799 0 0 1 48.396 112.0151)" font-family="'RobotoMonoForPowerline-Bold'" font-size="10.5"> = </text>
	<text transform="matrix(0.9799 0 0 1 66.9189 112.0151)" font-family="'RobotoMono-Bold'" font-size="10.5">k</text>
	<text transform="matrix(0.5713 0 0 0.583 73.0933 116.6772)" font-family="'RobotoMono-Bold'" font-size="14">0</text>
	<text transform="matrix(0.9799 0 0 1 77.8926 112.0151)" font-family="'RobotoMonoForPowerline-Bold'" font-size="10.5"> + H(x(</text>
	<text transform="matrix(0.9799 0 0 1 121.1128 112.0151)" font-family="'RobotoMono-Bold'" font-size="10.5">R</text>
	<text transform="matrix(0.5713 0 0 0.583 127.2871 116.6772)" font-family="'RobotoMono-Bold'" font-size="14">agg</text>
	<text transform="matrix(0.9799 0 0 1 141.6855 112.0151)" font-family="'RobotoMonoForPowerline-Bold'" font-size="10.5">)|</text>
	<text transform="matrix(0.9799 0 0 1 154.0352 112.0151)" font-family="'RobotoMono-Bold'" font-size="10.5">P</text>
	<text transform="matrix(0.5713 0 0 0.583 160.21 116.6772)" font-family="'RobotoMono-Bold'" font-size="14">agg</text>
	<text transform="matrix(0.9799 0 0 1 174.6094 112.0151)" font-family="'RobotoMonoForPowerline-Bold'" font-size="10.5">|m) * </text>
	<text transform="matrix(0.9799 0 0 1 211.6582 112.0151)" font-family="'RobotoMono-Bold'" font-size="10.5">x</text>
	<text transform="matrix(0.5713 0 0 0.583 217.833 116.6772)" font-family="'RobotoMono-Bold'" font-size="14">0</text>
</g>
<g>
	<rect x="37.422" y="126.894" fill="none" width="270.335" height="15.833"/>
	<text transform="matrix(0.9799 0 0 1 37.4224 137.394)" font-family="'RobotoMono-Bold'" font-size="10.5">s</text>
	<text transform="matrix(0.5713 0 0 0.583 43.5967 142.0562)" font-family="'RobotoMono-Bold'" font-size="14">1</text>
	<text transform="matrix(0.9799 0 0 1 48.396 137.394)" font-family="'RobotoMonoForPowerline-Bold'" font-size="10.5"> = </text>
	<text transform="matrix(0.9799 0 0 1 66.9189 137.394)" font-family="'RobotoMono-Bold'" font-size="10.5">k</text>
	<text transform="matrix(0.5713 0 0 0.583 73.0933 142.0562)" font-family="'RobotoMono-Bold'" font-size="14">1</text>
	<text transform="matrix(0.9799 0 0 1 77.8926 137.394)" font-family="'RobotoMonoForPowerline-Bold'" font-size="10.5"> + H(x(</text>
	<text transform="matrix(0.9799 0 0 1 121.1128 137.394)" font-family="'RobotoMono-Bold'" font-size="10.5">R</text>
	<text transform="matrix(0.5713 0 0 0.583 127.2871 142.0562)" font-family="'RobotoMono-Bold'" font-size="14">agg</text>
	<text transform="matrix(0.9799 0 0 1 141.6855 137.394)" font-family="'RobotoMonoForPowerline-Bold'" font-size="10.5">)|</text>
	<text transform="matrix(0.9799 0 0 1 154.0352 137.394)" font-family="'RobotoMono-Bold'" font-size="10.5">P</text>
	<text transform="matrix(0.5713 0 0 0.583 160.21 142.0562)" font-family="'RobotoMono-Bold'" font-size="14">agg</text>
	<text transform="matrix(0.9799 0 0 1 174.6094 137.394)" font-family="'RobotoMonoForPowerline-Bold'" font-size="10.5">|m) * </text>
	<text transform="matrix(0.9799 0 0 1 211.6582 137.394)" font-family="'RobotoMono-Bold'" font-size="10.5">x</text>
	<text transform="matrix(0.5713 0 0 0.583 217.833 142.0562)" font-family="'RobotoMono-Bold'" font-size="14">1</text>
</g>
<g>
	<rect x="37.422" y="152.273" fill="none" width="270.335" height="15.833"/>
	<text transform="matrix(0.9799 0 0 1 37.4224 162.7734)" font-family="'RobotoMono-Bold'" font-size="10.5">s</text>
	<text transform="matrix(0.5713 0 0 0.583 43.5967 167.4355)" font-family="'RobotoMono-Bold'" font-size="14">2</text>
	<text transform="matrix(0.9799 0 0 1 48.396 162.7734)" font-family="'RobotoMonoForPowerline-Bold'" font-size="10.5"> = </text>
	<text transform="matrix(0.9799 0 0 1 66.9189 162.7734)" font-family="'RobotoMono-Bold'" font-size="10.5">k</text>
	<text transform="matrix(0.5713 0 0 0.583 73.0933 167.4355)" font-family="'RobotoMono-Bold'" font-size="14">2</text>
	<text transform="matrix(0.9799 0 0 1 77.8926 162.7734)" font-family="'RobotoMonoForPowerline-Bold'" font-size="10.5"> + H(x(</text>
	<text transform="matrix(0.9799 0 0 1 121.1128 162.7734)" font-family="'RobotoMono-Bold'" font-size="10.5">R</text>
	<text transform="matrix(0.5713 0 0 0.583 127.2871 167.4355)" font-family="'RobotoMono-Bold'" font-size="14">agg</text>
	<text transform="matrix(0.9799 0 0 1 141.6855 162.7734)" font-family="'RobotoMonoForPowerline-Bold'" font-size="10.5">)|</text>
	<text transform="matrix(0.9799 0 0 1 154.0352 162.7734)" font-family="'RobotoMono-Bold'" font-size="10.5">P</text>
	<text transform="matrix(0.5713 0 0 0.583 160.21 167.4355)" font-family="'RobotoMono-Bold'" font-size="14">agg</text>
	<text transform="matrix(0.9799 0 0 1 174.6094 162.7734)" font-family="'RobotoMonoForPowerline-Bold'" font-size="10.5">|m) * </text>
	<text transform="matrix(0.9799 0 0 1 211.6582 162.7734)" font-family="'RobotoMono-Bold'" font-size="10.5">x</text>
	<text transform="matrix(0.5713 0 0 0.583 217.833 167.4355)" font-family="'RobotoMono-Bold'" font-size="14">2</text>
</g>
<g>
	<rect x="37.422" y="221.833" fill="none" width="489.578" height="20.667"/>
	<text transform="matrix(0.9799 0 0 1 37.4224 232.3335)" font-family="'RobotoMono-Bold'" font-size="10.5">s</text>
	<text transform="matrix(0.5713 0 0 0.583 43.5967 236.9956)" font-family="'RobotoMono-Bold'" font-size="14">0</text>
	<text transform="matrix(0.9799 0 0 1 48.396 232.3335)" font-family="'RobotoMonoForPowerline-Bold'" font-size="10.5"> + </text>
	<text transform="matrix(0.9799 0 0 1 66.9189 232.3335)" font-family="'RobotoMono-Bold'" font-size="10.5">s</text>
	<text transform="matrix(0.5713 0 0 0.583 73.0933 236.9956)" font-family="'RobotoMono-Bold'" font-size="14">1</text>
	<text transform="matrix(0.9799 0 0 1 77.8926 232.3335)" font-family="'RobotoMonoForPowerline-Bold'" font-size="10.5"> + </text>
	<text transform="matrix(0.9799 0 0 1 96.4155 232.3335)" font-family="'RobotoMono-Bold'" font-size="10.5">s</text>
	<text transform="matrix(0.5713 0 0 0.583 102.5898 236.9956)" font-family="'RobotoMono-Bold'" font-size="14">2</text>
	<text transform="matrix(0.9799 0 0 1 107.3892 232.3335)" font-family="'RobotoMonoForPowerline-Bold'" font-size="10.5"> = </text>
	<text transform="matrix(0.9799 0 0 1 125.9121 232.3335)" font-family="'RobotoMono-Bold'" font-size="10.5">k</text>
	<text transform="matrix(0.5713 0 0 0.583 132.0864 236.9956)" font-family="'RobotoMono-Bold'" font-size="14">0</text>
	<text transform="matrix(0.9799 0 0 1 136.8857 232.3335)" font-family="'RobotoMonoForPowerline-Bold'" font-size="10.5"> + </text>
	<text transform="matrix(0.9799 0 0 1 155.4102 232.3335)" font-family="'RobotoMono-Bold'" font-size="10.5">k</text>
	<text transform="matrix(0.5713 0 0 0.583 161.585 236.9956)" font-family="'RobotoMono-Bold'" font-size="14">1</text>
	<text transform="matrix(0.9799 0 0 1 166.3848 232.3335)" font-family="'RobotoMonoForPowerline-Bold'" font-size="10.5"> + </text>
	<text transform="matrix(0.9799 0 0 1 184.9092 232.3335)" font-family="'RobotoMono-Bold'" font-size="10.5">k</text>
	<text transform="matrix(0.5713 0 0 0.583 191.084 236.9956)" font-family="'RobotoMono-Bold'" font-size="14">2</text>
	<text transform="matrix(0.9799 0 0 1 195.8838 232.3335)" font-family="'RobotoMonoForPowerline-Bold'" font-size="10.5"> + H(x(</text>
	<text transform="matrix(0.9799 0 0 1 239.1074 232.3335)" font-family="'RobotoMono-Bold'" font-size="10.5">R</text>
	<text transform="matrix(0.5713 0 0 0.583 245.2822 236.9956)" font-family="'RobotoMono-Bold'" font-size="14">agg</text>
	<text transform="matrix(0.9799 0 0 1 259.6816 232.3335)" font-family="'RobotoMonoForPowerline-Bold'" font-size="10.5">)|</text>
	<text transform="matrix(0.9799 0 0 1 272.0312 232.3335)" font-family="'RobotoMono-Bold'" font-size="10.5">P</text>
	<text transform="matrix(0.5713 0 0 0.583 278.2061 236.9956)" font-family="'RobotoMono-Bold'" font-size="14">agg</text>
	<text transform="matrix(0.9799 0 0 1 292.6055 232.3335)" font-family="'RobotoMonoForPowerline-Bold'" font-size="10.5">|m) * (</text>
	<text transform="matrix(0.9799 0 0 1 335.8291 232.3335)" font-family="'RobotoMono-Bold'" font-size="10.5">x</text>
	<text transform="matrix(0.5713 0 0 0.583 342.0039 236.9956)" font-family="'RobotoMono-Bold'" font-size="14">0</text>
	<text transform="matrix(0.9799 0 0 1 346.8037 232.3335)" font-family="'RobotoMonoForPowerline-Bold'" font-size="10.5"> + </text>
	<text transform="matrix(0.9799 0 0 1 365.3281 232.3335)" font-family="'RobotoMono-Bold'" font-size="10.5">x</text>
	<text transform="matrix(0.5713 0 0 0.583 371.5029 236.9956)" font-family="'RobotoMono-Bold'" font-size="14">1</text>
	<text transform="matrix(0.9799 0 0 1 376.3027 232.3335)" font-family="'RobotoMonoForPowerline-Bold'" font-size="10.5"> + </text>
	<text transform="matrix(0.9799 0 0 1 394.8271 232.3335)" font-family="'RobotoMono-Bold'" font-size="10.5">x</text>
	<text transform="matrix(0.5713 0 0 0.583 401.002 236.9956)" font-family="'RobotoMono-Bold'" font-size="14">2</text>
	<text transform="matrix(0.9799 0 0 1 405.8018 232.3335)" font-family="'RobotoMonoForPowerline-Bold'" font-size="10.5">)</text>
</g>
<g>
	<rect x="212.789" y="271.49" fill="none" width="100.051" height="22.328"/>
	<text transform="matrix(0.9799 0 0 1 214.4561 281.9897)" font-family="'RobotoMonoForPowerline-Bold'" font-size="10.5">H(x(</text>
	<text transform="matrix(0.9799 0 0 1 239.1553 281.9897)" font-family="'RobotoMono-Bold'" font-size="10.5">R</text>
	<text transform="matrix(0.5713 0 0 0.583 245.3301 286.6519)" font-family="'RobotoMono-Bold'" font-size="14">agg</text>
	<text transform="matrix(0.9799 0 0 1 259.7295 281.9897)" font-family="'RobotoMonoForPowerline-Bold'" font-size="10.5">)|</text>
	<text transform="matrix(0.9799 0 0 1 272.0791 281.9897)" font-family="'RobotoMono-Bold'" font-size="10.5">P</text>
	<text transform="matrix(0.5713 0 0 0.583 278.2539 286.6519)" font-family="'RobotoMono-Bold'" font-size="14">agg</text>
	<text transform="matrix(0.9799 0 0 1 292.6533 281.9897)" font-family="'RobotoMonoForPowerline-Bold'" font-size="10.5">|m)</text>
</g>
<g>
	<rect x="34.422" y="270.833" fill="none" width="73.578" height="20.667"/>
	<text transform="matrix(0.9799 0 0 1 60.9248 281.3335)" font-family="'RobotoMono-Bold'" font-size="10.5">s</text>
	<text transform="matrix(0.5713 0 0 0.583 67.0991 285.9956)" font-family="'RobotoMono-Bold'" font-size="14">agg</text>
</g>
<g>
	<rect x="127.824" y="270.833" fill="none" width="73.578" height="20.667"/>
	<text transform="matrix(0.9799 0 0 1 154.3267 281.3335)" font-family="'RobotoMono-Bold'" font-size="10.5">k</text>
	<text transform="matrix(0.5713 0 0 0.583 160.501 285.9956)" font-family="'RobotoMono-Bold'" font-size="14">agg</text>
</g>
<g>
	<rect x="340.245" y="270.833" fill="none" width="73.577" height="20.667"/>
	<text transform="matrix(0.9799 0 0 1 366.748 281.3335)" font-family="'RobotoMono-Bold'" font-size="10.5">x</text>
	<text transform="matrix(0.5713 0 0 0.583 372.9219 285.9956)" font-family="'RobotoMono-Bold'" font-size="14">agg</text>
</g>
<g>
	<rect x="96.79" y="274.49" fill="none" width="40.244" height="19.354"/>
	<text transform="matrix(0.9799 0 0 1 113.8247 282.3647)" font-family="'RobotoMonoForPowerline-Bold'" font-size="10.5">=</text>
</g>
<g>
	<rect x="185.766" y="274.49" fill="none" width="40.244" height="19.354"/>
	<text transform="matrix(0.9799 0 0 1 202.8003 282.3647)" font-family="'RobotoMonoForPowerline-Bold'" font-size="10.5">+</text>
</g>
<g>
	<rect x="301.001" y="274.49" fill="none" width="40.244" height="19.354"/>
	<text transform="matrix(0.9799 0 0 1 318.0352 282.3647)" font-family="'RobotoMonoForPowerline-Bold'" font-size="10.5">*</text>
</g>
<g>
	<g>
		<line fill="none" stroke="#C9C9C9" stroke-miterlimit="10" x1="263.5" y1="260.512" x2="263.5" y2="244.839"/>
		<g>
			<polygon fill="#C9C9C9" points="263.5,265.172 266.183,258.606 263.5,260.164 260.817,258.606 			"/>
		</g>
	</g>
</g>
<g>
	<g>
		<line fill="none" stroke="#C9C9C9" stroke-miterlimit="10" x1="161.662" y1="260.512" x2="161.662" y2="244.839"/>
		<g>
			<polygon fill="#C9C9C9" points="161.662,265.172 164.345,258.606 161.662,260.164 158.979,258.606 			"/>
		</g>
	</g>
</g>
<g>
	<g>
		<line fill="none" stroke="#C9C9C9" stroke-miterlimit="10" x1="72.162" y1="260.512" x2="72.162" y2="244.839"/>
		<g>
			<polygon fill="#C9C9C9" points="72.162,265.172 74.845,258.606 72.162,260.164 69.479,258.606 			"/>
		</g>
	</g>
</g>
<g>
	<g>
		<line fill="none" stroke="#C9C9C9" stroke-miterlimit="10" x1="375" y1="260.512" x2="375" y2="244.839"/>
		<g>
			<polygon fill="#C9C9C9" points="375,265.172 377.684,258.606 375,260.164 372.317,258.606 			"/>
		</g>
	</g>
</g>
<rect x="34.324" y="81.531" fill="none" width="187" height="20"/>
<text transform="matrix(1 0 0 1 34.3242 89.0308)" font-family="'RobotoMonoForPowerline-Italic'" font-size="10">Individual Signatures</text>
<rect x="34.324" y="206.5" fill="none" width="187" height="20"/>
<text transform="matrix(1 0 0 1 34.3242 214)" font-family="'RobotoMonoForPowerline-Italic'" font-size="10">Aggregated Signature</text>
<g>
	<rect x="32.422" y="25.333" fill="none" width="416.578" height="18.667"/>
	<text transform="matrix(0.9799 0 0 1 32.4224 35.0835)" font-family="'RobotoMono-Bold'" font-size="13">Signature Aggregation</text>
</g>
</svg>
