<?xml version="1.0" encoding="utf-8"?>
<!-- Generator: Adobe Illustrator 16.0.4, SVG Export Plug-In . SVG Version: 6.00 Build 0)  -->
<!DOCTYPE svg PUBLIC "-//W3C//DTD SVG 1.1//EN" "http://www.w3.org/Graphics/SVG/1.1/DTD/svg11.dtd">
<svg version="1.1" id="TapTree-2.1" xmlns="http://www.w3.org/2000/svg" xmlns:xlink="http://www.w3.org/1999/xlink" x="0px"
	 y="0px" width="595.28px" height="330.643px" viewBox="0 0 595.28 330.643" enable-background="new 0 0 595.28 330.643"
	 xml:space="preserve">
<g>
	<path fill="#454545" d="M590.28,2c1.654,0,3,1.346,3,3v320.643c0,1.654-1.346,3-3,3H5c-1.654,0-3-1.346-3-3V5c0-1.654,1.346-3,3-3
		H590.28 M590.28,0H5C2.25,0,0,2.25,0,5v320.643c0,2.75,2.25,5,5,5h585.28c2.75,0,5-2.25,5-5V5C595.28,2.25,593.03,0,590.28,0
		L590.28,0z"/>
</g>
<g opacity="0.66">
	<path fill="#C9C9C9" d="M218.667,113.53c0,1.1-0.9,2-2,2H98.949c-1.1,0-2-0.9-2-2v-10c0-1.1,0.9-2,2-2h117.718c1.1,0,2,0.9,2,2
		V113.53z"/>
</g>
<g opacity="0.66">
	<path fill="#C9C9C9" d="M218.667,140.53c0,1.1-0.9,2-2,2H98.949c-1.1,0-2-0.9-2-2v-10c0-1.1,0.9-2,2-2h117.718c1.1,0,2,0.9,2,2
		V140.53z"/>
</g>
<g opacity="0.66">
	<path fill="#C9C9C9" d="M218.667,168.53c0,1.1-0.9,2-2,2H98.949c-1.1,0-2-0.9-2-2v-10c0-1.1,0.9-2,2-2h117.718c1.1,0,2,0.9,2,2
		V168.53z"/>
</g>
<g opacity="0.66">
	<path fill="#C9C9C9" d="M342.07,237.5c0,1.1-0.9,2-2,2H222.353c-1.1,0-2-0.9-2-2v-10c0-1.1,0.9-2,2-2H340.07c1.1,0,2,0.9,2,2V237.5
		z"/>
</g>
<g opacity="0.66">
	<path fill="#C9C9C9" d="M342.07,276.156c0,1.1-0.9,2-2,2H222.353c-1.1,0-2-0.9-2-2v-10c0-1.1,0.9-2,2-2H340.07c1.1,0,2,0.9,2,2
		V276.156z"/>
</g>
<g opacity="0.65">
	<path fill="#A1DADE" d="M52.334,113.53c0,1.1-0.9,2-2,2h-14.01c-1.1,0-2-0.9-2-2v-10c0-1.1,0.9-2,2-2h14.01c1.1,0,2,0.9,2,2V113.53
		z"/>
</g>
<g opacity="0.65">
	<path fill="#A1DADE" d="M52.334,140.53c0,1.1-0.9,2-2,2h-14.01c-1.1,0-2-0.9-2-2v-10c0-1.1,0.9-2,2-2h14.01c1.1,0,2,0.9,2,2V140.53
		z"/>
</g>
<g opacity="0.65">
	<path fill="#A1DADE" d="M52.334,168.53c0,1.1-0.9,2-2,2h-14.01c-1.1,0-2-0.9-2-2v-10c0-1.1,0.9-2,2-2h14.01c1.1,0,2,0.9,2,2V168.53
		z"/>
</g>
<g opacity="0.65">
	<path fill="#A1DADE" d="M115.5,236.5c0,1.65-1.35,3-3,3H37.324c-1.65,0-3-1.35-3-3v-8c0-1.65,1.35-3,3-3H112.5c1.65,0,3,1.35,3,3
		V236.5z"/>
</g>
<g opacity="0.65">
	<path fill="#A1DADE" d="M115.5,275.156c0,1.65-1.35,3-3,3H37.324c-1.65,0-3-1.35-3-3v-8c0-1.65,1.35-3,3-3H112.5c1.65,0,3,1.35,3,3
		V275.156z"/>
</g>
<g opacity="0.65">
	<path fill="#A1DADE" d="M208,236.5c0,1.65-1.35,3-3,3h-75.176c-1.65,0-3-1.35-3-3v-8c0-1.65,1.35-3,3-3H205c1.65,0,3,1.35,3,3
		V236.5z"/>
</g>
<g opacity="0.65">
	<path fill="#A1DADE" d="M208,275.156c0,1.65-1.35,3-3,3h-75.176c-1.65,0-3-1.35-3-3v-8c0-1.65,1.35-3,3-3H205c1.65,0,3,1.35,3,3
		V275.156z"/>
</g>
<g opacity="0.65">
	<path fill="#A1DADE" d="M446,236.5c0,1.65-1.35,3-3,3h-82.676c-1.65,0-3-1.35-3-3v-8c0-1.65,1.35-3,3-3H443c1.65,0,3,1.35,3,3
		V236.5z"/>
</g>
<g opacity="0.65">
	<path fill="#A1DADE" d="M446,275.156c0,1.65-1.35,3-3,3h-82.676c-1.65,0-3-1.35-3-3v-8c0-1.65,1.35-3,3-3H443c1.65,0,3,1.35,3,3
		V275.156z"/>
</g>
<g opacity="0.65">
	<path fill="#A1DADE" d="M83.334,113.53c0,1.1-0.9,2-2,2h-14.01c-1.1,0-2-0.9-2-2v-10c0-1.1,0.9-2,2-2h14.01c1.1,0,2,0.9,2,2V113.53
		z"/>
</g>
<g opacity="0.65">
	<path fill="#A1DADE" d="M83.334,140.53c0,1.1-0.9,2-2,2h-14.01c-1.1,0-2-0.9-2-2v-10c0-1.1,0.9-2,2-2h14.01c1.1,0,2,0.9,2,2V140.53
		z"/>
</g>
<g opacity="0.65">
	<path fill="#A1DADE" d="M83.334,168.53c0,1.1-0.9,2-2,2h-14.01c-1.1,0-2-0.9-2-2v-10c0-1.1,0.9-2,2-2h14.01c1.1,0,2,0.9,2,2V168.53
		z"/>
</g>
<g opacity="0.65">
	<path fill="#A1DADE" d="M250.334,113.53c0,1.1-0.9,2-2,2h-14.01c-1.1,0-2-0.9-2-2v-10c0-1.1,0.9-2,2-2h14.01c1.1,0,2,0.9,2,2
		V113.53z"/>
</g>
<g opacity="0.65">
	<path fill="#A1DADE" d="M250.334,140.53c0,1.1-0.9,2-2,2h-14.01c-1.1,0-2-0.9-2-2v-10c0-1.1,0.9-2,2-2h14.01c1.1,0,2,0.9,2,2
		V140.53z"/>
</g>
<g opacity="0.65">
	<path fill="#A1DADE" d="M250.334,168.53c0,1.1-0.9,2-2,2h-14.01c-1.1,0-2-0.9-2-2v-10c0-1.1,0.9-2,2-2h14.01c1.1,0,2,0.9,2,2
		V168.53z"/>
</g>
<g>
	<rect x="37.422" y="104.093" fill="none" width="270.335" height="15.833"/>
	<text transform="matrix(0.9799 0 0 1 37.4224 111.9683)" font-family="'RobotoMonoForPowerline-Bold'" font-size="10.5">s0 = k0 + H(x(R_agg)|P_agg|m) * x0</text>
</g>
<g>
	<rect x="37.422" y="130.802" fill="none" width="270.335" height="15.833"/>
	<text transform="matrix(0.9799 0 0 1 37.4224 138.6768)" font-family="'RobotoMonoForPowerline-Bold'" font-size="10.5">s1 = k1 + H(x(R_agg)|P_agg|m) * x1</text>
</g>
<g>
	<rect x="37.422" y="158.635" fill="none" width="270.335" height="15.833"/>
	<text transform="matrix(0.9799 0 0 1 37.4224 166.5098)" font-family="'RobotoMonoForPowerline-Bold'" font-size="10.5">s2 = k2 + H(x(R_agg)|P_agg|m) * x2</text>
</g>
<g>
	<rect x="37.422" y="228.479" fill="none" width="489.578" height="33.354"/>
	<text transform="matrix(0.9799 0 0 1 37.4224 236.354)" font-family="'RobotoMonoForPowerline-Bold'" font-size="10.5">s0 + s1 + s2 = k0 + k1 + k2 + H(x(R_agg)|P_agg|m) * (x0 + x1 + x2)</text>
</g>
<g>
	<rect x="54.207" y="266.479" fill="none" width="40.244" height="19.354"/>
	<text transform="matrix(0.9799 0 0 1 58.8931 274.354)" font-family="'RobotoMonoForPowerline-Bold'" font-size="10.5">s_agg</text>
</g>
<g>
	<rect x="147.29" y="266.479" fill="none" width="40.244" height="19.354"/>
	<text transform="matrix(0.9799 0 0 1 151.9761 274.354)" font-family="'RobotoMonoForPowerline-Bold'" font-size="10.5">k_agg</text>
</g>
<g>
	<rect x="100.29" y="266.479" fill="none" width="40.244" height="19.354"/>
	<text transform="matrix(0.9799 0 0 1 117.3247 274.354)" font-family="'RobotoMonoForPowerline-Bold'" font-size="10.5">=</text>
</g>
<g>
	<rect x="207" y="266.479" fill="none" width="13.578" height="19.354"/>
	<text transform="matrix(0.9799 0 0 1 210.7017 274.354)" font-family="'RobotoMonoForPowerline-Bold'" font-size="10.5">+</text>
</g>
<g>
	<rect x="343.746" y="266.479" fill="none" width="13.578" height="19.354"/>
	<text transform="matrix(0.9799 0 0 1 347.4473 274.354)" font-family="'RobotoMonoForPowerline-Bold'" font-size="10.5">*</text>
</g>
<g>
</g>
<g>
	<rect x="381.54" y="266.479" fill="none" width="40.244" height="19.354"/>
	<text transform="matrix(0.9799 0 0 1 386.2266 274.354)" font-family="'RobotoMonoForPowerline-Bold'" font-size="10.5">x_agg</text>
</g>
<g>
	<rect x="221.396" y="266.479" fill="none" width="120.815" height="19.354"/>
	<text transform="matrix(0.9799 0 0 1 223.147 274.354)" font-family="'RobotoMonoForPowerline-Bold'" font-size="10.5">H(x(R_agg)|P_agg|m)</text>
</g>
<g>
	<g>
		<line fill="none" stroke="#C9C9C9" stroke-miterlimit="10" x1="282.211" y1="257.173" x2="282.211" y2="241.5"/>
		<g>
			<polygon fill="#C9C9C9" points="282.211,261.833 284.894,255.267 282.211,256.825 279.528,255.267 			"/>
		</g>
	</g>
</g>
<g>
	<g>
		<line fill="none" stroke="#C9C9C9" stroke-miterlimit="10" x1="167.412" y1="257.173" x2="167.412" y2="241.5"/>
		<g>
			<polygon fill="#C9C9C9" points="167.412,261.833 170.095,255.267 167.412,256.825 164.729,255.267 			"/>
		</g>
	</g>
</g>
<g>
	<g>
		<line fill="none" stroke="#C9C9C9" stroke-miterlimit="10" x1="74.329" y1="257.173" x2="74.329" y2="241.5"/>
		<g>
			<polygon fill="#C9C9C9" points="74.329,261.833 77.012,255.267 74.329,256.825 71.646,255.267 			"/>
		</g>
	</g>
</g>
<g>
	<g>
		<line fill="none" stroke="#C9C9C9" stroke-miterlimit="10" x1="401.662" y1="257.173" x2="401.662" y2="241.5"/>
		<g>
			<polygon fill="#C9C9C9" points="401.662,261.833 404.346,255.267 401.662,256.825 398.979,255.267 			"/>
		</g>
	</g>
</g>
<rect x="34.324" y="81.531" fill="none" width="187" height="20"/>
<text transform="matrix(1 0 0 1 34.3242 89.0308)" font-family="'RobotoMonoForPowerline-Italic'" font-size="10">Individual Signatures</text>
<rect x="34.324" y="206.5" fill="none" width="187" height="20"/>
<text transform="matrix(1 0 0 1 34.3242 214)" font-family="'RobotoMonoForPowerline-Italic'" font-size="10">Aggregated Signature</text>
<g>
	<rect x="32.422" y="25.333" fill="none" width="416.578" height="18.667"/>
	<text transform="matrix(0.9799 0 0 1 32.4224 35.0835)" font-family="'RobotoMono-Bold'" font-size="13">Linear Aggregation of Schnorr Signatures</text>
</g>
</svg>
