<?xml version="1.0" encoding="utf-8"?>
<!-- Generator: Adobe Illustrator 16.0.4, SVG Export Plug-In . SVG Version: 6.00 Build 0)  -->
<!DOCTYPE svg PUBLIC "-//W3C//DTD SVG 1.1//EN" "http://www.w3.org/Graphics/SVG/1.1/DTD/svg11.dtd">
<svg version="1.1" id="TapTree-2.1" xmlns="http://www.w3.org/2000/svg" xmlns:xlink="http://www.w3.org/1999/xlink" x="0px"
	 y="0px" width="595.28px" height="330.643px" viewBox="0 0 595.28 330.643" enable-background="new 0 0 595.28 330.643"
	 xml:space="preserve">
<g>
	<path fill="#454545" d="M590.28,2c1.654,0,3,1.346,3,3v320.643c0,1.654-1.346,3-3,3H5c-1.654,0-3-1.346-3-3V5c0-1.654,1.346-3,3-3
		H590.28 M590.28,0H5C2.25,0,0,2.25,0,5v320.643c0,2.75,2.25,5,5,5h585.28c2.75,0,5-2.25,5-5V5C595.28,2.25,593.03,0,590.28,0
		L590.28,0z"/>
</g>
<g opacity="0.65">
	<path fill="#A1DADE" d="M291.38,94.73c0,2.107-1.724,3.832-3.832,3.832H36.254c-2.107,0-3.832-1.724-3.832-3.832V74.728
		c0-2.107,1.724-3.832,3.832-3.832h251.294c2.107,0,3.832,1.724,3.832,3.832V94.73z"/>
</g>
<g opacity="0.65">
	<path fill="#A1DADE" d="M564.958,94.73c0,2.107-1.725,3.832-3.832,3.832H309.831c-2.106,0-3.831-1.724-3.831-3.832V74.728
		c0-2.107,1.725-3.832,3.831-3.832h251.295c2.107,0,3.832,1.724,3.832,3.832V94.73z"/>
</g>
<g>
	<rect x="27.901" y="80.356" fill="none" width="267.999" height="17.206"/>
	<text transform="matrix(0.9799 0 0 1 86.3638 88.2104)"><tspan x="0" y="0" font-family="'HelveticaNeue-Bold'" font-size="11">bitcoinops/tap</tspan><tspan x="76.163" y="0" font-family="'HelveticaNeue-Bold'" font-size="11">r</tspan><tspan x="80.244" y="0" font-family="'HelveticaNeue-Bold'" font-size="11">oot-workshop</tspan></text>
</g>
<g>
	<rect x="27.901" y="290.5" fill="none" width="267.999" height="17.206"/>
	<text transform="matrix(0.9799 0 0 1 124.1689 296.9258)" font-family="'HelveticaNeue-Bold'" font-size="9">Jupyter Notebook</text>
</g>
<g>
	<rect x="157.38" y="279.856" fill="none" width="267.999" height="17.206"/>
	<text transform="matrix(0.9799 0 0 1 276.5205 286.2822)" font-family="'HelveticaNeue-Italic'" font-size="9">imports</text>
</g>
<g>
	<rect x="301.479" y="290.5" fill="none" width="267.999" height="17.206"/>
	<text transform="matrix(0.9799 0 0 1 380.3438 296.9258)"><tspan x="0" y="0" font-family="'HelveticaNeue-Bold'" font-size="9">Bitcoind + </tspan><tspan x="46.051" y="0" font-family="'HelveticaNeue-Bold'" font-size="9">T</tspan><tspan x="50.551" y="0" font-family="'HelveticaNeue-Bold'" font-size="9">estFramework</tspan></text>
</g>
<g>
	<rect x="61.109" y="117.881" fill="none" width="231.224" height="86.41"/>
	<text transform="matrix(0.9799 0 0 1 61.1094 123.8809)"><tspan x="0" y="0" font-family="'RobotoMono-Regular'" font-size="8">1.0-Workshop-Setup.ipynb</tspan><tspan x="0" y="18" font-family="'RobotoMono-Regular'" font-size="8">1.1-Introduction-to-Schnorr.ipynb</tspan><tspan x="0" y="36" font-family="'RobotoMono-Regular'" font-size="8">1.2-Introduction-to-Musig.ipynb</tspan><tspan x="0" y="54" font-family="'RobotoMono-Regular'" font-size="8">...</tspan></text>
</g>
<g>
	<rect x="62.25" y="192.887" fill="none" width="231.224" height="67.613"/>
	<text transform="matrix(0.9799 0 0 1 62.25 198.8872)"><tspan x="0" y="0" font-family="'RobotoMono-Bold'" font-size="8">Solutions</tspan><tspan x="0" y="18" font-family="'RobotoMono-Regular'" font-size="8">  1.1-Introduction-to-Schnorr-Solutions.ipynb</tspan><tspan x="0" y="36" font-family="'RobotoMono-Regular'" font-size="8">  1.2-Introduction-to-Musig-Solutions.ipynb</tspan><tspan x="0" y="54" font-family="'RobotoMono-Regular'" font-size="8">  ...</tspan></text>
</g>
<g>
	<rect x="301.641" y="80.356" fill="none" width="267.998" height="17.206"/>
	<text transform="matrix(0.9799 0 0 1 336.1465 88.2104)"><tspan x="0" y="0" font-family="'HelveticaNeue-Bold'" font-size="11">bitcoinops/bitcoin/t</tspan><tspan x="103.036" y="0" font-family="'HelveticaNeue-Bold'" font-size="11">r</tspan><tspan x="107.117" y="0" font-family="'HelveticaNeue-Bold'" font-size="11">ee/optech-tap</tspan><tspan x="181.671" y="0" font-family="'HelveticaNeue-Bold'" font-size="11">r</tspan><tspan x="185.753" y="0" font-family="'HelveticaNeue-Bold'" font-size="11">oot</tspan></text>
</g>
<polyline fill="none" stroke="#000000" stroke-width="0.5" stroke-miterlimit="10" points="54.375,106.236 54.375,156.736 
	54.375,195.736 59.625,195.736 "/>
<polyline fill="none" stroke="#000000" stroke-width="0.5" stroke-miterlimit="10" points="64.766,203.111 64.766,209.06 
	64.766,232.611 70.016,232.611 "/>
<polyline fill="none" stroke="#000000" stroke-width="0.5" stroke-miterlimit="10" points="64.766,203.111 64.766,205.38 
	64.766,214.361 70.016,214.361 "/>
<line fill="none" stroke="#000000" stroke-width="0.5" stroke-miterlimit="10" x1="54.375" y1="157.361" x2="59.625" y2="157.361"/>
<line fill="none" stroke="#000000" stroke-width="0.5" stroke-miterlimit="10" x1="54.375" y1="138.861" x2="59.625" y2="138.861"/>
<line fill="none" stroke="#000000" stroke-width="0.5" stroke-miterlimit="10" x1="54.375" y1="120.861" x2="59.625" y2="120.861"/>
<g>
	<rect x="336.755" y="117.881" fill="none" width="231.225" height="54.453"/>
	<text transform="matrix(0.9799 0 0 1 336.7549 123.8809)"><tspan x="0" y="0" font-family="'RobotoMono-Regular'" font-size="8">src/bitcoind</tspan><tspan x="0" y="18" font-family="'RobotoMono-Regular'" font-size="8">test/functional/test_framework</tspan></text>
</g>
<g>
	<rect x="348.755" y="157.361" fill="none" width="231.225" height="82.484"/>
	<text transform="matrix(0.9799 0 0 1 348.7549 163.3613)"><tspan x="0" y="0" font-family="'RobotoMono-Regular'" font-size="8">key.py</tspan><tspan x="0" y="18" font-family="'RobotoMono-Regular'" font-size="8">messages.py</tspan><tspan x="0" y="36" font-family="'RobotoMono-Regular'" font-size="8">script.py</tspan><tspan x="0" y="54" font-family="'RobotoMono-Regular'" font-size="8">util.py</tspan><tspan x="0" y="72" font-family="'RobotoMono-Regular'" font-size="8">...</tspan></text>
</g>
<polyline fill="none" stroke="#000000" stroke-width="0.5" stroke-miterlimit="10" points="330.021,106.236 330.021,138.861 
	335.271,138.861 "/>
<line fill="none" stroke="#000000" stroke-width="0.5" stroke-miterlimit="10" x1="330.021" y1="138.861" x2="335.271" y2="138.861"/>
<line fill="none" stroke="#000000" stroke-width="0.5" stroke-miterlimit="10" x1="330.021" y1="120.861" x2="335.271" y2="120.861"/>
<polyline fill="none" stroke="#000000" stroke-width="0.5" stroke-miterlimit="10" points="340.25,146.236 340.25,178.861 
	345.5,178.861 "/>
<line fill="none" stroke="#000000" stroke-width="0.5" stroke-miterlimit="10" x1="340.25" y1="160.861" x2="345.5" y2="160.861"/>
<g>
	<g>
		<path fill="none" stroke="#000000" stroke-width="0.305" stroke-miterlimit="10" d="M32.422,257.667v5.8
			c0,1.118,0.915,2.033,2.033,2.033h122.597c1.118,0,2.033,0.915,2.033,2.033v4.134"/>
	</g>
	<g>
		<path fill="none" stroke="#000000" stroke-width="0.305" stroke-miterlimit="10" d="M285.75,257.667v5.8
			c0,1.118-0.915,2.033-2.033,2.033H161.12c-1.118,0-2.033,0.915-2.033,2.033v4.134"/>
	</g>
</g>
<g>
	<g>
		<path fill="none" stroke="#000000" stroke-width="0.305" stroke-miterlimit="10" d="M306,257.667v5.8
			c0,1.118,0.916,2.033,2.033,2.033h122.598c1.118,0,2.033,0.915,2.033,2.033v4.134"/>
	</g>
	<g>
		<path fill="none" stroke="#000000" stroke-width="0.305" stroke-miterlimit="10" d="M559.328,257.667v5.8
			c0,1.118-0.915,2.033-2.033,2.033H434.697c-1.117,0-2.033,0.915-2.033,2.033v4.134"/>
	</g>
</g>
<g>
	<g>
		
			<line fill="none" stroke="#000000" stroke-width="0.6" stroke-miterlimit="10" x1="361.737" y1="294.063" x2="206.499" y2="294.063"/>
		<g>
			<polygon points="364.999,294.063 360.402,292.185 361.493,294.063 360.402,295.941 			"/>
		</g>
	</g>
</g>
<g>
	<rect x="32.422" y="25.333" fill="none" width="416.578" height="25.333"/>
	<text transform="matrix(0.9799 0 0 1 32.4224 35.0835)" font-family="'RobotoMono-Bold'" font-size="13">Optech Schnorr &amp; Taproot Workshop Repositories</text>
</g>
</svg>
