<?xml version="1.0" encoding="utf-8"?>
<!-- Generator: Adobe Illustrator 16.0.4, SVG Export Plug-In . SVG Version: 6.00 Build 0)  -->
<!DOCTYPE svg PUBLIC "-//W3C//DTD SVG 1.1//EN" "http://www.w3.org/Graphics/SVG/1.1/DTD/svg11.dtd">
<svg version="1.1" id="TapTree-2.1" xmlns="http://www.w3.org/2000/svg" xmlns:xlink="http://www.w3.org/1999/xlink" x="0px"
	 y="0px" width="595.279px" height="330.643px" viewBox="0 0 595.279 330.643" enable-background="new 0 0 595.279 330.643"
	 xml:space="preserve">
<g>
	<path fill="#454545" d="M590.28,2c1.654,0,3,1.346,3,3v320.643c0,1.654-1.346,3-3,3H5c-1.652,0-3-1.346-3-3V5c0-1.654,1.348-3,3-3
		H590.28 M590.28,0H5C2.25,0,0,2.25,0,5v320.643c0,2.75,2.25,5,5,5h585.28c2.75,0,5-2.25,5-5V5C595.28,2.25,593.03,0,590.28,0
		L590.28,0z"/>
</g>
<g opacity="0.65">
	<path fill="#C6C5C5" d="M435.087,294.581c0,0.544-0.444,0.988-0.988,0.988H315.932c-0.544,0-0.988-0.444-0.988-0.988v-15.139
		c0-0.544,0.444-0.988,0.988-0.988h118.166c0.544,0,0.988,0.444,0.988,0.988V294.581z"/>
</g>
<g>
	<path fill="#FFFFFF" d="M279.4,96.562c0,1.1-0.9,2-2,2H34.422c-1.1,0-2-0.9-2-2V72.896c0-1.1,0.9-2,2-2H277.4c1.1,0,2,0.9,2,2
		V96.562z"/>
	<path fill="none" stroke="#231F20" stroke-miterlimit="10" d="M279.4,96.562c0,1.1-0.9,2-2,2H34.422c-1.1,0-2-0.9-2-2V72.896
		c0-1.1,0.9-2,2-2H277.4c1.1,0,2,0.9,2,2V96.562z"/>
</g>
<g>
	<path fill="#FFFFFF" d="M559.129,96.562c0,1.1-0.9,2-2,2H314.15c-1.1,0-2-0.9-2-2V72.896c0-1.1,0.9-2,2-2h242.979c1.1,0,2,0.9,2,2
		V96.562z"/>
	<path fill="none" stroke="#231F20" stroke-miterlimit="10" d="M559.129,96.562c0,1.1-0.9,2-2,2H314.15c-1.1,0-2-0.9-2-2V72.896
		c0-1.1,0.9-2,2-2h242.979c1.1,0,2,0.9,2,2V96.562z"/>
</g>
<g>
	<rect x="21.901" y="80.357" fill="none" width="267.999" height="17.206"/>
	<text transform="matrix(0.9799 0 0 1 80.3635 88.2107)"><tspan x="0" y="0" fill="#231F20" font-family="'HelveticaNeue-Bold'" font-size="11">bitcoinops/tap</tspan><tspan x="76.163" y="0" fill="#231F20" font-family="'HelveticaNeue-Bold'" font-size="11">r</tspan><tspan x="80.244" y="0" fill="#231F20" font-family="'HelveticaNeue-Bold'" font-size="11">oot-workshop</tspan></text>
</g>
<g>
	<rect x="301.64" y="80.357" fill="none" width="267.998" height="17.206"/>
	<text transform="matrix(0.9799 0 0 1 336.1472 88.2107)"><tspan x="0" y="0" fill="#231F20" font-family="'HelveticaNeue-Bold'" font-size="11">bitcoinops/bitcoin/t</tspan><tspan x="103.035" y="0" fill="#231F20" font-family="'HelveticaNeue-Bold'" font-size="11">r</tspan><tspan x="107.116" y="0" fill="#231F20" font-family="'HelveticaNeue-Bold'" font-size="11">ee/optech-tap</tspan><tspan x="181.67" y="0" fill="#231F20" font-family="'HelveticaNeue-Bold'" font-size="11">r</tspan><tspan x="185.752" y="0" fill="#231F20" font-family="'HelveticaNeue-Bold'" font-size="11">oot</tspan></text>
</g>
<g>
	<rect x="32.422" y="25.334" fill="none" width="416.578" height="25.333"/>
	<text transform="matrix(0.9799 0 0 1 32.4221 35.0837)" fill="#231F20" font-family="'RobotoMono-Bold'" font-size="13">Optech Schnorr &amp; Taproot Workshop Repositories</text>
</g>
<g opacity="0.65">
	<path fill="#A0D9DD" d="M172,132.366c0,0.593-0.485,1.079-1.079,1.079H51.881c-0.593,0-1.079-0.485-1.079-1.079v-12.823
		c0-0.593,0.485-1.079,1.079-1.079h119.041c0.593,0,1.079,0.485,1.079,1.079V132.366z"/>
</g>
<g opacity="0.65">
	<path fill="#A0D9DD" d="M201.78,152.068c0,0.593-0.485,1.079-1.079,1.079H51.881c-0.593,0-1.079-0.485-1.079-1.079v-12.823
		c0-0.593,0.485-1.079,1.079-1.079h148.821c0.593,0,1.079,0.485,1.079,1.079V152.068z"/>
</g>
<g opacity="0.65">
	<path fill="#A0D9DD" d="M172,171.769c0,0.594-0.485,1.079-1.079,1.079H51.881c-0.593,0-1.079-0.485-1.079-1.079v-12.823
		c0-0.593,0.485-1.079,1.079-1.079h119.041c0.593,0,1.079,0.485,1.079,1.079V171.769z"/>
</g>
<g opacity="0.65">
	<path fill="#C6C5C5" d="M90.834,213.974c0,0.593-0.485,1.078-1.079,1.078H51.881c-0.593,0-1.079-0.485-1.079-1.078V201.15
		c0-0.593,0.485-1.078,1.079-1.078h37.875c0.593,0,1.079,0.485,1.079,1.078V213.974z"/>
</g>
<g opacity="0.65">
	<path fill="#C6C5C5" d="M125.667,232.86c0,0.593-0.485,1.079-1.079,1.079H51.881c-0.593,0-1.079-0.486-1.079-1.079v-12.823
		c0-0.594,0.485-1.078,1.079-1.078h72.708c0.593,0,1.079,0.484,1.079,1.078V232.86z"/>
</g>
<g opacity="0.65">
	<path fill="#C6C5C5" d="M394.25,132.366c0,0.593-0.485,1.079-1.079,1.079h-61.775c-0.594,0-1.079-0.485-1.079-1.079v-12.823
		c0-0.593,0.485-1.079,1.079-1.079h61.775c0.594,0,1.079,0.485,1.079,1.079V132.366z"/>
</g>
<g opacity="0.65">
	<path fill="#C6C5C5" d="M95.334,252.733c0,0.593-0.485,1.079-1.079,1.079H62.881c-0.593,0-1.079-0.486-1.079-1.079v-12.823
		c0-0.594,0.485-1.078,1.079-1.078h31.375c0.593,0,1.079,0.484,1.079,1.078V252.733z"/>
</g>
<g opacity="0.65">
	<path fill="#C6C5C5" d="M119.834,272.145c0,0.593-0.485,1.079-1.079,1.079H62.881c-0.593,0-1.079-0.486-1.079-1.079v-12.823
		c0-0.594,0.485-1.078,1.079-1.078h55.875c0.593,0,1.079,0.484,1.079,1.078V272.145z"/>
</g>
<g opacity="0.65">
	<path fill="#C6C5C5" d="M110.001,291.759c0,0.594-0.485,1.078-1.079,1.078H62.881c-0.593,0-1.079-0.484-1.079-1.078v-12.823
		c0-0.593,0.485-1.079,1.079-1.079h46.042c0.593,0,1.079,0.486,1.079,1.079V291.759z"/>
</g>
<g>
	<rect x="415.643" y="116.126" fill="none" width="201.517" height="47.662"/>
	<text transform="matrix(0.9799 0 0 1 415.6433 123.0315)"><tspan x="0" y="0" fill="#231F20" font-family="'HelveticaNeue'" font-size="9.6728">Bitcoind with Schnorr </tspan><tspan x="0" y="11.607" fill="#231F20" font-family="'HelveticaNeue'" font-size="9.6728">&amp; </tspan><tspan x="8.783" y="11.607" fill="#231F20" font-family="'HelveticaNeue'" font-size="9.6728" letter-spacing="-1.021">T</tspan><tspan x="13.262" y="11.607" fill="#231F20" font-family="'HelveticaNeue'" font-size="9.6728">ap</tspan><tspan x="24.191" y="11.607" fill="#231F20" font-family="'HelveticaNeue'" font-size="9.6728">r</tspan><tspan x="27.238" y="11.607" fill="#231F20" font-family="'HelveticaNeue'" font-size="9.6728">oot activated</tspan></text>
</g>
<g>
	<rect x="151.401" y="247.322" fill="none" width="100.758" height="47.662"/>
	<text transform="matrix(0.9799 0 0 1 151.4006 254.2278)"><tspan x="0" y="0" fill="#231F20" font-family="'HelveticaNeue'" font-size="9.6728">Schnorr &amp; </tspan><tspan x="45.683" y="0" fill="#231F20" font-family="'HelveticaNeue'" font-size="9.6728" letter-spacing="-1.021">T</tspan><tspan x="50.162" y="0" fill="#231F20" font-family="'HelveticaNeue'" font-size="9.6728">ap</tspan><tspan x="61.091" y="0" fill="#231F20" font-family="'HelveticaNeue'" font-size="9.6728">r</tspan><tspan x="64.138" y="0" fill="#231F20" font-family="'HelveticaNeue'" font-size="9.6728">oot</tspan><tspan x="0" y="11.607" fill="#231F20" font-family="'HelveticaNeue'" font-size="9.6728">Python library</tspan></text>
</g>
<g opacity="0.65">
	<path fill="#A0D9DD" d="M448.473,269.549c0,0.544-0.444,0.988-0.988,0.988H315.932c-0.544,0-0.988-0.444-0.988-0.988v-15.14
		c0-0.544,0.444-0.988,0.988-0.988h131.553c0.544,0,0.988,0.444,0.988,0.988V269.549z"/>
</g>
<g>
	<rect x="318.612" y="258.855" fill="none" width="134.055" height="47.582"/>
	<text transform="matrix(0.9799 0 0 1 318.6121 265.9944)"><tspan x="0" y="0" fill="#231F20" font-family="'HelveticaNeue-Bold'" font-size="10">Jupyter notebook chapters</tspan><tspan x="0" y="24" fill="#231F20" font-family="'HelveticaNeue-Bold'" font-size="10">Notebook dependencies</tspan></text>
</g>
<g>
	<rect x="51.659" y="122.751" fill="none" width="171.575" height="92.87"/>
	<text transform="matrix(0.9799 0 0 1 51.6589 129.2)"><tspan x="0" y="0" fill="#231F20" font-family="'RobotoMono-Bold'" font-size="8.5981">0.1-test-notebook.ipynb</tspan><tspan x="0" y="19.345" fill="#231F20" font-family="'RobotoMono-Bold'" font-size="8.5981">0.2-elliptic-curve-math.ipynb</tspan><tspan x="0" y="38.691" fill="#231F20" font-family="'RobotoMono-Bold'" font-size="8.5981">0.3-tagged-hashes.ipynb</tspan><tspan x="0" y="58.037" fill="#231F20" font-family="'RobotoMono-Bold'" font-size="8.5981">...</tspan></text>
</g>
<g>
	<rect x="52.885" y="203.365" fill="none" width="116.449" height="97.925"/>
	<text transform="matrix(0.9799 0 0 1 52.8845 209.8137)"><tspan x="0" y="0" fill="#231F20" font-family="'RobotoMono-Bold'" font-size="8.5981">util.py</tspan><tspan x="0" y="19.345" fill="#231F20" font-family="'RobotoMono-Bold'" font-size="8.5981">test_framework</tspan><tspan x="0" y="38.69" fill="#231F20" font-family="'RobotoMono-Regular'" font-size="8.5981">  key.py</tspan><tspan x="0" y="58.036" fill="#231F20" font-family="'RobotoMono-Regular'" font-size="8.5981">  messages.py</tspan><tspan x="0" y="77.382" fill="#231F20" font-family="'RobotoMono-Regular'" font-size="8.5981">  script.py</tspan></text>
</g>
<polyline fill="none" stroke="#231F20" stroke-width="0.5374" stroke-miterlimit="10" points="44.422,110.237 44.422,164.512 
	44.422,207.562 50.064,207.562 "/>
<polyline fill="none" stroke="#231F20" stroke-width="0.5374" stroke-miterlimit="10" points="44.422,130.403 44.422,184.679 
	44.422,225.295 50.064,225.295 "/>
<polyline fill="none" stroke="#231F20" stroke-width="0.5374" stroke-miterlimit="10" points="55.589,253.642 55.589,260.035 
	55.589,285.347 61.232,285.347 "/>
<polyline fill="none" stroke="#231F20" stroke-width="0.5374" stroke-miterlimit="10" points="55.589,235.667 55.589,256.08 
	55.589,265.734 61.232,265.734 "/>
<polyline fill="none" stroke="#231F20" stroke-width="0.5374" stroke-miterlimit="10" points="55.589,236.466 55.589,236.466 
	55.589,246.118 61.232,246.118 "/>
<line fill="none" stroke="#231F20" stroke-width="0.5374" stroke-miterlimit="10" x1="44.422" y1="165.322" x2="50.064" y2="165.322"/>
<line fill="none" stroke="#231F20" stroke-width="0.5374" stroke-miterlimit="10" x1="44.422" y1="186.559" x2="50.064" y2="186.559"/>
<line fill="none" stroke="#231F20" stroke-width="0.5374" stroke-miterlimit="10" x1="44.422" y1="145.656" x2="50.064" y2="145.656"/>
<line fill="none" stroke="#231F20" stroke-width="0.5374" stroke-miterlimit="10" x1="44.422" y1="125.955" x2="50.064" y2="125.955"/>
<g>
	<rect x="331.448" y="122.751" fill="none" width="248.511" height="58.523"/>
	<text transform="matrix(0.9799 0 0 1 331.449 129.2)"><tspan x="0" y="0" fill="#231F20" font-family="'RobotoMono-Bold'" font-size="8.5981">src/bitcoind</tspan><tspan x="0" y="19.345" fill="#231F20" font-family="'RobotoMono-Regular'" font-size="8.5981">...</tspan></text>
</g>
<polyline fill="none" stroke="#231F20" stroke-width="0.5374" stroke-miterlimit="10" points="323.674,112.938 323.674,148.002 
	329.316,148.002 "/>
<line fill="none" stroke="#231F20" stroke-width="0.5374" stroke-miterlimit="10" x1="323.674" y1="125.955" x2="329.316" y2="125.955"/>
<g>
	<path fill="none" stroke="#231F20" stroke-width="0.5374" stroke-miterlimit="10" d="M137.447,215.621H142c1.1,0,2,0.899,2,2V294
		c0,1.101-0.9,2-2,2h-4.553"/>
</g>
<line opacity="0.55" fill="none" stroke="#231F20" stroke-miterlimit="10" x1="295.64" y1="70.896" x2="295.64" y2="294.984"/>
</svg>
