<?xml version="1.0" encoding="utf-8"?>
<!-- Generator: Adobe Illustrator 16.0.4, SVG Export Plug-In . SVG Version: 6.00 Build 0)  -->
<!DOCTYPE svg PUBLIC "-//W3C//DTD SVG 1.1//EN" "http://www.w3.org/Graphics/SVG/1.1/DTD/svg11.dtd">
<svg version="1.1" id="TapTree-2.1" xmlns="http://www.w3.org/2000/svg" xmlns:xlink="http://www.w3.org/1999/xlink" x="0px"
	 y="0px" width="595.28px" height="330.643px" viewBox="0 0 595.28 330.643" enable-background="new 0 0 595.28 330.643"
	 xml:space="preserve">
<g>
	<path fill="#454545" d="M590.28,2c1.654,0,3,1.346,3,3v320.643c0,1.654-1.346,3-3,3H5c-1.654,0-3-1.346-3-3V5c0-1.654,1.346-3,3-3
		H590.28 M590.28,0H5C2.25,0,0,2.25,0,5v320.643c0,2.75,2.25,5,5,5h585.28c2.75,0,5-2.25,5-5V5C595.28,2.25,593.03,0,590.28,0
		L590.28,0z"/>
</g>
<g opacity="0.33">
	<path fill="#A1DADE" d="M317.211,210.527c0,0.979-0.801,1.779-1.778,1.779h-25.7c-0.979,0-1.779-0.8-1.779-1.779v-13.356
		c0-0.979,0.8-1.779,1.779-1.779h25.7c0.978,0,1.778,0.8,1.778,1.779V210.527z"/>
</g>
<g opacity="0.33">
	<path fill="#A1DADE" d="M334.961,211.185c0,0.617-0.505,1.121-1.121,1.121h-9.377c-0.616,0-1.121-0.504-1.121-1.121v-14.671
		c0-0.617,0.505-1.121,1.121-1.121h9.377c0.616,0,1.121,0.504,1.121,1.121V211.185z"/>
</g>
<g opacity="0.33">
	<path fill="#A1DADE" d="M58.075,179.932c0,0.546-0.447,0.992-0.992,0.992H48.95c-0.545,0-0.992-0.446-0.992-0.992v-13.236
		c0-0.546,0.447-0.992,0.992-0.992h8.133c0.545,0,0.992,0.446,0.992,0.992V179.932z"/>
</g>
<g>
	<rect x="32.422" y="25.333" fill="none" width="416.578" height="35.333"/>
	<text transform="matrix(0.9799 0 0 1 32.4224 35.0835)" font-family="'RobotoMono-Bold'" font-size="13">Schnorr Signing and Verification</text>
</g>
<g>
	<rect x="49.604" y="192.047" fill="none" width="169.633" height="28.606"/>
	<text transform="matrix(1 0 0 1 49.6035 197.2969)"><tspan x="0" y="0" font-family="'RobotoMono-Italic'" font-size="7">Y-coordinate must be quadratic residue </tspan><tspan x="0" y="9" font-family="'RobotoMono-Italic'" font-size="7">modulo field order p.</tspan></text>
</g>
<g>
	<rect x="397.812" y="174.516" fill="none" width="109.415" height="19.834"/>
	<text transform="matrix(1 0 0 1 397.8125 183.5161)" font-family="'RobotoMono-Italic'" font-size="12">Verify</text>
</g>
<rect x="397.812" y="196.35" fill="none" width="164.103" height="23.4"/>
<text transform="matrix(1 0 0 1 397.8125 205.3501)" font-family="'RobotoMono-Bold'" font-size="12">S = R + H(x(R)|P|m)P</text>
<g>
	<rect x="49.379" y="114.183" fill="none" width="168.082" height="19.834"/>
	<text transform="matrix(1 0 0 1 49.3789 123.1831)" font-family="'RobotoMono-Italic'" font-size="12">1) Nonce Creation</text>
</g>
<g>
	<rect x="49.379" y="225.689" fill="none" width="144.46" height="19.834"/>
	<text transform="matrix(1 0 0 1 49.3789 234.6895)" font-family="'RobotoMono-Italic'" font-size="12">2) Compute s</text>
</g>
<g>
	<rect x="289.171" y="176.516" fill="none" width="70.341" height="19.834"/>
	<text transform="matrix(1 0 0 1 289.1709 185.5161)" font-family="'RobotoMono-Italic'" font-size="12">Signature</text>
</g>
<rect x="289.022" y="198.35" fill="none" width="78.62" height="23.4"/>
<text transform="matrix(1 0 0 1 289.0225 207.3501)" font-family="'RobotoMono-Bold'" font-size="12">x(R),s</text>
<rect x="49.379" y="168.537" fill="none" width="76.661" height="23.4"/>
<text transform="matrix(1 0 0 1 49.3789 177.5366)" font-family="'RobotoMono-Bold'" font-size="12">R = kG</text>
<g opacity="0.65">
	<path fill="#A1DADE" d="M367.668,85.337c0,2.391-1.956,4.347-4.347,4.347H38.713c-2.391,0-4.347-1.956-4.347-4.347V66.365
		c0-2.391,1.956-4.347,4.347-4.347h324.608c2.391,0,4.347,1.956,4.347,4.347V85.337z"/>
</g>
<g>
	<rect x="113.45" y="71.186" fill="none" width="164.186" height="15.332"/>
	<text transform="matrix(0.9799 0 0 1 173.9326 79.0605)" font-family="'RobotoMono-Bold'" font-size="10.5">Signing</text>
</g>
<g opacity="0.65">
	<path fill="#A1DADE" d="M559.996,86.543c0,1.728-1.413,3.141-3.141,3.141H389.098c-1.728,0-3.141-1.414-3.141-3.141V65.159
		c0-1.728,1.413-3.141,3.141-3.141h167.758c1.728,0,3.141,1.414,3.141,3.141V86.543z"/>
</g>
<g>
	<rect x="390.885" y="71.186" fill="none" width="164.186" height="15.332"/>
	<text transform="matrix(0.9799 0 0 1 435.9316 79.0605)" font-family="'RobotoMono-Bold'" font-size="10.5">Verification</text>
</g>
<g>
	<rect x="49.604" y="140.481" fill="none" width="87.476" height="13.155"/>
	<text transform="matrix(1 0 0 1 49.6035 145.7314)" font-family="'RobotoMono-Italic'" font-size="7">Nonce point</text>
</g>
<g>
	<rect x="78.379" y="151.348" fill="none" width="24.121" height="6.578"/>
	<text transform="matrix(1 0 0 1 78.3789 156.5981)" font-family="'RobotoMono-Italic'" font-size="7">Nonce</text>
</g>
<line fill="none" stroke="#000000" stroke-width="0.5126" stroke-miterlimit="10" x1="53.017" y1="183.924" x2="53.017" y2="189.24"/>
<line fill="none" stroke="#000000" stroke-width="0.5126" stroke-miterlimit="10" x1="53.017" y1="148" x2="53.017" y2="163.583"/>
<line fill="none" stroke="#000000" stroke-width="0.5126" stroke-miterlimit="10" x1="80.5" y1="158.926" x2="80.5" y2="164.583"/>
<g>
	<rect x="121.609" y="278.627" fill="none" width="49.65" height="17.503"/>
	<text transform="matrix(1 0 0 1 121.6089 283.877)"><tspan x="0" y="0" font-family="'RobotoMono-Italic'" font-size="7">X-coord of </tspan><tspan x="0" y="8" font-family="'RobotoMono-Italic'" font-size="7">nonce point</tspan></text>
</g>
<g>
	<rect x="78.393" y="278.627" fill="none" width="31.226" height="13.155"/>
	<text transform="matrix(1 0 0 1 78.3931 283.877)" font-family="'RobotoMono-Italic'" font-size="7">Nonce</text>
</g>
<g>
	<rect x="186.271" y="278.627" fill="none" width="53.631" height="13.155"/>
	<text transform="matrix(1 0 0 1 186.2705 283.877)" font-family="'RobotoMono-Italic'" font-size="7">Private key</text>
</g>
<g>
	<rect x="289.171" y="217.372" fill="none" width="70.503" height="13.155"/>
	<text transform="matrix(1 0 0 1 289.1709 222.6221)" font-family="'RobotoMono-Italic'" font-size="7">32B + 32B</text>
</g>
<line fill="none" stroke="#000000" stroke-width="0.5126" stroke-miterlimit="10" x1="189.5" y1="269.21" x2="189.5" y2="275.627"/>
<line fill="none" stroke="#000000" stroke-width="0.5126" stroke-miterlimit="10" x1="125.04" y1="269.21" x2="125.04" y2="275.627"/>
<line fill="none" stroke="#000000" stroke-width="0.5126" stroke-miterlimit="10" x1="81.667" y1="269.21" x2="81.667" y2="275.627"/>
<g>
	<g>
		<path fill="none" stroke="#000000" stroke-width="0.532" stroke-miterlimit="10" d="M254.117,113.184h6.321
			c2.872,0,5.222,2.35,5.222,5.222v80.355c0,2.872,1.365,5.222,3.034,5.222s3.034,0,3.034,0"/>
	</g>
	<g>
		<path fill="none" stroke="#000000" stroke-width="0.532" stroke-miterlimit="10" d="M254.117,294.782h6.321
			c2.872,0,5.222-2.35,5.222-5.222v-80.357c0-2.872,2.35-5.222,5.222-5.222h6.569"/>
	</g>
</g>
<g opacity="0.33">
	<path fill="#A1DADE" d="M150,268.431c0,0.979-0.8,1.779-1.779,1.779h-25.7c-0.979,0-1.779-0.8-1.779-1.779v-13.356
		c0-0.979,0.8-1.779,1.779-1.779h25.7c0.979,0,1.779,0.8,1.779,1.779V268.431z"/>
</g>
<g opacity="0.33">
	<path fill="#A1DADE" d="M194.488,267.285c0,0.463-0.378,0.841-0.841,0.841h-7.294c-0.463,0-0.841-0.378-0.841-0.841v-10.647
		c0-0.463,0.378-0.841,0.841-0.841h7.294c0.463,0,0.841,0.378,0.841,0.841V267.285z"/>
</g>
<rect x="49.379" y="256.516" fill="none" width="147.505" height="13.694"/>
<text transform="matrix(1 0 0 1 49.3789 265.5161)" font-family="'RobotoMono-Bold'" font-size="12">s = k + H(x(R)|P|m)x</text>
<line fill="none" stroke="#000000" stroke-width="0.5" stroke-miterlimit="10" x1="47.958" y1="129.5" x2="228.5" y2="129.5"/>
<line fill="none" stroke="#000000" stroke-width="0.5" stroke-miterlimit="10" x1="47.958" y1="241.111" x2="228.5" y2="241.111"/>
</svg>
