<?xml version="1.0" encoding="utf-8"?>
<!-- Generator: Adobe Illustrator 16.0.4, SVG Export Plug-In . SVG Version: 6.00 Build 0)  -->
<!DOCTYPE svg PUBLIC "-//W3C//DTD SVG 1.1//EN" "http://www.w3.org/Graphics/SVG/1.1/DTD/svg11.dtd">
<svg version="1.1" id="TapTree-2.1" xmlns="http://www.w3.org/2000/svg" xmlns:xlink="http://www.w3.org/1999/xlink" x="0px"
	 y="0px" width="595.28px" height="330.643px" viewBox="0 0 595.28 330.643" enable-background="new 0 0 595.28 330.643"
	 xml:space="preserve">
<g>
	<path fill="#454545" d="M590.28,2c1.654,0,3,1.346,3,3v320.643c0,1.654-1.346,3-3,3H5c-1.654,0-3-1.346-3-3V5c0-1.654,1.346-3,3-3
		H590.28 M590.28,0H5C2.25,0,0,2.25,0,5v320.643c0,2.75,2.25,5,5,5h585.28c2.75,0,5-2.25,5-5V5C595.28,2.25,593.03,0,590.28,0
		L590.28,0z"/>
</g>
<g opacity="0.33">
	<path fill="#A1DADE" d="M323.211,208.527c0,0.979-0.801,1.779-1.777,1.779h-25.701c-0.979,0-1.779-0.8-1.779-1.779v-13.356
		c0-0.979,0.8-1.779,1.779-1.779h25.701c0.977,0,1.777,0.8,1.777,1.779V208.527z"/>
</g>
<g opacity="0.33">
	<path fill="#A1DADE" d="M340.961,209.185c0,0.617-0.504,1.121-1.121,1.121h-9.377c-0.617,0-1.121-0.504-1.121-1.121v-14.671
		c0-0.617,0.504-1.121,1.121-1.121h9.377c0.617,0,1.121,0.504,1.121,1.121V209.185z"/>
</g>
<g opacity="0.33">
	<path fill="#A1DADE" d="M66.075,171.932c0,0.546-0.446,0.992-0.992,0.992H56.95c-0.546,0-0.992-0.446-0.992-0.992v-13.236
		c0-0.546,0.446-0.992,0.992-0.992h8.133c0.546,0,0.992,0.446,0.992,0.992V171.932z"/>
</g>
<g>
	<rect x="32.422" y="25.333" fill="none" width="416.578" height="35.333"/>
	<text transform="matrix(0.9799 0 0 1 32.4224 35.0835)" font-family="'RobotoMono-Bold'" font-size="13">Schnorr Signing</text>
</g>
<g>
	<rect x="57.379" y="134.715" fill="none" width="169.633" height="28.606"/>
	<text transform="matrix(1 0 0 1 57.3789 139.9648)"><tspan x="0" y="0" font-family="'RobotoMono-Italic'" font-size="7">Secret nonce (must be quadratic residue </tspan><tspan x="0" y="9" font-family="'RobotoMono-Italic'" font-size="7">modulo field order p)</tspan></text>
</g>
<g>
	<rect x="397.812" y="174.516" fill="none" width="109.415" height="19.834"/>
	<text transform="matrix(1 0 0 1 397.8125 183.5161)" font-family="'RobotoMono-Italic'" font-size="12">Verify</text>
</g>
<rect x="397.812" y="196.35" fill="none" width="164.103" height="23.4"/>
<text transform="matrix(1 0 0 1 397.8125 205.3501)" font-family="'RobotoMono-Bold'" font-size="12">S = R + H(x(R)|P|m)P</text>
<g>
	<rect x="57.379" y="109.183" fill="none" width="168.082" height="19.834"/>
	<text transform="matrix(1 0 0 1 57.3789 118.1831)" font-family="'RobotoMono-Italic'" font-size="12">1) Nonce Creation</text>
</g>
<g>
	<rect x="57.379" y="209.689" fill="none" width="144.46" height="19.834"/>
	<text transform="matrix(1 0 0 1 57.3789 218.6895)" font-family="'RobotoMono-Italic'" font-size="12">2) Compute s</text>
</g>
<g>
	<rect x="295.171" y="174.516" fill="none" width="70.341" height="19.834"/>
	<text transform="matrix(1 0 0 1 295.1709 183.5161)" font-family="'RobotoMono-Italic'" font-size="12">Signature</text>
</g>
<rect x="295.022" y="196.35" fill="none" width="78.62" height="23.4"/>
<text transform="matrix(1 0 0 1 295.0225 205.3501)" font-family="'RobotoMono-Bold'" font-size="12">x(R),s</text>
<rect x="57.379" y="160.537" fill="none" width="76.661" height="23.4"/>
<text transform="matrix(1 0 0 1 57.3789 169.5366)" font-family="'RobotoMono-Bold'" font-size="12">R = kG</text>
<g opacity="0.65">
	<path fill="#A1DADE" d="M367.668,85.337c0,2.391-1.956,4.347-4.347,4.347H38.713c-2.391,0-4.347-1.956-4.347-4.347V66.365
		c0-2.391,1.956-4.347,4.347-4.347h324.608c2.391,0,4.347,1.956,4.347,4.347V85.337z"/>
</g>
<g>
	<rect x="113.45" y="71.186" fill="none" width="164.186" height="15.332"/>
	<text transform="matrix(0.9799 0 0 1 173.9326 79.0605)" font-family="'RobotoMono-Bold'" font-size="10.5">Signing</text>
</g>
<g opacity="0.65">
	<path fill="#A1DADE" d="M559.996,86.543c0,1.728-1.413,3.141-3.141,3.141H389.098c-1.728,0-3.141-1.414-3.141-3.141V65.159
		c0-1.728,1.413-3.141,3.141-3.141h167.758c1.728,0,3.141,1.414,3.141,3.141V86.543z"/>
</g>
<g>
	<rect x="390.885" y="71.186" fill="none" width="164.186" height="15.332"/>
	<text transform="matrix(0.9799 0 0 1 435.9316 79.0605)" font-family="'RobotoMono-Bold'" font-size="10.5">Verification</text>
</g>
<g>
	<rect x="57.379" y="180.981" fill="none" width="87.476" height="13.155"/>
	<text transform="matrix(1 0 0 1 57.3789 186.231)" font-family="'RobotoMono-Italic'" font-size="7">Nonce Point</text>
</g>
<line fill="none" stroke="#000000" stroke-width="0.5126" stroke-miterlimit="10" x1="61.017" y1="173.924" x2="61.017" y2="179.24"/>
<line fill="none" stroke="#000000" stroke-width="0.5126" stroke-miterlimit="10" x1="89.75" y1="152.47" x2="89.75" y2="157.804"/>
<g>
	<rect x="129.609" y="277.627" fill="none" width="49.65" height="17.503"/>
	<text transform="matrix(1 0 0 1 129.6089 282.877)"><tspan x="0" y="0" font-family="'RobotoMono-Italic'" font-size="7">X-coord of </tspan><tspan x="0" y="8" font-family="'RobotoMono-Italic'" font-size="7">Nonce Point</tspan></text>
</g>
<g>
	<rect x="86.393" y="277.627" fill="none" width="31.226" height="13.155"/>
	<text transform="matrix(1 0 0 1 86.3931 282.877)" font-family="'RobotoMono-Italic'" font-size="7">Nonce</text>
</g>
<g>
	<rect x="194.271" y="277.627" fill="none" width="53.631" height="13.155"/>
	<text transform="matrix(1 0 0 1 194.2705 282.877)" font-family="'RobotoMono-Italic'" font-size="7">Private Key</text>
</g>
<g>
	<rect x="111.024" y="233.446" fill="none" width="87.476" height="13.155"/>
	<text transform="matrix(1 0 0 1 157.416 238.6958)" font-family="'RobotoMono-Italic'" font-size="7">k blinds x</text>
</g>
<g>
	<rect x="295.171" y="215.372" fill="none" width="70.503" height="13.155"/>
	<text transform="matrix(1 0 0 1 295.1709 220.6221)" font-family="'RobotoMono-Italic'" font-size="7">32B + 32B</text>
</g>
<line fill="none" stroke="#000000" stroke-width="0.5126" stroke-miterlimit="10" x1="197.5" y1="268.21" x2="197.5" y2="274.627"/>
<line fill="none" stroke="#000000" stroke-width="0.5126" stroke-miterlimit="10" x1="133.04" y1="268.21" x2="133.04" y2="274.627"/>
<line fill="none" stroke="#000000" stroke-width="0.5126" stroke-miterlimit="10" x1="89.667" y1="268.21" x2="89.667" y2="274.627"/>
<g>
	<g>
		<path fill="none" stroke="#000000" stroke-width="0.532" stroke-miterlimit="10" d="M262.117,111.184h6.32
			c2.872,0,5.222,2.35,5.222,5.222v80.354c0,2.872,1.365,5.222,3.034,5.222s3.034,0,3.034,0"/>
	</g>
	<g>
		<path fill="none" stroke="#000000" stroke-width="0.532" stroke-miterlimit="10" d="M262.117,292.782h6.32
			c2.872,0,5.222-2.35,5.222-5.222v-80.356c0-2.872,2.35-5.222,5.222-5.222h6.569"/>
	</g>
</g>
<g opacity="0.55">
	<g>
		<path fill="none" stroke="#000000" stroke-width="0.4" stroke-miterlimit="10" d="M89.667,252.296v-7.273c0-1.1,0.9-2,2-2H195.5
			c1.1,0,2,0.9,2,2v4.449"/>
		<g>
			<polygon points="197.5,252.296 195.874,248.317 197.5,249.261 199.126,248.317 			"/>
		</g>
	</g>
</g>
<g opacity="0.33">
	<path fill="#A1DADE" d="M158,267.431c0,0.979-0.8,1.779-1.779,1.779h-25.7c-0.979,0-1.779-0.8-1.779-1.779v-13.356
		c0-0.979,0.8-1.779,1.779-1.779h25.7c0.979,0,1.779,0.8,1.779,1.779V267.431z"/>
</g>
<g opacity="0.33">
	<path fill="#A1DADE" d="M202.488,266.285c0,0.463-0.378,0.841-0.841,0.841h-7.294c-0.463,0-0.841-0.378-0.841-0.841v-10.647
		c0-0.463,0.378-0.841,0.841-0.841h7.294c0.463,0,0.841,0.378,0.841,0.841V266.285z"/>
</g>
<rect x="57.379" y="255.516" fill="none" width="147.505" height="13.694"/>
<text transform="matrix(1 0 0 1 57.3789 264.5161)" font-family="'RobotoMono-Bold'" font-size="12">s = k + H(x(R)|P|m)x</text>
<line fill="none" stroke="#000000" stroke-width="0.5" stroke-miterlimit="10" x1="55.958" y1="124.5" x2="236.5" y2="124.5"/>
<line fill="none" stroke="#000000" stroke-width="0.5" stroke-miterlimit="10" x1="55.958" y1="225.111" x2="236.5" y2="225.111"/>
</svg>
