<?xml version="1.0" encoding="utf-8"?>
<!-- Generator: Adobe Illustrator 16.0.4, SVG Export Plug-In . SVG Version: 6.00 Build 0)  -->
<!DOCTYPE svg PUBLIC "-//W3C//DTD SVG 1.1//EN" "http://www.w3.org/Graphics/SVG/1.1/DTD/svg11.dtd">
<svg version="1.1" id="TapTree-2.1" xmlns="http://www.w3.org/2000/svg" xmlns:xlink="http://www.w3.org/1999/xlink" x="0px"
	 y="0px" width="595.28px" height="330.643px" viewBox="0 0 595.28 330.643" enable-background="new 0 0 595.28 330.643"
	 xml:space="preserve">
<g>
	<path fill="#454545" d="M590.28,2c1.654,0,3,1.346,3,3v320.643c0,1.654-1.346,3-3,3H5c-1.654,0-3-1.346-3-3V5c0-1.654,1.346-3,3-3
		H590.28 M590.28,0H5C2.25,0,0,2.25,0,5v320.643c0,2.75,2.25,5,5,5h585.28c2.75,0,5-2.25,5-5V5C595.28,2.25,593.03,0,590.28,0
		L590.28,0z"/>
</g>
<g opacity="0.65">
	<path fill="#A1DADE" d="M195.667,159.598c0,1.321-1.081,2.402-2.402,2.402H70.671c-1.321,0-2.402-1.081-2.402-2.402v-17.299
		c0-1.321,1.081-2.402,2.402-2.402h122.593c1.321,0,2.402,1.081,2.402,2.402V159.598z"/>
</g>
<g opacity="0.65">
	<path fill="#A1DADE" d="M385.667,159.598c0,1.321-1.081,2.402-2.402,2.402H247.113c-1.321,0-2.402-1.081-2.402-2.402v-17.299
		c0-1.321,1.081-2.402,2.402-2.402h136.151c1.321,0,2.402,1.081,2.402,2.402V159.598z"/>
</g>
<g>
	<rect x="32.422" y="25.333" fill="none" width="416.578" height="35.333"/>
	<text transform="matrix(0.9799 0 0 1 32.4224 35.0835)" font-family="'RobotoMono-Bold'" font-size="13">Segwit V1 Output Spending Paths</text>
</g>
<g>
	<rect x="32.422" y="145.896" fill="none" width="181.244" height="24.667"/>
	<text transform="matrix(0.9799 0 0 1 32.4224 155.6465)" font-family="'RobotoMono-Bold'" font-size="13">[01] [33B Public Key]</text>
</g>
<g>
	<rect x="245.756" y="145.896" fill="none" width="181.244" height="24.667"/>
	<text transform="matrix(0.9799 0 0 1 245.7559 155.6465)" font-family="'RobotoMono-Bold'" font-size="13">[64/65B signature]</text>
</g>
<g opacity="0.44">
	<rect x="245.756" y="230.2" fill="none" width="316.191" height="27.345"/>
	<text transform="matrix(0.9799 0 0 1 245.7559 239.9502)" font-family="'RobotoMono-Bold'" font-size="13">[initial stack][tapscript][controlblock]</text>
</g>
<g>
	<rect x="32.422" y="121.218" fill="none" width="181.244" height="16.369"/>
	<text transform="matrix(0.9799 0 0 1 32.4224 130.9683)" font-family="'RobotoMono-Italic'" font-size="13">Segwit v1 output:</text>
</g>
<g>
	<rect x="245.756" y="121.218" fill="none" width="181.244" height="16.369"/>
	<text transform="matrix(0.9799 0 0 1 245.7559 130.9683)" font-family="'RobotoMono-Italic'" font-size="13">Key Path Spending:</text>
</g>
<g opacity="0.44">
	<rect x="245.756" y="207.683" fill="none" width="181.244" height="17.238"/>
	<text transform="matrix(0.9799 0 0 1 245.7559 217.4326)" font-family="'RobotoMono-Italic'" font-size="13">Script Path Spending:</text>
</g>
<g opacity="0.44">
	<path fill="none" stroke="#000000" stroke-width="0.7" stroke-miterlimit="10" d="M128.667,170.563v60.988c0,2.75,2.25,5,5,5h103"
		/>
</g>
<g>
	
		<line fill="none" stroke="#000000" stroke-width="0.7" stroke-miterlimit="10" x1="199.333" y1="150.92" x2="236.667" y2="150.92"/>
</g>
</svg>
