<?xml version="1.0" encoding="utf-8"?>
<!-- Generator: Adobe Illustrator 16.0.4, SVG Export Plug-In . SVG Version: 6.00 Build 0)  -->
<!DOCTYPE svg PUBLIC "-//W3C//DTD SVG 1.1//EN" "http://www.w3.org/Graphics/SVG/1.1/DTD/svg11.dtd">
<svg version="1.1" id="Tapscript_Variants" xmlns="http://www.w3.org/2000/svg" xmlns:xlink="http://www.w3.org/1999/xlink" x="0px"
	 y="0px" width="595.28px" height="330.643px" viewBox="0 0 595.28 330.643" enable-background="new 0 0 595.28 330.643"
	 xml:space="preserve">
<g>
	<path fill="#454545" d="M590.28,2c1.654,0,3,1.346,3,3v320.643c0,1.654-1.346,3-3,3H5c-1.654,0-3-1.346-3-3V5c0-1.654,1.346-3,3-3
		H590.28 M590.28,0H5C2.25,0,0,2.25,0,5v320.643c0,2.75,2.25,5,5,5h585.28c2.75,0,5-2.25,5-5V5C595.28,2.25,593.03,0,590.28,0
		L590.28,0z"/>
</g>
<g>
	
		<line fill="none" stroke="#000000" stroke-width="0.8567" stroke-miterlimit="10" x1="517.561" y1="115.845" x2="556.15" y2="154.564"/>
	
		<line fill="none" stroke="#000000" stroke-width="0.8567" stroke-miterlimit="10" x1="517.561" y1="115.845" x2="478.97" y2="154.564"/>
</g>
<line fill="none" stroke="#000000" stroke-width="0.8567" stroke-miterlimit="10" x1="64.29" y1="192.128" x2="85.447" y2="230.847"/>
<line fill="none" stroke="#000000" stroke-width="0.8567" stroke-miterlimit="10" x1="64.29" y1="192.128" x2="43.132" y2="230.847"/>
<g>
	<path d="M64.275,195.564c-1.895,0-3.436-1.542-3.436-3.437c0-1.895,1.542-3.436,3.436-3.436c1.895,0,3.437,1.541,3.437,3.436
		C67.711,194.022,66.17,195.564,64.275,195.564z"/>
	<path fill="#FFFFFF" d="M64.275,189.464c1.471,0,2.664,1.193,2.664,2.663c0,1.472-1.193,2.664-2.664,2.664
		c-1.471,0-2.664-1.192-2.664-2.664C61.611,190.657,62.804,189.464,64.275,189.464 M64.275,187.92c-2.32,0-4.208,1.887-4.208,4.208
		c0,2.321,1.888,4.208,4.208,4.208c2.321,0,4.208-1.888,4.208-4.208C68.483,189.807,66.596,187.92,64.275,187.92L64.275,187.92z"/>
</g>
<circle fill="#A1DADE" stroke="#000000" stroke-width="0.718" stroke-miterlimit="10" cx="85.265" cy="230.846" r="3.018"/>
<circle fill="#A1DADE" stroke="#000000" stroke-width="0.718" stroke-miterlimit="10" cx="43.133" cy="230.846" r="3.018"/>
<line fill="none" stroke="#000000" stroke-width="0.8567" stroke-miterlimit="10" x1="257.529" y1="192.128" x2="278.686" y2="230.847"/>
<line fill="none" stroke="#000000" stroke-width="0.8567" stroke-miterlimit="10" x1="257.529" y1="192.128" x2="236.372" y2="230.847"/>
<line fill="none" stroke="#000000" stroke-width="0.8567" stroke-miterlimit="10" x1="288.959" y1="153.409" x2="320.646" y2="192.128"/>
<line fill="none" stroke="#000000" stroke-width="0.8567" stroke-miterlimit="10" x1="288.959" y1="153.409" x2="257.271" y2="192.128"/>
<g>
	<path d="M257.514,195.564c-1.895,0-3.436-1.542-3.436-3.437c0-1.895,1.542-3.436,3.436-3.436c1.895,0,3.437,1.541,3.437,3.436
		C260.951,194.022,259.409,195.564,257.514,195.564z"/>
	<path fill="#FFFFFF" d="M257.514,189.464c1.471,0,2.664,1.193,2.664,2.663c0,1.472-1.193,2.664-2.664,2.664
		c-1.471,0-2.664-1.192-2.664-2.664C254.851,190.657,256.043,189.464,257.514,189.464 M257.514,187.92
		c-2.32,0-4.208,1.887-4.208,4.208c0,2.321,1.888,4.208,4.208,4.208c2.321,0,4.208-1.888,4.208-4.208
		C261.723,189.807,259.835,187.92,257.514,187.92L257.514,187.92z"/>
</g>
<g>
	<path d="M288.958,156.845c-1.895,0-3.436-1.542-3.436-3.437c0-1.895,1.542-3.436,3.436-3.436c1.895,0,3.437,1.541,3.437,3.436
		C292.395,155.304,290.854,156.845,288.958,156.845z"/>
	<path fill="#FFFFFF" d="M288.958,150.746c1.471,0,2.664,1.193,2.664,2.663c0,1.472-1.193,2.664-2.664,2.664
		c-1.471,0-2.664-1.192-2.664-2.664C286.295,151.938,287.487,150.746,288.958,150.746 M288.958,149.201
		c-2.32,0-4.208,1.887-4.208,4.208c0,2.321,1.888,4.208,4.208,4.208c2.321,0,4.208-1.888,4.208-4.208
		C293.167,151.088,291.279,149.201,288.958,149.201L288.958,149.201z"/>
</g>
<circle fill="#A1DADE" stroke="#000000" stroke-width="0.718" stroke-miterlimit="10" cx="278.504" cy="230.846" r="3.018"/>
<circle fill="#A1DADE" stroke="#000000" stroke-width="0.718" stroke-miterlimit="10" cx="320.561" cy="192.127" r="3.018"/>
<circle fill="#A1DADE" stroke="#000000" stroke-width="0.718" stroke-miterlimit="10" cx="236.372" cy="230.846" r="3.018"/>
<g>
	<rect x="32.422" y="25.333" fill="none" width="416.578" height="35.333"/>
	<text transform="matrix(0.9799 0 0 1 32.4224 35.0835)" font-family="'RobotoMono-Bold'" font-size="13">Huffman Tree Constructor:</text>
</g>
<g>
	<rect x="32.422" y="25.333" fill="none" width="416.578" height="35.333"/>
	<text transform="matrix(0.9799 0 0 1 32.4224 35.0835)"><tspan x="0" y="0" font-family="'RobotoMono-Bold'" font-size="13">Huffman Tree Constructor:</tspan><tspan x="0" y="15.6" font-family="'RobotoMono-Regular'" font-size="13">Connect node pair with lowest weight total.</tspan></text>
</g>
<g>
	<rect x="21.991" y="244.865" fill="none" width="42.284" height="17.667"/>
	<text transform="matrix(0.9799 0 0 1 27.2559 251.6152)"><tspan x="0" y="0" font-family="'RobotoMono-Regular'" font-size="9">(</tspan><tspan x="5.401" y="0" font-family="'RobotoMono-Bold'" font-size="9">1</tspan><tspan x="10.802" y="0" font-family="'RobotoMono-Regular'" font-size="9">, A)</tspan></text>
</g>
<g>
	<rect x="66.473" y="244.865" fill="none" width="37.584" height="17.667"/>
	<text transform="matrix(0.9799 0 0 1 69.3882 251.6152)"><tspan x="0" y="0" font-family="'RobotoMono-Regular'" font-size="9">(</tspan><tspan x="5.401" y="0" font-family="'RobotoMono-Bold'" font-size="9">1</tspan><tspan x="10.802" y="0" font-family="'RobotoMono-Regular'" font-size="9">, B)</tspan></text>
</g>
<g>
	<rect x="18.67" y="119.131" fill="none" width="91.239" height="21.333"/>
	<text transform="matrix(0.9799 0 0 1 27.2432 125.8809)" font-family="'RobotoMono-Bold'" font-size="9">Sum of weights</text>
</g>
<g>
	<rect x="126.398" y="179.461" fill="none" width="74.903" height="31.026"/>
	<text transform="matrix(0.9799 0 0 1 126.3979 184.7109)"><tspan x="0" y="0" font-family="'RobotoMono-Italic'" font-size="7">Remaining Node </tspan><tspan x="0" y="8.4" font-family="'RobotoMono-Italic'" font-size="7">pair with lowest </tspan><tspan x="0" y="16.8" font-family="'RobotoMono-Italic'" font-size="7">total weight</tspan></text>
</g>
<g>
	<rect x="58.927" y="174.798" fill="none" width="10.725" height="9.65"/>
	<text transform="matrix(0.9799 0 0 1 61.3496 182.2979)" font-family="'RobotoMono-Bold'" font-size="10">2</text>
</g>
<g>
	<rect x="250.704" y="136.714" fill="none" width="76.51" height="17.667"/>
	<text transform="matrix(0.9799 0 0 1 286.0186 144.2139)" font-family="'RobotoMono-Bold'" font-size="10">4</text>
</g>
<line fill="none" stroke="#000000" stroke-width="0.8567" stroke-miterlimit="10" x1="449.006" y1="192.128" x2="470.164" y2="230.847"/>
<line fill="none" stroke="#000000" stroke-width="0.8567" stroke-miterlimit="10" x1="449.006" y1="192.128" x2="427.85" y2="230.847"/>
<line fill="none" stroke="#000000" stroke-width="0.8567" stroke-miterlimit="10" x1="480.437" y1="153.409" x2="512.124" y2="192.128"/>
<line fill="none" stroke="#000000" stroke-width="0.8567" stroke-miterlimit="10" x1="480.437" y1="153.409" x2="448.748" y2="192.128"/>
<g>
	<path d="M448.992,195.564c-1.895,0-3.437-1.542-3.437-3.437c0-1.895,1.542-3.436,3.437-3.436s3.437,1.541,3.437,3.436
		C452.429,194.022,450.887,195.564,448.992,195.564z"/>
	<path fill="#FFFFFF" d="M448.992,189.464c1.471,0,2.664,1.193,2.664,2.663c0,1.472-1.193,2.664-2.664,2.664
		c-1.472,0-2.664-1.192-2.664-2.664C446.328,190.657,447.521,189.464,448.992,189.464 M448.992,187.92
		c-2.32,0-4.209,1.887-4.209,4.208c0,2.321,1.889,4.208,4.209,4.208s4.209-1.888,4.209-4.208
		C453.201,189.807,451.312,187.92,448.992,187.92L448.992,187.92z"/>
</g>
<g>
	<path d="M480.436,156.845c-1.895,0-3.436-1.542-3.436-3.437c0-1.895,1.541-3.436,3.436-3.436s3.437,1.541,3.437,3.436
		C483.872,155.304,482.33,156.845,480.436,156.845z"/>
	<path fill="#FFFFFF" d="M480.436,150.746c1.471,0,2.664,1.193,2.664,2.663c0,1.472-1.193,2.664-2.664,2.664
		s-2.663-1.192-2.663-2.664C477.772,151.938,478.965,150.746,480.436,150.746 M480.436,149.201c-2.32,0-4.208,1.887-4.208,4.208
		c0,2.321,1.888,4.208,4.208,4.208s4.209-1.888,4.209-4.208C484.645,151.088,482.756,149.201,480.436,149.201L480.436,149.201z"/>
</g>
<g>
	<path d="M517.561,119.281c-1.895,0-3.436-1.542-3.436-3.437c0-1.895,1.541-3.436,3.436-3.436s3.437,1.541,3.437,3.436
		C520.997,117.74,519.455,119.281,517.561,119.281z"/>
	<path fill="#FFFFFF" d="M517.561,113.182c1.471,0,2.664,1.193,2.664,2.663c0,1.472-1.193,2.664-2.664,2.664
		s-2.663-1.192-2.663-2.664C514.897,114.375,516.09,113.182,517.561,113.182 M517.561,111.637c-2.32,0-4.208,1.887-4.208,4.208
		c0,2.321,1.888,4.208,4.208,4.208s4.209-1.888,4.209-4.208C521.77,113.524,519.881,111.637,517.561,111.637L517.561,111.637z"/>
</g>
<circle fill="#A1DADE" stroke="#000000" stroke-width="0.718" stroke-miterlimit="10" cx="469.982" cy="230.846" r="3.018"/>
<circle fill="#A1DADE" stroke="#000000" stroke-width="0.718" stroke-miterlimit="10" cx="512.039" cy="192.127" r="3.018"/>
<circle fill="#A1DADE" stroke="#000000" stroke-width="0.718" stroke-miterlimit="10" cx="556.027" cy="154.563" r="3.018"/>
<circle fill="#A1DADE" stroke="#000000" stroke-width="0.718" stroke-miterlimit="10" cx="427.85" cy="230.846" r="3.018"/>
<g>
	<rect x="108.652" y="244.865" fill="none" width="37.491" height="17.667"/>
	<text transform="matrix(0.9799 0 0 1 111.521 251.6152)"><tspan x="0" y="0" font-family="'RobotoMono-Regular'" font-size="9">(</tspan><tspan x="5.401" y="0" font-family="'RobotoMono-Bold'" font-size="9">2</tspan><tspan x="10.802" y="0" font-family="'RobotoMono-Regular'" font-size="9">, C)</tspan></text>
</g>
<g>
	<rect x="146.097" y="244.865" fill="none" width="46.866" height="17.667"/>
	<text transform="matrix(0.9799 0 0 1 153.6533 251.6152)"><tspan x="0" y="0" font-family="'RobotoMono-Regular'" font-size="9">(</tspan><tspan x="5.401" y="0" font-family="'RobotoMono-Bold'" font-size="9">3</tspan><tspan x="10.802" y="0" font-family="'RobotoMono-Regular'" font-size="9">, D)</tspan></text>
</g>
<g>
	<rect x="215.154" y="244.865" fill="none" width="42.284" height="17.667"/>
	<text transform="matrix(0.9799 0 0 1 220.4189 251.6152)"><tspan x="0" y="0" font-family="'RobotoMono-Regular'" font-size="9">(</tspan><tspan x="5.401" y="0" font-family="'RobotoMono-Bold'" font-size="9">1</tspan><tspan x="10.802" y="0" font-family="'RobotoMono-Regular'" font-size="9">, A)</tspan></text>
</g>
<g>
	<rect x="259.636" y="244.865" fill="none" width="37.584" height="17.667"/>
	<text transform="matrix(0.9799 0 0 1 262.5513 251.6152)"><tspan x="0" y="0" font-family="'RobotoMono-Regular'" font-size="9">(</tspan><tspan x="5.401" y="0" font-family="'RobotoMono-Bold'" font-size="9">1</tspan><tspan x="10.802" y="0" font-family="'RobotoMono-Regular'" font-size="9">, B)</tspan></text>
</g>
<g>
	<rect x="301.815" y="244.865" fill="none" width="37.491" height="17.667"/>
	<text transform="matrix(0.9799 0 0 1 304.6836 251.6152)"><tspan x="0" y="0" font-family="'RobotoMono-Regular'" font-size="9">(</tspan><tspan x="5.402" y="0" font-family="'RobotoMono-Bold'" font-size="9">2</tspan><tspan x="10.803" y="0" font-family="'RobotoMono-Regular'" font-size="9">, C)</tspan></text>
</g>
<g>
	<rect x="339.26" y="244.865" fill="none" width="46.867" height="17.667"/>
	<text transform="matrix(0.9799 0 0 1 346.8164 251.6152)"><tspan x="0" y="0" font-family="'RobotoMono-Regular'" font-size="9">(</tspan><tspan x="5.402" y="0" font-family="'RobotoMono-Bold'" font-size="9">3</tspan><tspan x="10.802" y="0" font-family="'RobotoMono-Regular'" font-size="9">, D)</tspan></text>
</g>
<g>
	<rect x="408.486" y="244.865" fill="none" width="42.285" height="17.667"/>
	<text transform="matrix(0.9799 0 0 1 413.752 251.6152)"><tspan x="0" y="0" font-family="'RobotoMono-Regular'" font-size="9">(</tspan><tspan x="5.402" y="0" font-family="'RobotoMono-Bold'" font-size="9">1</tspan><tspan x="10.802" y="0" font-family="'RobotoMono-Regular'" font-size="9">, A)</tspan></text>
</g>
<g>
	<rect x="452.969" y="244.865" fill="none" width="37.584" height="17.667"/>
	<text transform="matrix(0.9799 0 0 1 455.8848 251.6152)"><tspan x="0" y="0" font-family="'RobotoMono-Regular'" font-size="9">(</tspan><tspan x="5.401" y="0" font-family="'RobotoMono-Bold'" font-size="9">1</tspan><tspan x="10.801" y="0" font-family="'RobotoMono-Regular'" font-size="9">, B)</tspan></text>
</g>
<g>
	<rect x="495.148" y="244.865" fill="none" width="37.491" height="17.667"/>
	<text transform="matrix(0.9799 0 0 1 498.0176 251.6152)"><tspan x="0" y="0" font-family="'RobotoMono-Regular'" font-size="9">(</tspan><tspan x="5.401" y="0" font-family="'RobotoMono-Bold'" font-size="9">2</tspan><tspan x="10.801" y="0" font-family="'RobotoMono-Regular'" font-size="9">, C)</tspan></text>
</g>
<g>
	<rect x="532.593" y="244.865" fill="none" width="46.867" height="17.667"/>
	<text transform="matrix(0.9799 0 0 1 540.1494 251.6152)"><tspan x="0" y="0" font-family="'RobotoMono-Regular'" font-size="9">(</tspan><tspan x="5.401" y="0" font-family="'RobotoMono-Bold'" font-size="9">3</tspan><tspan x="10.802" y="0" font-family="'RobotoMono-Regular'" font-size="9">, D)</tspan></text>
</g>
<g>
	<g>
		<line fill="none" stroke="#000000" stroke-width="0.5" stroke-miterlimit="10" x1="64.29" y1="132.297" x2="64.29" y2="133.797"/>
		
			<line fill="none" stroke="#000000" stroke-width="0.5" stroke-miterlimit="10" stroke-dasharray="3.2778,3.2778" x1="64.29" y1="137.075" x2="64.29" y2="161.658"/>
		<line fill="none" stroke="#000000" stroke-width="0.5" stroke-miterlimit="10" x1="64.29" y1="163.297" x2="64.29" y2="164.797"/>
	</g>
</g>
<g>
	<g>
		<path fill="none" stroke="#000000" stroke-width="0.5" stroke-miterlimit="10" stroke-dasharray="3,3" d="M77.586,178.623h38.081
			c2.2,0,4,1.8,4,4v53.523"/>
		<g>
			<polygon points="74.868,178.623 78.699,180.188 77.79,178.623 78.699,177.058 			"/>
		</g>
		<g>
			<polygon points="119.667,238.864 118.102,235.034 119.667,235.943 121.232,235.034 			"/>
		</g>
	</g>
</g>
<line fill="none" stroke="#000000" stroke-width="0.5" stroke-miterlimit="10" x1="205.333" y1="96.615" x2="205.333" y2="275.282"/>
<line fill="none" stroke="#000000" stroke-width="0.5" stroke-miterlimit="10" x1="395.667" y1="96.615" x2="395.667" y2="275.282"/>
</svg>
