<?xml version="1.0" encoding="UTF-8" standalone="no"?>
<!DOCTYPE svg PUBLIC "-//W3C//DTD SVG 1.1//EN" "http://www.w3.org/Graphics/SVG/1.1/DTD/svg11.dtd">
<svg width="100%" height="100%" viewBox="0 0 596 331" version="1.1" xmlns="http://www.w3.org/2000/svg" xmlns:xlink="http://www.w3.org/1999/xlink" xml:space="preserve" xmlns:serif="http://www.serif.com/" style="fill-rule:evenodd;clip-rule:evenodd;stroke-miterlimit:10;">
    <path d="M590.28,2C591.934,2 593.28,3.346 593.28,5L593.28,325.643C593.28,327.297 591.934,328.643 590.28,328.643L5,328.643C3.346,328.643 2,327.297 2,325.643L2,5C2,3.346 3.346,2 5,2L590.28,2M590.28,0L5,0C2.25,0 0,2.25 0,5L0,325.643C0,328.393 2.25,330.643 5,330.643L590.28,330.643C593.03,330.643 595.28,328.393 595.28,325.643L595.28,5C595.28,2.25 593.03,0 590.28,0Z" style="fill:rgb(69,69,69);fill-rule:nonzero;"/>
    <path d="M324.752,89.782L404.051,173.643" style="fill:none;fill-rule:nonzero;stroke:black;stroke-width:2px;"/>
    <path d="M324.752,89.782L245.455,174.244" style="fill:none;fill-rule:nonzero;stroke:black;stroke-width:2px;"/>
    <path d="M245.455,173.643L298.319,258.106" style="fill:none;fill-rule:nonzero;stroke:black;stroke-width:2px;"/>
    <path d="M245.455,173.643L192.591,258.106" style="fill:none;fill-rule:nonzero;stroke:black;stroke-width:2px;"/>
    <g>
        <path d="M245.455,179.479C242.236,179.479 239.618,176.86 239.618,173.641C239.618,170.423 242.237,167.805 245.455,167.805C248.673,167.805 251.292,170.423 251.292,173.641C251.292,176.861 248.674,179.479 245.455,179.479Z" style="fill-rule:nonzero;"/>
        <path d="M245.455,169.117C247.954,169.117 249.98,171.143 249.98,173.641C249.98,176.141 247.954,178.167 245.455,178.167C242.955,178.167 240.93,176.141 240.93,173.641C240.93,171.143 242.955,169.117 245.455,169.117M245.455,166.493C241.513,166.493 238.306,169.7 238.306,173.641C238.306,177.583 241.513,180.791 245.455,180.791C249.397,180.791 252.604,177.583 252.604,173.641C252.604,169.7 249.397,166.493 245.455,166.493Z" style="fill:white;fill-rule:nonzero;"/>
    </g>
    <circle cx="404.051" cy="173.642" r="5.127" style="fill:rgb(161,218,222);stroke:black;stroke-width:1.22px;"/>
    <circle cx="298.319" cy="258.105" r="5.127" style="fill:rgb(161,218,222);stroke:black;stroke-width:1.22px;"/>
    <circle cx="192.591" cy="258.105" r="5.127" style="fill:rgb(161,218,222);stroke:black;stroke-width:1.22px;"/>
    <circle cx="324.751" cy="90.707" r="5.128" style="fill:white;stroke:black;stroke-width:1.26px;"/>
    <g>
        <rect x="32.422" y="25.333" width="416.578" height="35.333" style="fill:none;"/>
        <g transform="matrix(0.9799,0,0,1,32.4224,35.0835)">
            <text x="0px" y="0px" style="font-family:'RobotoMono-Bold', 'Roboto Mono';font-weight:700;font-size:13px;">Example: A simple taptree with 3 leaves.</text>
        </g>
    </g>
    <g>
        <rect x="129.335" y="289" width="106.51" height="17.667" style="fill:none;"/>
        <g transform="matrix(0.9799,0,0,1,143.78,297.25)">
            <text x="0px" y="0px" style="font-family:'RobotoMono-Regular', 'Roboto Mono';font-size:11px;">ts(pk(keyA))</text>
        </g>
    </g>
    <g>
        <rect x="129.335" y="274.667" width="106.51" height="17.667" style="fill:none;"/>
        <g transform="matrix(0.9799,0,0,1,153.483,282.917)">
            <text x="0px" y="0px" style="font-family:'RobotoMono-Bold', 'Roboto Mono';font-weight:700;font-size:11px;">TapLeaf A</text>
        </g>
    </g>
    <g>
        <rect x="254.892" y="289" width="106.511" height="17.667" style="fill:none;"/>
        <g transform="matrix(0.9799,0,0,1,269.336,297.25)">
            <text x="0px" y="0px" style="font-family:'RobotoMono-Regular', 'Roboto Mono';font-size:11px;">ts(pk(keyB))</text>
        </g>
    </g>
    <g>
        <rect x="355.924" y="204.667" width="106.511" height="17.667" style="fill:none;"/>
        <g transform="matrix(0.9799,0,0,1,370.369,212.917)">
            <text x="0px" y="0px" style="font-family:'RobotoMono-Regular', 'Roboto Mono';font-size:11px;">ts(pk(keyC))</text>
        </g>
    </g>
    <g>
        <rect x="254.892" y="274.667" width="106.511" height="17.667" style="fill:none;"/>
        <g transform="matrix(0.9799,0,0,1,279.039,282.917)">
            <text x="0px" y="0px" style="font-family:'RobotoMono-Bold', 'Roboto Mono';font-weight:700;font-size:11px;">TapLeaf B</text>
        </g>
    </g>
    <g>
        <rect x="131.669" y="154.451" width="106.51" height="17.667" style="fill:none;"/>
        <g transform="matrix(0.9799,0,0,1,179.964,162.701)">
            <text x="0px" y="0px" style="font-family:'RobotoMono-Bold', 'Roboto Mono';font-weight:700;font-size:11px;">Node(</text>
            <g transform="matrix(1,0,0,1,33.005,0)">
                <text x="0px" y="0px" style="font-family:'RobotoMono-Regular', 'Roboto Mono';font-size:11px;">A,B</text>
            </g>
            <g transform="matrix(1,0,0,1,52.808,0)">
                <text x="0px" y="0px" style="font-family:'RobotoMono-Bold', 'Roboto Mono';font-weight:700;font-size:11px;">)</text>
            </g>
        </g>
    </g>
    <g>
        <rect x="253.638" y="66" width="142.895" height="17.667" style="fill:none;"/>
        <g transform="matrix(0.9799,0,0,1,266.87,74.2495)">
            <text x="0px" y="0px" style="font-family:'RobotoMono-Bold', 'Roboto Mono';font-weight:700;font-size:11px;">Node(</text>
            <g transform="matrix(1,0,0,1,33.005,0)">
                <text x="0px" y="0px" style="font-family:'RobotoMono-Regular', 'Roboto Mono';font-size:11px;">Node(A,B),C)</text>
            </g>
            <g transform="matrix(1,0,0,1,112.216,0)">
                <text x="0px" y="0px" style="font-family:'RobotoMono-Bold', 'Roboto Mono';font-weight:700;font-size:11px;">)</text>
            </g>
        </g>
    </g>
    <g>
        <rect x="355.924" y="189.834" width="106.51" height="17.667" style="fill:none;"/>
        <g transform="matrix(0.9799,0,0,1,380.07,198.084)">
            <text x="0px" y="0px" style="font-family:'RobotoMono-Bold', 'Roboto Mono';font-weight:700;font-size:11px;">TapLeaf C</text>
        </g>
    </g>
</svg>
