<?xml version="1.0" encoding="utf-8"?>
<!-- Generator: Adobe Illustrator 16.0.4, SVG Export Plug-In . SVG Version: 6.00 Build 0)  -->
<!DOCTYPE svg PUBLIC "-//W3C//DTD SVG 1.1//EN" "http://www.w3.org/Graphics/SVG/1.1/DTD/svg11.dtd">
<svg version="1.1" id="Tapscript_Variants" xmlns="http://www.w3.org/2000/svg" xmlns:xlink="http://www.w3.org/1999/xlink" x="0px"
	 y="0px" width="595.28px" height="330.643px" viewBox="0 0 595.28 330.643" enable-background="new 0 0 595.28 330.643"
	 xml:space="preserve">
<g>
	<path fill="#454545" d="M590.28,2c1.654,0,3,1.346,3,3v320.643c0,1.654-1.346,3-3,3H5c-1.654,0-3-1.346-3-3V5c0-1.654,1.346-3,3-3
		H590.28 M590.28,0H5C2.25,0,0,2.25,0,5v320.643c0,2.75,2.25,5,5,5h585.28c2.75,0,5-2.25,5-5V5C595.28,2.25,593.03,0,590.28,0
		L590.28,0z"/>
</g>
<g opacity="0.65">
	<path fill="#A1DADE" d="M268.361,303.149c0,0.834-0.683,1.517-1.517,1.517h-75.671c-0.834,0-1.517-0.683-1.517-1.517v-12.759
		c0-0.834,0.683-1.517,1.517-1.517h75.671c0.834,0,1.517,0.683,1.517,1.517V303.149z"/>
</g>
<g opacity="0.65">
	<path fill="#A1DADE" d="M359.861,303.149c0,0.834-0.683,1.517-1.518,1.517h-75.67c-0.834,0-1.517-0.683-1.517-1.517v-12.759
		c0-0.834,0.683-1.517,1.517-1.517h75.67c0.835,0,1.518,0.683,1.518,1.517V303.149z"/>
</g>
<g opacity="0.65">
	<path fill="#A1DADE" d="M455.861,303.149c0,0.834-0.683,1.517-1.518,1.517h-75.67c-0.835,0-1.518-0.683-1.518-1.517v-12.759
		c0-0.834,0.683-1.517,1.518-1.517h75.67c0.835,0,1.518,0.683,1.518,1.517V303.149z"/>
</g>
<line fill="none" stroke="#000000" stroke-width="2" stroke-miterlimit="10" x1="352.658" y1="71.782" x2="431.957" y2="155.643"/>
<line fill="none" stroke="#000000" stroke-width="2" stroke-miterlimit="10" x1="352.658" y1="71.782" x2="273.361" y2="156.244"/>
<line fill="none" stroke="#000000" stroke-width="2" stroke-miterlimit="10" x1="273.361" y1="155.643" x2="326.226" y2="240.106"/>
<line fill="none" stroke="#000000" stroke-width="2" stroke-miterlimit="10" x1="273.361" y1="155.643" x2="220.497" y2="240.106"/>
<g>
	<path d="M273.361,161.479c-3.219,0-5.837-2.619-5.837-5.838c0-3.218,2.619-5.836,5.837-5.836s5.837,2.618,5.837,5.836
		C279.199,158.861,276.58,161.479,273.361,161.479z"/>
	<path fill="#FFFFFF" d="M273.361,151.117c2.499,0,4.525,2.026,4.525,4.524c0,2.5-2.026,4.526-4.525,4.526
		c-2.5,0-4.525-2.026-4.525-4.526C268.836,153.143,270.861,151.117,273.361,151.117 M273.361,148.493
		c-3.942,0-7.149,3.207-7.149,7.148c0,3.942,3.207,7.15,7.149,7.15s7.149-3.208,7.149-7.15
		C280.511,151.7,277.304,148.493,273.361,148.493L273.361,148.493z"/>
</g>
<circle fill="#A1DADE" stroke="#000000" stroke-width="1.2198" stroke-miterlimit="10" cx="431.957" cy="155.642" r="5.127"/>
<circle fill="#A1DADE" stroke="#000000" stroke-width="1.2198" stroke-miterlimit="10" cx="326.226" cy="240.105" r="5.127"/>
<circle fill="#A1DADE" stroke="#000000" stroke-width="1.2198" stroke-miterlimit="10" cx="220.497" cy="240.105" r="5.127"/>
<circle fill="#FFFFFF" stroke="#000000" stroke-width="1.2624" stroke-miterlimit="10" cx="352.658" cy="72.707" r="5.128"/>
<g>
	<rect x="32.422" y="25.333" fill="none" width="416.578" height="35.333"/>
	<text transform="matrix(0.9799 0 0 1 32.4224 35.0835)" font-family="'RobotoMono-Bold'" font-size="13">Example: A simple taptree with 3 leaves.</text>
</g>
<g>
	<rect x="73.721" y="291.643" fill="none" width="396.332" height="48"/>
	<text transform="matrix(0.9799 0 0 1 74.6011 299.8926)"><tspan x="0" y="0" font-family="'RobotoMono-Bold'" font-size="11">tp(</tspan><tspan x="19.803" y="0" font-family="'RobotoMono-Regular'" font-size="11">pk_internal</tspan><tspan x="92.413" y="0" font-family="'RobotoMono-Bold'" font-size="11">, [[ts(pk(keyA)), ts(pk(keyB))], ts(pk(keyC))])</tspan></text>
</g>
<line opacity="0.66" fill="none" stroke="#000000" stroke-width="0.5" stroke-miterlimit="10" x1="220.497" y1="252" x2="220.497" y2="280.75"/>
<line opacity="0.66" fill="none" stroke="#000000" stroke-width="0.5" stroke-miterlimit="10" x1="326.226" y1="252" x2="326.226" y2="280.75"/>
<line opacity="0.66" fill="none" stroke="#000000" stroke-width="0.5" stroke-miterlimit="10" x1="431.957" y1="169.5" x2="431.957" y2="280.75"/>
<g opacity="0.66">
	<path fill="none" stroke="#000000" stroke-width="0.5" stroke-miterlimit="10" d="M190.656,285.5v-2.75c0-1.1,0.9-2,2-2h74.705
		c1.1,0,2,0.9,2,2v2.75"/>
</g>
<g opacity="0.66">
	<path fill="none" stroke="#000000" stroke-width="0.5" stroke-miterlimit="10" d="M281.156,285.5v-2.75c0-1.1,0.9-2,2-2h74.705
		c1.1,0,2,0.9,2,2v2.75"/>
</g>
<g opacity="0.66">
	<path fill="none" stroke="#000000" stroke-width="0.5" stroke-miterlimit="10" d="M377.156,285.5v-2.75c0-1.1,0.9-2,2-2h74.705
		c1.1,0,2,0.9,2,2v2.75"/>
</g>
</svg>
