<?xml version="1.0" encoding="utf-8"?>
<!-- Generator: Adobe Illustrator 16.0.4, SVG Export Plug-In . SVG Version: 6.00 Build 0)  -->
<!DOCTYPE svg PUBLIC "-//W3C//DTD SVG 1.1//EN" "http://www.w3.org/Graphics/SVG/1.1/DTD/svg11.dtd">
<svg version="1.1" id="Tapscript_Variants" xmlns="http://www.w3.org/2000/svg" xmlns:xlink="http://www.w3.org/1999/xlink" x="0px"
	 y="0px" width="595.279px" height="330.643px" viewBox="0 0 595.279 330.643" enable-background="new 0 0 595.279 330.643"
	 xml:space="preserve">
<g>
	<path fill="#C9C9C9" d="M263.544,66.487c0,1.887-1.543,3.43-3.429,3.43h-8.804c-1.886,0-3.429-1.543-3.429-3.43V56.144
		c0-1.886,1.543-3.429,3.429-3.429h8.804c1.886,0,3.429,1.543,3.429,3.429V66.487z"/>
</g>
<g opacity="0.65">
	<path fill="#A1DADE" d="M303.897,66.487c0,1.887-1.543,3.43-3.429,3.43h-21.076c-1.886,0-3.429-1.543-3.429-3.43V56.144
		c0-1.886,1.543-3.429,3.429-3.429h21.076c1.886,0,3.429,1.543,3.429,3.429V66.487z"/>
</g>
<g opacity="0.65">
	<path fill="#A1DADE" d="M167.774,290.347c0,1.967-1.608,3.576-3.576,3.576H90.724c-1.967,0-3.576-1.609-3.576-3.576v-10.049
		c0-1.967,1.609-3.577,3.576-3.577h73.476c1.967,0,3.575,1.609,3.575,3.577L167.774,290.347L167.774,290.347z"/>
</g>
<g>
	<path fill="#C9C9C9" d="M68.167,290.494c0,1.886-1.543,3.429-3.43,3.429H55.41c-1.887,0-3.43-1.543-3.43-3.429V280.15
		c0-1.886,1.543-3.429,3.43-3.429h9.326c1.887,0,3.43,1.543,3.43,3.429L68.167,290.494L68.167,290.494z"/>
</g>
<g opacity="0.65">
	<path fill="#A1DADE" d="M255.167,290.494c0,1.886-1.543,3.429-3.43,3.429H177.92c-1.886,0-3.429-1.543-3.429-3.429V280.15
		c0-1.886,1.543-3.429,3.429-3.429h73.816c1.887,0,3.43,1.543,3.43,3.429L255.167,290.494L255.167,290.494z"/>
</g>
<g opacity="0.65">
	<path fill="#A1DADE" d="M357.5,290.52c0,1.872-1.531,3.403-3.403,3.403h-74.9c-1.871,0-3.402-1.531-3.402-3.403v-10.396
		c0-1.872,1.531-3.403,3.402-3.403h74.9c1.872,0,3.403,1.531,3.403,3.403V290.52z"/>
</g>
<g opacity="0.65">
	<path fill="#A1DADE" d="M451.75,290.494c0,1.886-1.544,3.429-3.43,3.429h-74.282c-1.887,0-3.43-1.543-3.43-3.429V280.15
		c0-1.886,1.543-3.429,3.43-3.429h74.282c1.886,0,3.43,1.543,3.43,3.429V290.494z"/>
</g>
<g opacity="0.65">
	<path fill="#A1DADE" d="M540.666,290.61c0,1.822-1.49,3.312-3.312,3.312H460.98c-1.821,0-3.312-1.491-3.312-3.312v-10.576
		c0-1.822,1.49-3.312,3.312-3.312h76.375c1.821,0,3.312,1.491,3.312,3.312V290.61z"/>
</g>
<line fill="none" stroke="#000000" stroke-width="1.1594" stroke-miterlimit="10" x1="289.742" y1="78.437" x2="236.166" y2="116.483"/>
<line fill="none" stroke="#000000" stroke-width="1.1594" stroke-miterlimit="10" x1="236.166" y1="116.483" x2="200.446" y2="155.071"/>
<line fill="none" stroke="#000000" stroke-width="1.1594" stroke-miterlimit="10" x1="289.742" y1="78.437" x2="343.321" y2="116.483"/>
<line fill="none" stroke="#000000" stroke-width="1.1594" stroke-miterlimit="10" x1="236.166" y1="116.483" x2="271.885" y2="154.528"/>
<line fill="none" stroke="#000000" stroke-width="1.1594" stroke-miterlimit="10" x1="343.321" y1="116.753" x2="307.602" y2="154.528"/>
<line fill="none" stroke="#000000" stroke-width="1.1594" stroke-miterlimit="10" x1="343.321" y1="116.753" x2="379.04" y2="154.799"/>
<line fill="none" stroke="#000000" stroke-width="1.1594" stroke-miterlimit="10" x1="379.04" y1="154.528" x2="355.228" y2="192.574"/>
<line fill="none" stroke="#000000" stroke-width="1.1594" stroke-miterlimit="10" x1="379.04" y1="154.528" x2="402.853" y2="192.574"/>
<g>
	<rect x="32.422" y="29.333" fill="none" width="139.51" height="18.325"/>
	<text transform="matrix(0.9799 0 0 1 38.6687 38.3333)" font-family="'RobotoMono-Bold'" font-size="12">Taproot Descriptor</text>
</g>
<g>
	<path fill="none" stroke="#C9C9C9" stroke-width="1.5" stroke-miterlimit="10" d="M499.25,269.256v-13.899c0-1.649-1.351-3-3-3
		h-86.07c-1.65,0-3,1.351-3,3v13.899"/>
</g>
<g>
	<path fill="none" stroke="#C9C9C9" stroke-width="1.5" stroke-miterlimit="10" d="M386.07,235.587l-0.018-13.899
		c-0.002-1.649-1.354-3-3.004-2.999L168.517,218.8c-1.649,0.001-3,1.352-3,3.001v30.555"/>
</g>
<g>
	<path fill="none" stroke="#C9C9C9" stroke-width="1.5" stroke-miterlimit="10" d="M453.215,252.6v-13.898c0-1.65-1.351-3-3-3H319.5
		c-1.65,0-3,1.35-3,3v30.555"/>
</g>
<g>
	<path fill="none" stroke="#C9C9C9" stroke-width="1.5" stroke-miterlimit="10" d="M210.829,269.256v-13.899c0-1.649-1.351-3-3-3
		h-84.623c-1.65,0-3,1.351-3,3v13.899"/>
</g>
<g>
	<rect x="15.515" y="280.152" fill="none" width="568.766" height="19.304"/>
	<text transform="matrix(0.9799 0 0 1 32.782 288.7766)" font-family="'RobotoMono-Bold'" font-size="11.5">tp(pk,[[ts(pk(keyA)),ts(pk(keyB))],[ts(pk(keyC)),[ts(pk(keyD)),ts(pk(keyE))]]])</text>
</g>
<circle fill="#C9C9C9" cx="165.518" cy="252.357" r="2.257"/>
<circle fill="#C9C9C9" cx="453.215" cy="252.357" r="2.257"/>
<g>
	<rect x="220.991" y="55.646" fill="none" width="103.312" height="14.604"/>
	<text transform="matrix(0.9799 0 0 1 228.6907 64.2708)" font-family="'RobotoMono-Bold'" font-size="11.5">tp(pk,[tree])</text>
</g>
<circle fill="#A1DADE" stroke="#000000" stroke-miterlimit="10" cx="200.446" cy="154.799" r="4.203"/>
<g>
	<path d="M236.166,119.82c-1.84,0-3.337-1.497-3.337-3.337s1.497-3.336,3.337-3.336s3.337,1.497,3.337,3.336
		S238.006,119.82,236.166,119.82z"/>
	<path fill="#FFFFFF" d="M236.166,113.896c1.429,0,2.587,1.158,2.587,2.586c0,1.43-1.158,2.587-2.587,2.587
		c-1.43,0-2.587-1.157-2.587-2.587C233.579,115.055,234.737,113.896,236.166,113.896 M236.166,112.396
		c-2.253,0-4.087,1.833-4.087,4.086s1.833,4.087,4.087,4.087s4.087-1.833,4.087-4.087S238.419,112.396,236.166,112.396
		L236.166,112.396z"/>
</g>
<g>
	<path d="M343.321,120.09c-1.84,0-3.337-1.497-3.337-3.337s1.497-3.336,3.337-3.336c1.841,0,3.338,1.497,3.338,3.336
		S345.161,120.09,343.321,120.09z"/>
	<path fill="#FFFFFF" d="M343.321,114.167c1.43,0,2.588,1.158,2.588,2.586c0,1.429-1.158,2.587-2.588,2.587
		c-1.429,0-2.587-1.158-2.587-2.587C340.734,115.325,341.893,114.167,343.321,114.167 M343.321,112.667
		c-2.254,0-4.087,1.833-4.087,4.086s1.833,4.087,4.087,4.087c2.255,0,4.088-1.833,4.088-4.087S345.575,112.667,343.321,112.667
		L343.321,112.667z"/>
</g>
<g>
	<path d="M379.04,157.865c-1.84,0-3.337-1.496-3.337-3.337c0-1.84,1.497-3.336,3.337-3.336s3.337,1.497,3.337,3.336
		C382.377,156.367,380.88,157.865,379.04,157.865z"/>
	<path fill="#FFFFFF" d="M379.04,151.941c1.429,0,2.587,1.158,2.587,2.586c0,1.43-1.158,2.587-2.587,2.587
		c-1.43,0-2.587-1.157-2.587-2.587C376.453,153.1,377.611,151.941,379.04,151.941 M379.04,150.441c-2.254,0-4.087,1.833-4.087,4.086
		s1.833,4.087,4.087,4.087s4.087-1.833,4.087-4.087S381.294,150.441,379.04,150.441L379.04,150.441z"/>
</g>
<circle fill="#A1DADE" stroke="#000000" stroke-miterlimit="10" cx="271.885" cy="154.799" r="4.203"/>
<circle fill="#A1DADE" stroke="#000000" stroke-miterlimit="10" cx="307.602" cy="155.07" r="4.203"/>
<circle fill="#A1DADE" stroke="#000000" stroke-miterlimit="10" cx="355.229" cy="192.573" r="4.203"/>
<circle fill="#A1DADE" stroke="#000000" stroke-miterlimit="10" cx="402.853" cy="192.573" r="4.203"/>
<circle fill="#FFFFFF" stroke="#000000" stroke-width="1.0349" stroke-miterlimit="10" cx="289.742" cy="78.436" r="4.204"/>
<g opacity="0.55">
	<g>
		
			<line fill="none" stroke="#929393" stroke-width="1.5" stroke-miterlimit="10" x1="289.742" y1="162.821" x2="289.742" y2="205.296"/>
		<g>
			<polygon fill="#929393" points="289.742,211.121 286.388,202.913 289.742,204.86 293.095,202.913 			"/>
		</g>
	</g>
</g>
<circle fill="#C9C9C9" cx="386.07" cy="235.701" r="2.257"/>
<g>
	<path fill="#454545" d="M590.28,2c1.654,0,3,1.346,3,3v320.643c0,1.654-1.346,3-3,3H5c-1.654,0-3-1.346-3-3V5c0-1.654,1.346-3,3-3
		H590.28 M590.28,0H5C2.25,0,0,2.25,0,5v320.643c0,2.75,2.25,5,5,5H590.28c2.75,0,5-2.25,5-5V5C595.28,2.25,593.03,0,590.28,0
		L590.28,0z"/>
</g>
</svg>
