<?xml version="1.0" encoding="utf-8"?>
<!-- Generator: Adobe Illustrator 16.0.4, SVG Export Plug-In . SVG Version: 6.00 Build 0)  -->
<!DOCTYPE svg PUBLIC "-//W3C//DTD SVG 1.1//EN" "http://www.w3.org/Graphics/SVG/1.1/DTD/svg11.dtd">
<svg version="1.1" id="Tapscript_Variants" xmlns="http://www.w3.org/2000/svg" xmlns:xlink="http://www.w3.org/1999/xlink" x="0px"
	 y="0px" width="595.28px" height="330.643px" viewBox="0 0 595.28 330.643" enable-background="new 0 0 595.28 330.643"
	 xml:space="preserve">
<g>
	<path fill="#454545" d="M590.28,2c1.654,0,3,1.346,3,3v320.643c0,1.654-1.346,3-3,3H5c-1.654,0-3-1.346-3-3V5c0-1.654,1.346-3,3-3
		H590.28 M590.28,0H5C2.25,0,0,2.25,0,5v320.643c0,2.75,2.25,5,5,5h585.28c2.75,0,5-2.25,5-5V5C595.28,2.25,593.03,0,590.28,0
		L590.28,0z"/>
</g>
<line fill="none" stroke="#000000" stroke-width="2" stroke-miterlimit="10" x1="324.752" y1="89.782" x2="404.051" y2="173.643"/>
<line fill="none" stroke="#000000" stroke-width="2" stroke-miterlimit="10" x1="324.752" y1="89.782" x2="245.455" y2="174.244"/>
<line fill="none" stroke="#000000" stroke-width="2" stroke-miterlimit="10" x1="245.455" y1="173.643" x2="298.319" y2="258.106"/>
<line fill="none" stroke="#000000" stroke-width="2" stroke-miterlimit="10" x1="245.455" y1="173.643" x2="192.591" y2="258.106"/>
<g>
	<path d="M245.455,179.479c-3.219,0-5.837-2.619-5.837-5.838c0-3.218,2.619-5.836,5.837-5.836s5.837,2.618,5.837,5.836
		C251.292,176.861,248.674,179.479,245.455,179.479z"/>
	<path fill="#FFFFFF" d="M245.455,169.117c2.499,0,4.525,2.026,4.525,4.524c0,2.5-2.026,4.526-4.525,4.526
		c-2.5,0-4.525-2.026-4.525-4.526C240.93,171.143,242.955,169.117,245.455,169.117 M245.455,166.493
		c-3.942,0-7.149,3.207-7.149,7.148c0,3.942,3.207,7.15,7.149,7.15s7.149-3.208,7.149-7.15
		C252.604,169.7,249.397,166.493,245.455,166.493L245.455,166.493z"/>
</g>
<circle fill="#A1DADE" stroke="#000000" stroke-width="1.2198" stroke-miterlimit="10" cx="404.051" cy="173.642" r="5.127"/>
<circle fill="#A1DADE" stroke="#000000" stroke-width="1.2198" stroke-miterlimit="10" cx="298.319" cy="258.105" r="5.127"/>
<circle fill="#A1DADE" stroke="#000000" stroke-width="1.2198" stroke-miterlimit="10" cx="192.591" cy="258.105" r="5.127"/>
<circle fill="#FFFFFF" stroke="#000000" stroke-width="1.2624" stroke-miterlimit="10" cx="324.751" cy="90.707" r="5.128"/>
<g>
	<rect x="32.422" y="25.333" fill="none" width="416.578" height="35.333"/>
	<text transform="matrix(0.9799 0 0 1 32.4224 35.0835)" font-family="'RobotoMono-Bold'" font-size="13">Example: A simple taptree with 3 leaves.</text>
</g>
<g>
	<rect x="129.335" y="289" fill="none" width="106.51" height="17.667"/>
	<text transform="matrix(0.9799 0 0 1 143.7803 297.25)" font-family="'RobotoMono-Regular'" font-size="11">ts(pk(keyA))</text>
</g>
<g>
	<rect x="129.335" y="274.667" fill="none" width="106.51" height="17.667"/>
	<text transform="matrix(0.9799 0 0 1 153.4829 282.917)" font-family="'RobotoMono-Bold'" font-size="11">TapLeaf A</text>
</g>
<g>
	<rect x="254.892" y="289" fill="none" width="106.511" height="17.667"/>
	<text transform="matrix(0.9799 0 0 1 269.3364 297.25)" font-family="'RobotoMono-Regular'" font-size="11">ts(pk(keyB))</text>
</g>
<g>
	<rect x="355.924" y="204.667" fill="none" width="106.511" height="17.667"/>
	<text transform="matrix(0.9799 0 0 1 370.3691 212.9165)" font-family="'RobotoMono-Regular'" font-size="11">ts(pk(keyC))</text>
</g>
<g>
	<rect x="254.892" y="274.667" fill="none" width="106.511" height="17.667"/>
	<text transform="matrix(0.9799 0 0 1 279.0391 282.917)" font-family="'RobotoMono-Bold'" font-size="11">TapLeaf B</text>
</g>
<g>
	<rect x="131.669" y="154.451" fill="none" width="106.51" height="17.667"/>
	<text transform="matrix(0.9799 0 0 1 179.9639 162.7007)"><tspan x="0" y="0" font-family="'RobotoMono-Bold'" font-size="11">Node(</tspan><tspan x="33.005" y="0" font-family="'RobotoMono-Regular'" font-size="11">A,B</tspan><tspan x="52.808" y="0" font-family="'RobotoMono-Bold'" font-size="11">)</tspan></text>
</g>
<g>
	<rect x="253.638" y="66" fill="none" width="142.895" height="17.667"/>
	<text transform="matrix(0.9799 0 0 1 266.8696 74.2495)"><tspan x="0" y="0" font-family="'RobotoMono-Bold'" font-size="11">Node(</tspan><tspan x="33.005" y="0" font-family="'RobotoMono-Regular'" font-size="11">Node(A,B),C)</tspan><tspan x="112.216" y="0" font-family="'RobotoMono-Bold'" font-size="11">)</tspan></text>
</g>
<g>
	<rect x="355.924" y="189.834" fill="none" width="106.51" height="17.667"/>
	<text transform="matrix(0.9799 0 0 1 380.0703 198.084)" font-family="'RobotoMono-Bold'" font-size="11">TapLeaf C</text>
</g>
</svg>
